<?xml version="1.0" encoding="UTF-8"?>
<svg version="1.1" viewBox="0 0 868 928" width="217" height="232" xmlns="http://www.w3.org/2000/svg">
<path transform="translate(516,124)" d="m0 0 7 1 1 4-5 9 1 13-2 3-5 2h-4v3l8-4 7 1 5 5 3 8v6l-2 2 4 2 2 10 3 23v19l-5 13h37l9 4 6 5 5 8 2 9v285h14l12-2 7-1 1 2 6 1-1-4-4 1-2-2v-7l-2 2-2-5v-9l-3-4-1-8 1-3 5 1 12 5 3 5-1 6-4 15 11 1 12 4 3 4v5l-4 3 1 27v24l1 13v22l1 71 1 30-1 1h-12l-7-1 1-2 11-2-6-25-8-37-5-27-1-1-16 64-6 23v7l-5 1-13-1 3-2 6-3 1-19 1-42 3-31 2-21 1-23-15 2-1 2v92l-1 16-4 10-6 8-8 7-7 4-78 1-11-3-6-4-2-5-3 1-1 8-1 2-10 1-11-1-12-5-2-6h-2l-4 11-9 1h-78l-4-1-2-5h-1v6h-21l-9-1-11-7-9-7v14l-1 1h-115l-3-1v-29l19-1 32-15h2v-2l-6-2-31-14v-4l10-4 21-9 6-2v-2l-6-2-32-15 1-3 13-5 20-9 4-4-9-3-31-14-12-1-1-4v-13l1-2h84l-2-13-12-55-3-9-10-19-2-2-8 29-12 36-8 22 1 3 9 5v3l-8-2-3-2-8-2-1-2 4-13 10-48 1-5-1-20-2-20v-10l-3-42v-11l3-9 6-8 10-5h2v-9l2-3-1-6-2 5-5-1v-7l4-7 2-2h13l6 3-1 6-4 10-2 10 6-3 4-6 2-6 2-12 1-14 2-1v26l-4 12-2 3 5-1 3-9 7-8 4-5 3-5 4 1 6 9 3 9v6l-5 1h-18l-1 4 4 10-1 5-1 1-3 16-4 8-2 2 1 28 9 44 4 36 3 32v11l13 3 1 2 7 2v-254l-8 4h-8l-7-15h-13l-7 9-3 4-6-2-10-6-1-5 4-8v-7l-5-6v-2l-11 2h-9l-5-15 1-4 13-6h2l1-10-1-4-13-9 1-5 8-13 10 3 5 2 5-1 6-7-1-12-1-5 6-3 9-3 5 1 6 14 5 1 8 1 6-7 4-6 6 1 11 6 1 4-4 12-1 5 7-2 3-2 1-3-3-1 1-5 4-2 4-8-1-7-10-4-3-3 3-13 5-1 10 2 3-6-1-9-2-3 1-5 8-6 5 1 6 7 2 1h9l3-9 2-5 10 2 5 2v13l6 5 6-1 5-3 5 1 6 8-1 5-8 7v8l4 3 9 4 1 4-4 11-3 1-10-2-7 9 1 1h85v-11l3-5 13-4 7-1h25l-2-8-1-5 5-5-5 1 1-5 2-2-4-1-2-12-1-4-18 6h-11l-5-3-5-6-8-24 1-3h9l2 2 3 10-1 4-2 1 2 5 2 3 7 1 11-4 5-5 8-5 10-5 6-4v-3l-5-3-3-7 3-9 5-4zm-185 73-8 5-4 6-1 3v9l4 8 7 6 3 1h10l9-6 4-6 1-3v-8l-4-8-6-5-5-2zm-100 56-1 10-5 14v7l3 9 5 6 6 4 5 2h9l10-3 6-5 3-3 2-7v-13l-4-8-8-7-8-3h-9l-10 4-1 1v-8zm42 45 1 3zm-57 77-2 5-3 7v3h2v2l3-1 2-4 2-5v-5zm17 20-1 4 4 12h4l-3-10-3-6zm360 174-1 4v29l1 5 12-3 7-7-2-5 3-1-3-5-1-16zm-362 27 1 3 2-1v-2zm1 8-2 1v7h-44v2l18 8 10 5 6 2 6-1 24-11 5-3-1-2-22-1 3-4v-2zm40 7-15 6-25 11-4 2 1 3 26 12 10 4v2l-17 7-19 9-1 3 27 12 10 4-3 3-31 14-4 2 3 3 17 8 12 5 10 3h5v-112zm-52 23-26 11-8 4 3 3 16 8 14 6 7-1 27-12 4-3-16-8-18-8zm-3 38-27 12-3 1 1 4 17 8 13 6h7l28-13 3-2-1-3-17-7-13-6zm2 36-20 9-8 5 2 2 58-1-3-3-25-12z" fill="#80A6FA"/>
<path transform="translate(516,124)" d="m0 0 7 1 1 4-5 9 1 13-2 3-5 2h-4v3l8-4 7 1 5 5 3 8v6l-2 2 4 2 2 10 3 23v19l-5 13h37l9 4 6 5 5 8 2 9v285h14l12-2 7-1 1 2 6 1-1-4-4 1-2-2v-7l-2 2-2-5v-9l-3-4-1-8 1-3 5 1 12 5 3 5-1 6-4 15 11 1 12 4 3 4v5l-4 3 1 27v24l1 13v22l1 71 1 30-1 1h-12l-7-1 1-2 11-2-6-25-8-37-5-27-1-1-16 64-6 23v7l-5 1-13-1 3-2 6-3 1-19 1-42 3-31 2-21 1-23-15 2-1 2v92l-1 16-4 10-6 8-8 7-7 4-78 1-11-3-6-4-2-5-3 1-1 8-1 2-10 1-11-1-12-5-2-6h-2l-4 11-9 1h-78l-3-1-1-6 2-1 4 1-1-6 4-10 9-26 3-1 65-1 2-1-1-25-2-44 8 1 13 2h11l13-4h3l6 32 2 14 2 24h88l5-1 2-8 1-83v-47l-4-2-11-9-8-10-7-12-2-5 2-4v2l5 1 14 15 8 7 2 1v-263h-91l-3 25h-5l-1-1-1-19-2-4h-7l-3 23-1 1h-5l-2-25h-154v415l3 3 4 1 17 1 2 1 2 11 2 37-17 1-9-1-11-7-9-7v14l-1 1h-115l-3-1v-29l19-1 32-15h2v-2l-6-2-31-14v-4l10-4 21-9 6-2v-2l-6-2-32-15 1-3 13-5 20-9 4-4-9-3-31-14-12-1-1-4v-13l1-2h84l-2-13-12-55-3-9-10-19-2-2-8 29-12 36-8 22 1 3 9 5v3l-8-2-3-2-8-2-1-2 4-13 10-48 1-5-1-20-2-20v-10l-3-42v-11l3-9 6-8 10-5h2v-9l2-3-1-6-2 5-5-1v-7l4-7 2-2h13l6 3-1 6-4 10-2 10 6-3 4-6 2-6 2-12 1-14 2-1v26l-4 12-2 3 5-1 3-9 7-8 4-5 3-5 4 1 6 9 3 9v6l-5 1h-18l-1 4 4 10-1 5-1 1-3 16-4 8-2 2 1 28 9 44 4 36 3 32v11l13 3 1 2 7 2v-254l-8 4h-8l-7-15h-13l-7 9-3 4-6-2-10-6-1-5 4-8v-7l-5-6v-2l-11 2h-9l-5-15 1-4 13-6h2l1-10-1-4-13-9 1-5 8-13 10 3 5 2 5-1 6-7-1-12-1-5 6-3 9-3 5 1 6 14 5 1 8 1 6-7 4-6 6 1 11 6 1 4-4 12-1 5 7-2 3-2 1-3-3-1 1-5 4-2 4-8-1-7-10-4-3-3 3-13 5-1 10 2 3-6-1-9-2-3 1-5 8-6 5 1 6 7 2 1h9l3-9 2-5 10 2 5 2v13l6 5 6-1 5-3 5 1 6 8-1 5-8 7v8l4 3 9 4 1 4-4 11-3 1-10-2-7 9 1 1h85v-11l3-5 13-4 7-1h25l-2-8-1-5 5-5-5 1 1-5 2-2-4-1-2-12-1-4-18 6h-11l-5-3-5-6-8-24 1-3h9l2 2 3 10-1 4-2 1 2 5 2 3 7 1 11-4 5-5 8-5 10-5 6-4v-3l-5-3-3-7 3-9 5-4zm-185 73-8 5-4 6-1 3v9l4 8 7 6 3 1h10l9-6 4-6 1-3v-8l-4-8-6-5-5-2zm-100 56-1 10-5 14v7l3 9 5 6 6 4 5 2h9l10-3 6-5 3-3 2-7v-13l-4-8-8-7-8-3h-9l-10 4-1 1v-8zm42 45 1 3zm-57 77-2 5-3 7v3h2v2l3-1 2-4 2-5v-5zm17 20-1 4 4 12h4l-3-10-3-6zm360 174-1 4v29l1 5 12-3 7-7-2-5 3-1-3-5-1-16zm-362 27 1 3 2-1v-2zm1 8-2 1v7h-44v2l18 8 10 5 6 2 6-1 24-11 5-3-1-2-22-1 3-4v-2zm40 7-15 6-25 11-4 2 1 3 26 12 10 4v2l-17 7-19 9-1 3 27 12 10 4-3 3-31 14-4 2 3 3 17 8 12 5 10 3h5v-112zm-52 23-26 11-8 4 3 3 16 8 14 6 7-1 27-12 4-3-16-8-18-8zm-3 38-27 12-3 1 1 4 17 8 13 6h7l28-13 3-2-1-3-17-7-13-6zm2 36-20 9-8 5 2 2 58-1-3-3-25-12z" fill="#145ACD"/>
<path transform="translate(340,165)" d="m0 0 10 2 5 2v13l6 5 6-1 5-3 5 1 6 8-1 5-8 7v8l4 3 9 4 1 4-4 11-3 1-10-2-7 9 1 1 83 1 1 1v15l-1 1h-8l-3-9-6-2-2 10-1 1h-20l-32 1 1 4 56 1h17l1 11-1 3-155 1v413l3 5 5 2 17 1 2 1 2 11 2 37-17 1-9-1-11-7-9-7v14l-1 1h-115l-3-1v-29l19-1 32-15h2v-2l-6-2-31-14v-4l10-4 21-9 6-2v-2l-6-2-32-15 1-3 13-5 20-9 4-4-9-3-31-14-12-1-1-4v-13l1-2h84l-2-13-12-55-3-9-10-19-2-2-8 29-12 36-8 22 1 3 9 5v3l-8-2-3-2-8-2-1-2 4-13 10-48 1-5-1-20-2-20v-10l-3-42v-11l3-9 6-8 10-5h2v-9l2-3-1-6-2 5-5-1v-7l4-7 2-2h13l6 3-1 6-4 10-2 10 6-3 4-6 2-6 2-12 1-14 2-1v26l-4 12-2 3 5-1 3-9 7-8 4-5 3-5 4 1 6 9 3 9v6l-5 1h-18l-1 4 4 10-1 5-1 1-3 16-4 8-2 2 1 28 9 44 4 36 3 32v11l13 3 1 2 7 2v-254l-8 4h-8l-7-15h-13l-7 9-3 4-6-2-10-6-1-5 4-8v-7l-5-6v-2l-11 2h-9l-5-15 1-4 13-6h2l1-10-1-4-13-9 1-5 8-13 10 3 5 2 5-1 6-7-1-12-1-5 6-3 9-3 5 1 6 14 5 1 8 1 6-7 4-6 6 1 11 6 1 4-4 12-1 5 7-2 3-2 1-3-3-1 1-5 4-2 4-8-1-7-10-4-3-3 3-13 5-1 10 2 3-6-1-9-2-3 1-5 8-6 5 1 6 7 2 1h9l3-9zm-9 32-8 5-4 6-1 3v9l4 8 7 6 3 1h10l9-6 4-6 1-3v-8l-4-8-6-5-5-2zm-100 56-1 10-5 14v7l3 9 5 6 6 4 5 2h9l10-3 6-5 3-3 2-7v-13l-4-8-8-7-8-3h-9l-10 4-1 1v-8zm42 45 1 3zm-57 77-2 5-3 7v3h2v2l3-1 2-4 2-5v-5zm17 20-1 4 4 12h4l-3-10-3-6zm-2 201 1 3 2-1v-2zm1 8-2 1v7h-44v2l18 8 10 5 6 2 6-1 24-11 5-3-1-2-22-1 3-4v-2zm40 7-15 6-25 11-4 2 1 3 26 12 10 4v2l-17 7-19 9-1 3 27 12 10 4-3 3-31 14-4 2 3 3 17 8 12 5 10 3h5v-112zm-52 23-26 11-8 4 3 3 16 8 14 6 7-1 27-12 4-3-16-8-18-8zm-3 38-27 12-3 1 1 4 17 8 13 6h7l28-13 3-2-1-3-17-7-13-6zm2 36-20 9-8 5 2 2 58-1-3-3-25-12z" fill="#020F63"/>
<path transform="translate(572,615)" d="m0 0h21v92l-1 16-4 10-6 8-8 7-7 4-78 1-11-3-6-4-2-5-3 1-1 8-1 2-10 1-11-1-12-5-2-6h-2l-4 11-9 1h-78l-3-1-1-6 2-1 4 1-1-6 4-10 9-26 3-1 65-1 2-1-1-25-2-44 8 1 13 2h11l13-4h3l6 32 2 14 2 24h88l5-1 2-8z" fill="#135ACD"/>
<path transform="translate(274,345)" d="m0 0h1l1 248h5v18l-6 1 1 109 4 3 2 12v3l-2-1v14l-1 1h-115l-3-1v-29l19-1 32-15h2v-2l-6-2-31-14v-4l10-4 21-9 6-2v-2l-6-2-32-15 1-3 13-5 20-9 4-4-9-3-31-14-12-1-1-4v-13l1-2h84l-2-13-12-55-3-9-10-19-2-2-8 29-12 36-8 22 1 3 9 5v3l-8-2-3-2-8-2-1-2 4-13 10-48 1-5-1-20-2-20v-10l-3-42v-11l3-9 6-8 10-5h2v-9l2-3-1-6-2 5-5-1v-7l4-7 2-2h13l6 3-1 6-4 10-2 10 6-3 4-6 2-6 2-12 1-14 2-1v26l-4 12-2 3 5-1 3-9 7-8 4-5 3-5 4 1 6 9 3 9v6l-5 1h-18l-1 4 4 10-1 5-1 1-3 16-4 8-2 2 1 28 9 44 4 36 3 32v11l13 3 1 2 7 2zm-58 30-2 5-3 7v3h2v2l3-1 2-4 2-5v-5zm17 20-1 4 4 12h4l-3-10-3-6zm-2 201 1 3 2-1v-2zm1 8-2 1v7h-44v2l18 8 10 5 6 2 6-1 24-11 5-3-1-2-22-1 3-4v-2zm40 7-15 6-25 11-4 2 1 3 26 12 10 4v2l-17 7-19 9-1 3 27 12 10 4-3 3-31 14-4 2 3 3 17 8 12 5 10 3h5v-112zm-52 23-26 11-8 4 3 3 16 8 14 6 7-1 27-12 4-3-16-8-18-8zm-3 38-27 12-3 1 1 4 17 8 13 6h7l28-13 3-2-1-3-17-7-13-6zm2 36-20 9-8 5 2 2 58-1-3-3-25-12z" fill="#3771D9"/>
<path transform="translate(521,544)" d="m0 0 3 1v7l-6 26-5 8-1 5-9 3-13 2h-5l1 2 66-1v-17l1-34 5 5 12 10 2 1 1 48-1 82-2 6-3 3-3 1h-89l-3-32-6-35v-4l-16 5h-11l-17-3-4-2v-56l2-9 6-9 8-5h6 3 5l1-1 10 1 16 8 2 2-1 5-4 6-3 7v4l5 3v4l7 1 1-2h2v-5l13 1h14l2-16 6-24z" fill="#80A5FA"/>
<path transform="translate(608,308)" d="m0 0h111l1 1-1 42h-5v2l5-1 1 5v90l-2 1h-110l-1-1v-138z" fill="#021065"/>
<path transform="translate(325,511)" d="m0 0 3 1v12h16l4 4 1 7-1 4v9l54 1-1-22v-15l4-1 1 1v189l13 1v1l-68 1-1 5-11 33 1 4-3 1h-3v5l-2-4-2-1v6h-17v-1h13l-1-4-2-33-1-11-19-1-5-2-3-3 1-3 5 5 4 1 17 1-4-29-5-21-1-10v-14l1-14 14 2h21l2-7 3-2 20-4 4-2 7-1 1-1v-6l-4-2 3-5-1-4-7 4-9 1-6-8-5-11-6-12-3-2-7-2 1-5 2-1v-6l-4-2h-14v6l3 3v4l-9 5-5 6-3 9-3-1-1-9 2-6 2-16 3-7 6-5h2l2-15z" fill="#1359CB"/>
<path transform="translate(619,516)" d="m0 0 5 1 12 5 3 5-1 6-4 15 11 1 12 4 3 4v5l-4 3 1 27v24l1 13v22l1 71 1 30-1 1h-12l-7-1 1-2 11-2-6-25-8-37-5-27-1-1-16 64-6 23v7l-5 1-13-1 3-2 6-3 1-19 1-42 3-31 2-21 1-23-15 2-2 2h-20v-53l-4-2-11-9-8-10-7-12-2-5 2-4v2l5 1 14 15 8 7 9 6 9 3 6 1h14l12-2 7-1 1 2 6 1-1-4-4 1-2-2v-7l-2 2-2-5v-9l-3-4-1-8zm-26 53-1 4v29l1 5 12-3 7-7-2-5 3-1-3-5-1-16z" fill="#FA765F"/>
<path transform="translate(535,244)" d="m0 0h36l9 4 6 5 5 8 2 9-1 285-8-1-10-4-1-1-1-266-89-1-1-1 1-14 7-1v-6l-3 1-2-1v-9l25-3 20-2z" fill="#020E62"/>
<path transform="translate(572,615)" d="m0 0h21v92l-1 16-4 10-6 8-8 7-7 4-78 1-11-3-6-4-1-6h2l1-36 8-1 84-1 4-1 1-9z" fill="#031064"/>
<path transform="translate(313,614)" d="m0 0 14 2h14l8-1 3 12 47 1-3 2 6 1 1 2v33l-1 2-1 4-4-1-36-1-8 32h11v1l-13 1-1 5-11 33 1 4-3 1h-3v5l-2-4-2-1v6h-17v-1h13l-1-4-2-33-1-11-19-1-5-2-3-3 1-3 5 5 4 1 17 1-4-29-5-21-1-10v-14z" fill="#145ACD"/>
<path transform="translate(236,216)" d="m0 0 5 1 6 14 5 1 8 1 6-7 4-6 6 1 11 6 1 4-4 12-1 5 3 1-8 9-3 10-1 6-6-9-8-6-6-2h-9l-10 4-2 1 1-9h-3l1 5-3 10-3 9v7l3 9 4 5 6 4 5 2h9l10-3 4-4h2l1-3h2l1-7 2 2-1 51-8 4h-8l-7-15h-13l-7 9-3 4-6-2-10-6-1-5 4-8v-7l-5-6v-2l-11 2h-9l-5-15 1-4 13-6h2l1-10-1-4-13-9 1-5 8-13 10 3 5 2 5-1 6-7-1-12-1-5 6-3zm37 82 1 3z" fill="#FCCC49"/>
<path transform="translate(401,338)" d="m0 0h67l1 1 1 17v16l-1 37-2 1h-67l-2-2-1-22v-26l1-17z" fill="#FBC94E"/>
<path transform="translate(459,430)" d="m0 0 7 1 2 4 1 7v52l-2 10-28 1h-25l-13-1-3-2v-60l3-2v-5l5-3h2v2h4v-2l13-1h29v3l3-1z" fill="#FA755F"/>
<path transform="translate(237,351)" d="m0 0h1v26l-4 12-2 3 5-1 3-9 7-8 4-5 3-5 4 1 6 9 3 9v6l-5 1h-18l-1 4 4 10-1 5-1 1-3 16-4 8-2 2 1 28 1 9-4 2-6 1h-25l-11-1-1 4v-10l-3-42v-11l3-9 6-8 10-5h2v-9l2-3-1-6-2 5-5-1v-7l4-7 2-2h13l6 3-1 6-4 10-2 10 6-3 4-6 2-6 2-12 1-14zm-21 24-2 5-3 7v3h2v2l3-1 2-4 2-5v-5zm17 20-1 4 4 12h4l-3-10-3-6z" fill="#83A7FA"/>
<path transform="translate(318,339)" d="m0 0h61l4 2 1 2 1 13v41l-1 11-6 2h-58l-6-2v-65z" fill="#031268"/>
<path transform="translate(318,434)" d="m0 0h64l2 7v56l-1 6-2 1h-62l-4-2v-66z" fill="#1259CC"/>
<path transform="translate(485,340)" d="m0 0h44l2 10 7 3v-12l1-1h8l5 1v67l-2 1h-63l-3-1-1-17v-43l1-7z" fill="#1259CC"/>
<path transform="translate(540,527)" d="m0 0 5 5 6 10 2 3v35l-1 17-2 1-64 1-1-3 22-4 5-2 1-6 4-6 6-26v-7l-3 1-6 24-2 14-1 2-4 1h-10l-13-2-1-6v-48l1-2 12-1z" fill="#135ACD"/>
<path transform="translate(340,165)" d="m0 0 10 2 5 2v13l6 5 6-1 5-3 5 1 6 8-1 5-8 7v8l4 3 9 4 1 4-4 11-3 1-10-2-7 9 1 2-72 1 1-4-3-1 1-5 4-2 4-8-1-7-10-4-3-3 3-13 5-1 10 2 3-6-1-9-2-3 1-5 8-6 5 1 6 7 2 1h9l3-9zm-9 32-8 5-4 6-1 3v9l4 8 7 6 3 1h10l9-6 4-6 1-3v-8l-4-8-6-5-5-2z" fill="#FCCB4A"/>
<path transform="translate(653,632)" d="m0 0h4l1 19 1 71 1 30-1 1h-12l-7-1 1-2 11-2-6-25-8-37-5-27-1-1-16 64-6 23v7l-5 1-13-1 3-2 6-3 1-19 1-42 3-31 2-21 1-1 10 1 7 1h12z" fill="#0B196C"/>
<path transform="translate(354,703)" d="m0 0h65l2 1 2 11 2 24 1 1v7l-2 5-9 1h-78l-3-1-1-6 2-1 4 1-1-6 4-10 9-26z" fill="#041166"/>
<path transform="translate(449,551)" d="m0 0 10 1 16 8 2 2-1 5-4 6-3 7v4l5 3-1 6h-8l1 35-1 2h-2v2l-13 4h-11l-17-3-4-2v-56l2-9 6-9 8-5h6 3 5z" fill="#FDFDFD"/>
<path transform="translate(516,124)" d="m0 0 7 1 1 4-5 9 1 13-2 3-5 2h-4v3l8-4 7 1 5 5 3 8v6l-2 2 4 2 2 10 1 9v32l-4-4-33-1-1-1v-12l-3 1-1-4 5-5-5 1 1-5 2-2-4-1-2-12-1-4-18 6h-11l-5-3-5-6-8-24 1-3h9l2 2 3 10-1 4-2 1 2 5 2 3 7 1 11-4 5-5 8-5 10-5 6-4v-3l-5-3-3-7 3-9 5-4z" fill="#071467"/>
<path transform="translate(235,473)" d="m0 0 4 1 7 34 4 36 3 32v11l8 2v1l-13 2-2 1-2-13-12-55-3-9-10-19-2-2-8 29-12 36-8 22 1 3 9 5v3l-8-2-3-2-8-2-1-2 4-13 10-48 1-5-1-20-1-7v-17h36z" fill="#1B5ECE"/>
<path transform="translate(252,717)" d="m0 0 12 5 11 1 2-1 3 2 2 12v3l-2-1v14l-1 1h-115l-3-1v-29l19-1 7-1h5l1 2 57-1-2-2 3-1z" fill="#185DCE"/>
<path transform="translate(325,537)" d="m0 0h14l4 3 1 7-3 1v4l8 2 6 9 7 16 5 7 9-1 8-4 1 6-3 4 4 2v6l-2 2-7 1-7 3-17 3-3 2-2 6-7 1h-14l-11-2-3-3-2-31v-14l4-8 7-6 6-2-2-5-2-2v-6z" fill="#FBC94D"/>
<path transform="translate(485,434)" d="m0 0h64l3 1 1 2v54l-2-2-5-18-4-6-4-2-6 1-4 7-5 10-4 3-5-1-9-10h-8l-5 4-4 9-4 10h-1v-60z" fill="#03146A"/>
<path transform="translate(613,591)" d="m0 0 7 2 6 1 4 3 1-3 25-1 2 36v19h-1v-16l-12 3-7 1h-12l-17-3v-22l-15 2-2 2h-20v-5l5-2 12-3h3l1-3 1 4 11-3 6-7-1-4z" fill="#E99998"/>
<path transform="translate(535,462)" d="m0 0 6 1 5 6 3 9 4 16v7l-1 2-3 1h-64l-2-1 2-12 5-12 5-6 2-1h8l9 10 5 1 5-5 5-11 3-4z" fill="#FBFBFD"/>
<path transform="translate(183,615)" d="m0 0 12 2 19 9 6 2h7l2 4 26 12 12 5-2 3-17 7-19 9-1 2 9 3 28 12v3l-16 8-21 9 4 3 20 9-1 3-7-1-21-10-6 1-18 8-5 3-9 1v-2l27-13h2v-2l-6-2-31-14v-4l10-4 21-9 6-2v-2l-6-2-32-15 1-3 13-5 20-9 4-4-9-3-22-10zm37 19-26 11-8 4 3 3 16 8 14 6 7-1 27-12 4-3-16-8-18-8zm-3 38-27 12-3 1 1 4 17 8 13 6h7l28-13 3-2-1-3-17-7-13-6z" fill="#454C90"/>
<path transform="translate(410,452)" d="m0 0h42l4 1 1 21v13h-45l-2-1-1-24z" fill="#FEFEFE"/>
<path transform="translate(427,352)" d="m0 0h12l8 4 5 5 3 9v10l-2 7-8 7-9 3h-9l-8-6-6-7-2-9 2-9 4-7h2l1-3z" fill="#FEFEFE"/>
<path transform="translate(354,631)" d="m0 0 47 1v33l-1 1h-38l-8-31z" fill="#80A6FB"/>
<path transform="translate(513,352)" d="m0 0h10l7 6 6 12 1 3v20l-4 4h-31l-2-2-1-5v-13l2-10 6-10z" fill="#EFF3FD"/>
<path transform="translate(385,592)" d="m0 0h16l1 3v28l-1 5h-49l-3-8-1-6 2-5 3-2 20-4 4-2 7-1 1-1z" fill="#80A6FB"/>
<path transform="translate(459,430)" d="m0 0 7 1 2 4 1 7v52l-2 10-28 1h-25l-13-1-3-2v-60l3-2v-5l5-3h2v2h4v-2l13-1h29v3l3-1zm-44 13-15 1v58l3 1 31 1 30-1 3-3 1-18v-20l-1-10h-9l-1 22-1-21-4-1h-42l-1 10v-12h46l6-3-1-3-12-1z" fill="#EA9C94"/>
<path transform="translate(361,670)" d="m0 0h36l4 1v30l-48 1 1-9z" fill="#80A6FB"/>
<path transform="translate(353,447)" d="m0 0 8 1 1 3v6h7l2 2v6l-3 3h-2l3 3 2 1v7l-1 1-8 1-1 1-1 8-1 1h-5l-3-3v-2h-2l-1 3-4 2-5-1-1-1-1-7-9-2-1-7 4-2-1-4-3-3 1-5 3-2h6v-8l1-1h8l3 3h2z" fill="#F0F4FD"/>
<path transform="translate(352,553)" d="m0 0h18l31 1 1 15v15l-1 4h-15l1-10-1-1-7 1-3 5v3l-9 1-6-8-5-11-7-14z" fill="#80A6FB"/>
<path transform="translate(439,704)" d="m0 0h21l2 12 2 20 3 11-2 5-10 1-11-1-11-4-1-7 2-5 4-31z" fill="#041064"/>
<path transform="translate(162,593)" d="m0 0 70 1-1 3-1 15h-44v2l4 2h-9l-7-3-12-1-1-4v-13z" fill="#165CCD"/>
<path transform="translate(254,364)" d="m0 0 4 1 6 9 3 9v6l-5 1h-18l-1 4 4 10-1 5-1 1-3 16-4 8h-3l-1-23-1-3-6-3-4-6 2-5h2v-2h2l2-2v2l6-1 3-9 7-8 4-5zm-21 31-1 4 4 12h4l-3-10-3-6z" fill="#FBCD65"/>
<path transform="translate(325,511)" d="m0 0 3 1v12h16l4 4 1 7-1 4v11h5l-6 3h-6l-1-5 3-2v-6l-4-2h-14v6l3 3v4l-9 5-5 6-3 9-3-1-1-9 2-6 2-16 3-7 6-5h2l2-15z" fill="#041972"/>
<path transform="translate(654,615)" d="m0 0 3 1 1 13v19h-1v-16l-12 3-7 1h-12l-17-3 1-17z" fill="#F97761"/>
<path transform="translate(572,563)" d="m0 0 11 3 9 3 1 4-1 32-15 4h-5z" fill="#03146A"/>
<path transform="translate(444,657)" d="m0 0 3 1 11 22 2 12v10h-21l-1-1 1-12 4-31z" fill="#80A6FB"/>
<path transform="translate(638,373)" d="m0 0h65v9l-3 1h-62z" fill="#135ACD"/>
<path transform="translate(211,633)" d="m0 0 2 1v2l2 1-28 12 4 3 16 8 12 5 5 1-2 5-32 14h-3l1 3 17 8 5 2v2h-2v2l-9-3-22-10v-4l10-4 21-9 6-2v-2l-6-2-32-15 1-3 13-5 20-9z" fill="#394891"/>
<path transform="translate(237,351)" d="m0 0h1v26l-4 12-4 4-3-1v2h-2l-1 6 4 6-7-1v-3h-2l-1-5h-2l-3-3h-4v-9l2-3-1-6-2 5-5-1v-7l4-7 2-2h13l6 3-1 6-4 10-2 10 6-3 4-6 2-6 2-12 1-14zm-21 24-2 5-3 7v3h2v2l3-1 2-4 2-5v-5z" fill="#FEFEFE"/>
<path transform="translate(403,588)" d="m0 0h1l1 6 1 25v82l13 1v1h-55l1-2h36v-34l1-1v-35l-48-1v-1l47-1v-37l-9-1v-1z" fill="#1259CB"/>
<path transform="translate(445,151)" d="m0 0h9l2 2 3 10-1 4-2 1 2 5 2 3 7 1 11-4 3-4 2 1-1 4 7 7-10 4-6 2h-11l-5-3-5-6-8-24z" fill="#ECA49B"/>
<path transform="translate(353,354)" d="m0 0 7 1 5 4 1 3-14 23-7 10-4 1-8-6v-5l5-7h8l5-7-1-5-2-5z" fill="#F1F3FC"/>
<path transform="translate(516,124)" d="m0 0 7 1 1 4-5 9 1 13-2 3-5 2h-4l-1 2-7 1 7-7-6-4-3-7 3-9 5-4z" fill="#E3A394"/>
<path transform="translate(619,516)" d="m0 0 5 1 12 5 3 5-1 6-4 15h6l-4 1-2 7-2 1h-6l-4-3-3-1 7-1 1 2 6 1-1-4-4 1-2-2v-7l-2 2-2-5v-9l-3-4-1-8z" fill="#FBCF6B"/>
<path transform="translate(639,396)" d="m0 0h51l1 1v7l-1 1h-51l-2-6z" fill="#FAEFEF"/>
<path transform="translate(639,351)" d="m0 0h50l2 2v6l-1 1h-52v-8z" fill="#F7E7E8"/>
<path transform="translate(254,364)" d="m0 0 4 1 6 9 3 9v6l-5 1h-19v-2l-5 1 3-9 9-9z" fill="#FBC54F"/>
<path transform="translate(439,522)" d="m0 0 10 1 7 3-1 7-14-1 4 4-1 5 4 2 1-3 2 2-1 9-3 2-4-1-1 2-6-2-2-7-1-8-2-1v-6l4-6z" fill="#E7989B"/>
<path transform="translate(632,418)" d="m0 0 30 1 2 2v6l-1 1h-25v10l-6 1-3-2 1-8-7-2v-7l1-1z" fill="#FA745E"/>
<path transform="translate(712,328)" d="m0 0 5 1 1 5 1 17h-5v2l5-1 1 5-20-1-3-2 1-9 7-1-1-8h-4v4h-3l1-6h9l2 3 2 6z" fill="#1959C7"/>
<path transform="translate(623,329)" d="m0 0h40l1 8-1 1h-39l-1-1z" fill="#FB745E"/>
<path transform="translate(210,699)" d="m0 0 6 2 2 1h7l2-1h6v2l-5 2 4 3 20 9-1 3-7-1-21-10-6 1-18 8-5 3-9 1v-2l27-13h2v-2l-6-2v-3z" fill="#253482"/>
<path transform="translate(477,565)" d="m0 0 5 1 1 2 2 20-1 2h-2l-1 3-8-1v-5l-5-3 1-6 5-10z" fill="#E3989E"/>
<path transform="translate(521,544)" d="m0 0 3 1v7l-6 26-5 8-1 5-5 2h-15v-1h5v-2l10-4h4l2-16 6-24z" fill="#DCE6FC"/>
<path transform="translate(228,670)" d="m0 0 9 3 28 12v3l-16 8-13 6-7-1 4-3 20-9 3-1-1-2-17-7-11-5z" fill="#3C458C"/>
<path transform="translate(325,537)" d="m0 0h14l4 3 1 7-3 1v4l6 1-3 2-13 1-1-4-3-1-1-5-2-2v-6z" fill="#E89799"/>
<path transform="translate(398,442)" d="m0 0 6 1-4 1v58l34 1 32-1 2-39h1v31l-2 10-28 1h-25l-13-1-3-2z" fill="#E9989A"/>
<path transform="translate(339,670)" d="m0 0 4 1-2 22-3 9-5-1-2-1-2-9 1-6 4-2 1-2 1-9z" fill="#80A6FB"/>
<path transform="translate(504,185)" d="m0 0 6 2 5 3-2 5-10 11-6 4-2 2 1-4 4-4-5 1 1-5 2-2-4-1v-6l2 4z" fill="#F9C666"/>
<path transform="translate(209,364)" d="m0 0h13l6 3-1 6-3 3-6-1-7-3-3 9-5-1v-7l4-7z" fill="#24317E"/>
<path transform="translate(501,445)" d="m0 0h7l5 4 1 7-2 4-3 2h-8l-4-4-1-7 3-5z" fill="#FBC34F"/>
<path transform="translate(541,520)" d="m0 0 1 2 5 1 14 15 8 7 3 3-5-1-7-6-4 1-1 2-1-1-2 2-7-11-5-9z" fill="#E8979A"/>
<path transform="translate(194,678)" d="m0 0 4 1 1 2-9 4h-3l1 3 17 8 5 2v2h-2v2l-9-3-22-10v-4l10-4z" fill="#455093"/>
<path transform="translate(592,602)" d="m0 0 2 4 8-1v2l-2 1v2l3 2-9 1-2 2h-20v-5l5-2 12-3h3z" fill="#FA755E"/>
<path transform="translate(439,522)" d="m0 0 10 1 7 3-1 7-11-2h-6l-3 5h-4v-6l4-6z" fill="#051E78"/>
<path transform="translate(516,124)" d="m0 0 7 1 1 4-5 8-12-1h-3l-2 5-2-1 1-6 4-5z" fill="#1F358A"/>
<path transform="translate(346,461)" d="m0 0 8 1 3 7-1 5-7 3-5-2-3-5 2-6z" fill="#135ACD"/>
<path transform="translate(615,308)" d="m0 0h104l1 1v10h-1l-1-7-1-1-66-1-36-1z" fill="#2A61C7"/>
<path transform="translate(337,339)" d="m0 0h42v1h-41v13l-1 1h-8l-1-1v-13z" fill="#135ACD"/>
<path transform="translate(232,399)" d="m0 0 2 3 3 9h5l2 3-1 9-4 10-3 2-1-1-1-29h-2z" fill="#F1B49D"/>
<path transform="translate(619,516)" d="m0 0 5 1 9 5 4 4v5l-2 1-7-3-8-1-2-5z" fill="#102378"/>
<path transform="translate(504,555)" d="m0 0 4 1-1 4-3 2v4l4 2-1 4-5-1-9-4-1-4 4-4z" fill="#DCE6FD"/>
<path transform="translate(629,520)" d="m0 0 7 2 3 5-1 6-5 3-5 2-2-4v9l-2 2-2-5v-9l-1-3h7l8 3-1-7-6-3z" fill="#F7CD87"/>
<path transform="translate(527,556)" d="m0 0h7l2 1v2l5 1 2 4-4 4-6 3h-5v-4l5-3v-3l-6-1z" fill="#E5ECFC"/>
<path transform="translate(628,423)" d="m0 0 9 1 2 4-1 10-6 1-3-2 1-8-4-3h3z" fill="#EA9995"/>
<path transform="translate(183,615)" d="m0 0 12 2 19 9 3 2-5 2-20-9-9-4z" fill="#384B96"/>
<path transform="translate(705,343)" d="m0 0h3v13h-8l-3-2 1-9z" fill="#CF9BB2"/>
<path transform="translate(713,328)" d="m0 0 4 1 1 5 1 17h-5v2l5-1v3h-7z" fill="#A5A3DA"/>
<path transform="translate(402,628)" d="m0 0h2v49h-1l-2-10 1-1v-35l-48-1v-1z" fill="#020E62"/>
<path transform="translate(188,575)" d="m0 0 2 1-1 8 10 6v3l-8-2-3-2-8-2-1-2 4-6 2 2z" fill="#2C3D8A"/>
<path transform="translate(421,450)" d="m0 0h32l4 2v22h-1v-21l-46-1v10h-1v-11z" fill="#FDCD49"/>
<path transform="translate(216,628)" d="m0 0h11l2 4 4 2v2h-8l-5-1-7 1-1-3 2-4z" fill="#22419C"/>
<path transform="translate(381,576)" d="m0 0h5l2 2v6l-2 4h3v2l-7 2v-3l2-3-1-4-4 3h-4l2-6z" fill="#082B8C"/>
<path transform="translate(401,421)" d="m0 0h8l3 3v10h-4l-1-5h-6l-1-1v-6z" fill="#FEFEFE"/>
<path transform="translate(230,390)" d="m0 0 2 2v13h2l-1 3-6-3-4-6 2-5h2v-2h2z" fill="#F8C05C"/>
<path transform="translate(515,358)" d="m0 0h6l5 5v3h-16l2-6z" fill="#135ACD"/>
<path transform="translate(228,670)" d="m0 0 9 3 13 6-3 3-9-3-11-5z" fill="#4F60AA"/>
<path transform="translate(235,660)" d="m0 0h5l-1 3-10 5-2 5-8-1 3-1 2-6z" fill="#192F84"/>
<path transform="translate(206,710)" d="m0 0 4 2-4 3-12 6-9 1v-2z" fill="#2F3E8E"/>
<path transform="translate(514,375)" d="m0 0h6l3 2-3 11h-4l-3-9z" fill="#135ACD"/>
<path transform="translate(246,618)" d="m0 0h3l1 3-21 9-3-3z" fill="#7685BC"/>
<path transform="translate(506,587)" d="m0 0 7 1-2 4-4 1h-15v-1h5v-2z" fill="#F0F4FD"/>
<path transform="translate(444,313)" d="m0 0h13l-1 6-10-1-5-2v-2z" fill="#104EBD"/>
<path transform="translate(446,152)" d="m0 0h9l1 1v11l-4-1-1-5-2-2h-3z" fill="#0D42AB"/>
<path transform="translate(531,685)" d="m0 0 5 1 1 7-3 2 2 2-5 1-1-1v-11z" fill="#FCFCFD"/>
<path transform="translate(441,531)" d="m0 0 4 1 6 3 1-2v6l-4 4-4-1-1-2 1-4-2-2-3-1z" fill="#FEFEFE"/>
<path transform="translate(465,313)" d="m0 0h11v5l-5 1-10-1 2-4z" fill="#0F4AB6"/>
<path transform="translate(629,520)" d="m0 0 7 2 3 5-1 6-5 3-5 2-1-7h9l-1-7-6-3z" fill="#D4B485"/>
<path transform="translate(250,568)" d="m0 0h1l1 17 9 4v1l-13 2 1-7z" fill="#08186D"/>
<path transform="translate(232,399)" d="m0 0 2 3 3 9v19l2 3-3 2-1-1-1-29h-2z" fill="#FEFEFE"/>
<path transform="translate(506,145)" d="m0 0 3 1 1 2 4 2v2l-3 1-1 2 3 1h-4l-1 2-7 1 7-7-5-3z" fill="#F0E9E3"/>
<path transform="translate(237,351)" d="m0 0h1v26l-3 3v-14l1-14z" fill="#FDD567"/>
<path transform="translate(473,222)" d="m0 0h11l10 1v1l-36 2v-1z" fill="#D9E1F9"/>
<path transform="translate(244,693)" d="m0 0 3 4-11 5-7-1 4-3z" fill="#727EB9"/>
<path transform="translate(194,678)" d="m0 0 4 1 1 2-9 4h-3l-1 2-3-2v-2z" fill="#878AB8"/>
<path transform="translate(426,421)" d="m0 0h5l1 8h-7l-1-1v-6z" fill="#FEFEFE"/>
<path transform="translate(406,432)" d="m0 0h2v2h14v8h-3l-1-7-5 2-9-1z" fill="#FDCD49"/>
<path transform="translate(445,151)" d="m0 0h9v1h-8v4l4-1 2 3v5h-2v2h-2l-4-11z" fill="#A1B4ED"/>
<path transform="translate(476,213)" d="m0 0 6 1-5 4-11 3v-3z" fill="#FCF4F4"/>
<path transform="translate(494,191)" d="m0 0 2 4 4-1 3-1-2 8v2l-6 2 1-5 2-2-4-1z" fill="#F1F3FB"/>
<path transform="translate(461,432)" d="m0 0h6l1 17h-3v-6l-2-2v-8z" fill="#FCCA4C"/>
<path transform="translate(453,422)" d="m0 0h5l1 9-3 4-2-1-1-6z" fill="#FEFEFE"/>
<path transform="translate(204,622)" d="m0 0 13 5-3 3-9-3-5-2 4-1z" fill="#5E6FAF"/>
<path transform="translate(211,633)" d="m0 0 2 1v2l2 1-13 5v-2l-3-1z" fill="#5A67AB"/>
<path transform="translate(698,334)" d="m0 0h9l1 7h-3l-1-5h-4v4h-3z" fill="#DF9FA4"/>
<path transform="translate(335,740)" d="m0 0 4 2 1 4-3 1h-3v5l-2-4-3-3z" fill="#A5BFFA"/>
<path transform="translate(233,635)" d="m0 0 9 3 2 2-5 2-11-5v-1z" fill="#4E68B5"/>
<path transform="translate(224,628)" d="m0 0 4 1 1 3 4 2v2h-6l-4-3-1-4z" fill="#08186D"/>
<path transform="translate(340,548)" d="m0 0h8v2h5l-6 3h-6z" fill="#031369"/>
<path transform="translate(414,421)" d="m0 0h6l1 8-5-1-2-4z" fill="#FEFEFE"/>
<path transform="translate(211,371)" d="m0 0 7 3-2 1-1 5-4-1-2-5z" fill="#F2C16B"/>
<path transform="translate(347,536)" d="m0 0 1 3-1 9h-6l2-2v-7l3-1z" fill="#135ACD"/>
<path transform="translate(718,323)" d="m0 0h1v26h-1l-1-20-4-2h4z" fill="#135ACD"/>
<path transform="translate(204,674)" d="m0 0 7 1-3 2-6 3-5-1v-2z" fill="#5364A8"/>
<path transform="translate(189,585)" d="m0 0 10 5v3l-8-2-2-1z" fill="#3D4890"/>
<path transform="translate(389,588)" d="m0 0h10l-4 2 6 1v1h-18l4-2h2z" fill="#135ACD"/>
<path transform="translate(212,380)" d="m0 0 2 1-3 9h2l1 4h-5v-9z" fill="#FEFEFE"/>
<path transform="translate(256,371)" d="m0 0 1 4 4-2 1 3h-2l-1 5-4-1v-7z" fill="#A25A70"/>
<path transform="translate(243,714)" d="m0 0 9 3-1 3-7-1-3-3h2z" fill="#42549E"/>
<path transform="translate(239,676)" d="m0 0 7 1 4 3-5 2-6-3z" fill="#566BB2"/>
<path transform="translate(197,640)" d="m0 0h5l-1 3-9 3-2-3z" fill="#384A97"/>
<path transform="translate(325,511)" d="m0 0h2v10h-2l-1 5-2 1 2-15z" fill="#0A3497"/>
<path transform="translate(387,578)" d="m0 0h1v6l-2 4h3v2l-7 2v-3l2-3 1-3h1z" fill="#0C3DA4"/>
<path transform="translate(218,375)" d="m0 0h7l-3 11-2 1-1-10z" fill="#BDABB1"/>
<path transform="translate(465,269)" d="m0 0h3l-1 11-3-1v-9z" fill="#020E62"/>
<path transform="translate(637,430)" d="m0 0h1v8l-6 1-2-1v-4l6 2v-5z" fill="#F0BD95"/>
<path transform="translate(211,393)" d="m0 0h4l1 4h2l1 5-11-7z" fill="#E9989A"/>
<path transform="translate(455,153)" d="m0 0h1v11l-4-1-1-5 3-2z" fill="#185BCB"/>
<path transform="translate(244,656)" d="m0 0h5l-1 3-8 3v-2l-3-1z" fill="#2A3D8E"/>
<path transform="translate(230,597)" d="m0 0 3 1 2-1v8h-5z" fill="#98A5E7"/>
<path transform="translate(233,624)" d="m0 0 5 1-1 2-9 3-2-3z" fill="#4C5B9F"/>
<path transform="translate(436,421)" d="m0 0h7v2l-5 2v4h-2l-1-7z" fill="#FEFEFE"/>
<path transform="translate(234,370)" d="m0 0 2 1v8l1 2-3 3h-1z" fill="#FDF6E0"/>
<path transform="translate(206,710)" d="m0 0 4 2-4 3-4 1-2-2z" fill="#75709B"/>
<path transform="translate(573,609)" d="m0 0h5l-1 2 1 3-1 1h-5v-5z" fill="#EDA289"/>
<path transform="translate(242,640)" d="m0 0 7 1 1 3h-7l-3-3z" fill="#051D78"/>
<path transform="translate(599,605)" d="m0 0h3v2l-2 1v2l3 2h-7v-4l-2-2z" fill="#FDCD49"/>
<path transform="translate(240,388)" d="m0 0h3v4l-6 3v-6z" fill="#1A3C99"/>
<path transform="translate(592,602)" d="m0 0h1v5l4 1-1 4-4-1-1-6z" fill="#E9989A"/>
<path transform="translate(703,347)" d="m0 0h3l-1 5-5 1 1-5z" fill="#0F4CB9"/>
<path transform="translate(430,260)" d="m0 0h3v4l3 1-1 1h-6v-5z" fill="#80A6FB"/>
<path transform="translate(248,680)" d="m0 0 7 1-2 4-6-2z" fill="#16297D"/>
<path transform="translate(403,588)" d="m0 0h1v7l-2-3-10-2v-1z" fill="#020E62"/>
<path transform="translate(635,533)" d="m0 0 2 1-1 6-7-2 5-4z" fill="#FDFAF0"/>
<path transform="translate(406,432)" d="m0 0h2v2h6l-1 3-9-1z" fill="#F8C15B"/>
<path transform="translate(633,429)" d="m0 0 3 1v6l-4-1-1-3z" fill="#0B389D"/>
<path transform="translate(235,712)" d="m0 0 8 1v3l-3 1-5-3z" fill="#051C76"/>
<path transform="translate(197,620)" d="m0 0 7 1v3h-6l-2-1z" fill="#06227E"/>
<path transform="translate(237,412)" d="m0 0 5 1-1 4-4 2-1-5z" fill="#FCCB50"/>
<path transform="translate(212,387)" d="m0 0h2v2h-2z" fill="#FEFEFE"/>
<path transform="translate(215,384)" d="m0 0" fill="#FEFEFE"/>
<path transform="translate(494,205)" d="m0 0" fill="#FEFEFE"/>
<path transform="translate(532,175)" d="m0 0" fill="#FEFEFE"/>
</svg>
