<?xml version="1.0" encoding="UTF-8"?>
<svg version="1.1" viewBox="0 0 1892 1260" width="473" height="315" xmlns="http://www.w3.org/2000/svg">
<path transform="translate(376,180)" d="m0 0h45l6 1h55l63-1h200l5 2v68l12 1 56 1 1 1-1 8-1 3-8 4-1 12 1 22 2 23v9l-1 4 5 1 2 6-2 5-9 4-1 14v88l-1 2-12 1h-56l5 5 6 7 3 9v27l-3 17-3 5-4 1v6l75 1 2 1v77l-2 6-3 1-19 2-2 14-3 8h9l28-5 60-12 72-14 100-20 52-10 7-1h10l54 12 88 21 61 14 38 9 89 20 41 10 54 12 10 2v2l-30 9-26 7-45 14-29 9-2 1v176l20 2 21 4 15 2 4 2-1 2-46 8-27 6-23 5h-5v-2h-2l-1 15v25l8 5 5 8 3 9v18l-2 4 1 4 13 17 11 13 7 11-1 4-10 7-15 5-12 2h-12l-25-3-15-4-3-2 2-6 11-20 9-15 4-9-2-14 1-15 3-9-12-16-12-14-7-8-5-3v6l-55 12-62 14-65 14-48 10-11 2h-7l-26-6-70-19-61-17-109-31-44-11-3-1v-2l22-7 8-2 14-2 2-8v-48l-1-2-109-1-300-3-58-1-11-1-1-1v-15l-5-6v-6l7-6 2-5 1-7 1-66-8-3-3-4 1-4h2v-3l-9-1-3-2v-74l1-7 5-1h39l26 1h2l1-93-2 1-13 1h-39l-3-1 2-6 4-9 2-12v-35l-6-2-1-6 4-2 40-1v-109l-32-1-8-4-6-5-4-8-2-8v-48l3-13 4-6 5-4 12-5v-49l1-17 5-3zm277 459-29 1-1 7-1 26-1 8 21-3 52-10 63-13 8-3-1-4-6-7-2-1-15-1zm716 301-12 6-5 1 2 4 13 17 3 4 5-1v-19l-1-12z" fill="#648BFB"/>
<path transform="translate(1116,584)" d="m0 0h10l54 12 88 21 61 14 38 9 89 20 41 10 54 12 10 2v2l-30 9-26 7-45 14-29 9-2 1v176l20 2 21 4 15 2 4 2-1 2-46 8-27 6-23 5h-5v-2h-2l-1 15v25l8 5 5 8 3 9v18l-2 4 1 4 13 17 11 13 7 11-1 4-10 7-15 5-12 2h-12l-25-3-15-4-3-2 2-6 11-20 9-15 4-9-2-14 1-15 3-9-12-16-12-14-7-8-5-3v6l-55 12-62 14-65 14-48 10-11 2h-7l-26-6-70-19-61-17-109-31-44-11-3-1v-2l22-7 8-2 14-2 2-8v-48l-1-23v-80h-2v-2l-11-2-31-8-28-7-15-2-42-11-28-9-35-9-20-5 1-2 20-4 36-6 75-15 27-6 16-4 10-2 24-3 75-15 72-14 100-20 52-10zm253 356-12 6-5 1 2 4 13 17 3 4 5-1v-19l-1-12z" fill="#24282B"/>
<path transform="translate(376,180)" d="m0 0h45l6 1h55l63-1h200l5 2v68l12 1 56 1 1 1-1 8-1 3-8 4-1 12 1 22 2 23v9l-1 4 5 1 2 6-2 5-9 4-1 14v88l-1 2-12 1h-56v2l-69 1h-246l-38-1-1-1v-108l-32-1-8-4-6-5-4-8-2-8v-48l3-13 4-6 5-4 12-5v-49l1-17 5-3z" fill="#F58020"/>
<path transform="translate(1119,654)" d="m0 0h10l16 4 8 4 2 3 2 6 6 4 11 3 9 3 26 7 10 3 7 2 26 8 21 6 29 8 35 10 30 8 21 6 10-2 28-9h1v42l-2-2h-9l-19 7-11 4-1 1-1 8-1 34v36l1 46 9 2v2l-10 3 1 60 8 5 5 8 3 9v18l-2 4 1 4 13 17 11 13 7 11-1 4-10 7-15 5-12 2h-12l-25-3-15-4-3-2 2-6 11-20 9-15 4-9-2-14 1-15 3-9-12-16-12-14-7-8-8-11-5-6-7 1-32 7-39 9-46 10-43 10-23 5h-8l-1-1 1-15v-78l-1-12-12-3-28-8-41-12-63-19-15-4-43-13-35-10-26-8-26-7-8-2h-9l-1-1v-32h3l18 4 17 4 38 10 21 5 103 26 15 4 65 16 18 5 9 1 9-2 25-8 29-9 15-4 10-3 1-3-12-17-12-15-13-17-10-12-10-13-9-10-9-12-6-6-14-2-13-5-6-5-1-9 5-5 10-5zm250 286-12 6-5 1 2 4 13 17 3 4 5-1v-19l-1-12z" fill="#0E0E10"/>
<path transform="translate(1110,683)" d="m0 0 11 2 9 1 9 9 9 12 9 10 13 17 13 16 10 13 13 17 6 9-2 4-20 6-18 5-29 9-15 5-8 1-15-3-30-8-52-13-21-5-162-41-17-4-7-2v32h9l8 2 36 10 78 23 22 7 19 5 60 18 35 10 24 7 13 4 2 1 2 12v82l-1 11h8l63-14 35-8 44-10 36-8 8-2 5 1 10 12v2h-3v6l-55 12-62 14-65 14-48 10-11 2h-7l-26-6-70-19-61-17-109-31-44-11-3-1v-2l22-7 8-2 14-2 2-8v-48l-1-23 1-81h7l8 2 9 2 16 4 17 4 23 6 14 4 11 3 9 2 84 21 25 7 16 4 23 6 24 6 14 4h6l1-33v-85l-1-8 1-2-9-2z" fill="#24282A"/>
<path transform="translate(730,720)" d="m0 0 11 1 32 8 38 10v2h2l1 2v99h-21l-389-4-58-1-11-1-1-1v-15l-5-6v-6l7-6 2-5 1-7 1-61 1-5 104 1h142l138-2 5-1z" fill="#EAEAEB"/>
<path transform="translate(1069,668)" d="m0 0h25l4 9 6 4 6 1v2l11 3 1 12v85l-1 31-1 1h-6l-14-4-32-8-25-7-17-4-21-6-13-3-16-4-11-3-14-3-23-6-15-4-17-4-17-5-28-7-13-3-15-3-9-2-1 3v-2h-2v-2l-11-2-31-8-28-7-15-2-42-11-28-9-35-9-20-5 1-2 6-1v2h12l7-1 2-1 9 1 6 1 35-1 2-1 16-1 30-1 32-2 31-1 18-1 48-1 79-3 56-2 47-2z" fill="#33393B"/>
<path transform="translate(393,622)" d="m0 0 2 1 32 1 60 1h31l113-1 40-1h71l43 1 7 1-1 13-3 9-12 3-11 2-4-7-5-4-15-1h-117l-1 33-2 8-19 4 34 9 30 8 18 6 46 12 2 2-7 2-138 2h-152l-91-1-11-3-4-5 1-4h2v-3l-9-1-3-2v-74l1-7 5-1h39l26 1h2z" fill="#A671E9"/>
<path transform="translate(360,265)" d="m0 0h452l-3 3-1 12 1 22 2 23v9l-1 4h-438l-15-1-9-4-3-4-1-4v-46l3-7 8-6z" fill="#EBEBEC"/>
<path transform="translate(545,180)" d="m0 0h200l5 2v69l-146 1h-148l-30-1v-68l1-2h55z" fill="#FDC746"/>
<path transform="translate(343,471)" d="m0 0 380 1 9 2 5 3 2 10 1 8-2 23-2 4-10 4-152 2h-55l-45-1-133-1 3-12 1-7v-35z" fill="#EAEAEB"/>
<path transform="translate(376,180)" d="m0 0h45l6 2-1 69h336l56 1 1 1-1 8-1 3-2 1-207 1h-248l-7 2-6 5-2 6v46l3 7 9 4 15 1h417l24 1 3 2 1 7-4 4-5 2-30 1-132-1h-264l-7-1-25-1-8-4-6-5-4-8-2-8v-48l3-13 4-6 5-4 12-5v-49l1-17 5-3z" fill="#DF3151"/>
<path transform="translate(1238,824)" d="m0 0 5 2 4 4 3 4v2h2l12 15v2h2l2 5h2l4 6v2h2l10 14 12 14 3 4v2l3 1 6 9 7 8-1 6 4 1-16 4-48 11-59 13-43 10-23 5h-8l-1-1 1-15v-78l-1-12-4-2 39-12 17-5 20-6 39-12z" fill="#19191B"/>
<path transform="translate(813,790)" d="m0 0h1v52h-21l-389-4-58-1-11-1-1-1v-15l-5-6v-6l7-6 18-1h441l10-3 7-6z" fill="#F58020"/>
<path transform="translate(813,898)" d="m0 0 1 2 20 4 160 36 70 16 34 8 19 4h10l62-14 120-27 8-2 5 1 10 12v2h-3v6l-55 12-62 14-65 14-48 10-11 2h-7l-26-6-70-19-61-17-109-31-44-11-3-1v-2l22-7 8-2 14-2z" fill="#C6C4C4"/>
<path transform="translate(1370,782)" d="m0 0 4 2 1 8v119 2l1 1 1 33-1 25-7 2-1-4 6 1v-31l-6 2-11 5-6 1-8-11-1-3-3-1-1-4-3-1-4-5-1-3-8-7-8-10-9-11-8-9-12-16-1-3h-2l-1-3-5-5-8-10v-2l-3-1-7-10-5-5-2-3 1-5 18-7 36-11 56-18z" fill="#19191B"/>
<path transform="translate(1145,683)" d="m0 0h8l30 8 154 44 13 4 9 4-2 5-8 4-42 12-15 5-21 6-19 6-21 6h-6l-5-5-11-14-14-17-7-9-11-14-10-12-8-11-10-13-4-6z" fill="#24282A"/>
<path transform="translate(334,819)" d="m0 0 23 1 161 1h59l191-1 45-1 1 2v21h-21l-389-4-58-1-11-1-1-1z" fill="#C6C4C4"/>
<path transform="translate(382,461)" d="m0 0h355l8 7 4 8 1 4v27l-3 17-3 5-6 1-1 5-343 1v-3l-2 1-13 1h-39l-3-1 2-6 1-2h134l45 1h55l152-2 10-4 2-10 1-18-2-14-3-3-5-2-6-1-351-1-31-1-2-1-1-6 4-2z" fill="#4C64B2"/>
<path transform="translate(1416,767)" d="m0 0h9l2 3 1 88 1 44 20 2 21 4 15 2 4 2-1 2-46 8-27 6-23 5h-5v-2h-2l-1 15h-1v-35l10-3v-2l-7-1-2-1-1-6-1-44v-42l1-24 1-8 6-4 21-7z" fill="#19191B"/>
<path transform="translate(660,704)" d="m0 0h7l25 6 38 10 2 2-7 2-138 2h-152l-91-1-11-3-4-5 1-4h2l-1-4 4-2 18-1h277z" fill="#DE8453"/>
<path transform="translate(730,720)" d="m0 0 11 1 32 8 38 10v2h2l1 2v47l-7 8-7 3-5 1h-458v-2l8-3h386l55 1 18-2 5-3 2-5 1-46-9-1-18-6-11-1h-63l-74-1-2-1h-285l-9-1-1-2 1-5 104 1h142l138-2 5-1z" fill="#C7C4C4"/>
<path transform="translate(360,265)" d="m0 0h452l-3 3-2 5h-151l-66 1-70-1-139 1h-17l-10 2-6 3-2 13v27l1 9 3 5-4-2-2-6v-46l3-7 8-6z" fill="#C7C4C5"/>
<path transform="translate(813,790)" d="m0 0h1v13l-1 16-3 1-42 1-215 1h-55l-141-1-21-1-5-3-2-3v-6l7-6 18-1h441l10-3 7-6zm-4 10-9 3-8 1-453 1v2h-3v6l7 3 6 1h70l311 1h64l17-1 1-1v-16z" fill="#DE8753"/>
<path transform="translate(343,471)" d="m0 0 380 1 9 2 5 3 1 2v7l-2-4-4-2-6-1-95 1-60-1-14 1h-32l-40-1h-131l-7-2-2-4z" fill="#C6C4C4"/>
<path transform="translate(376,180)" d="m0 0h45v1h-28v65l-2 3h-36l-1-23v-25l1-17 5-3z" fill="#FCC649"/>
<path transform="translate(393,181)" d="m0 0h32l2 2-1 67-3 1h-21l-8-1-1-1z" fill="#6489F9"/>
<path transform="translate(812,743)" d="m0 0h2v47l-7 8-7 3-5 1h-458v-2l8-3h386l55 1 18-2 5-3 2-5z" fill="#D4CED0"/>
<path transform="translate(1424,901)" d="m0 0 18 2 36 6 10 2v3l-46 8-27 6-23 5h-5v-2h-2l-1 15h-1v-35l13-4z" fill="#C2BEC4"/>
<path transform="translate(350,333)" d="m0 0 5 1h415l30 1 10 1v2h-438l-15-1-7-3z" fill="#D5D0CF"/>
<path transform="translate(363,469)" d="m0 0h353l13 1 7 3 2 2-1 4-3-3-5-2-6-1-351-1-31-1v-1z" fill="#A272EA"/>
<path transform="translate(525,522)" d="m0 0 44 1 160 1-3 2-152 2h-55l-45-1-133-1v-1l16-1 135-1z" fill="#BDA6D6"/>
<path transform="translate(813,898)" d="m0 0 1 2 20 4 160 36 70 16 34 8 19 4h10l62-14 120-27 8-2 4 1-18 5-36 8-66 15-49 11-26 6h-9l-29-6-29-7-32-7-39-9-32-7-74-17-15-3-12-3-39-9-3-2z" fill="#7D6BD0"/>
<path transform="translate(346,474)" d="m0 0 19 1h16l27 1h315l12 3-3 1-6-1-95 1-60-1-14 1h-32l-40-1h-131l-7-2z" fill="#DCD5D4"/>
<path transform="translate(814,740)" d="m0 0h7l8 2 9 2 16 4 17 4 23 6 14 4 11 3 9 2 84 21 25 7 16 4 23 6 8 2 3 3-8-1-56-14-21-5-162-41-17-4-7-2-1 101h-1l-1-23z" fill="#262A2F"/>
<path transform="translate(1372,913)" d="m0 0 2 1v26l-6 2-11 5-6 1-8-11-1-3-3-1-1-4-3-1-2-3 1-4 28-6z" fill="#C5C2C4"/>
<path transform="translate(382,453)" d="m0 0h1l1 5 11 1h341v2l-69 1h-246l-38-1-1-1z" fill="#DE6552"/>
<path transform="translate(769,735)" d="m0 0h15l18 4 1 1 9 2v46l-5 4-4-4 1-8 1-4v-10l-3-16-5-2-15-4-10-3-4-4z" fill="#FDFDFD"/>
<path transform="translate(426,183)" d="m0 0h1v67l7-1h180l136 1v1l-146 1h-148l-30-1z" fill="#E28549"/>
<path transform="translate(356,264)" d="m0 0h453v1l-201 1h-248l-7 2-6 5-2 6-1 45h-1v-46l3-9 5-3z" fill="#DE8753"/>
<path transform="translate(704,265)" d="m0 0h108l-5 5-191-2-2-2z" fill="#DBD4D4"/>
<path transform="translate(596,469)" d="m0 0h120l13 1 7 3 2 2-1 4-3-3-5-2-6-1-173-1v-2z" fill="#9975ED"/>
<path transform="translate(818,744)" d="m0 0 11 1 15 4 21 5 26 7 21 5 103 26 15 4 65 16 10 3-4 1-65-16-38-9-23-6-16-4-18-5-14-4-16-3-7-2-19-5-49-12-18-5z" fill="#19191B"/>
<path transform="translate(341,731)" d="m0 0h294l1 2-76 1h-76l-140-1z" fill="#DCD5D4"/>
<path transform="translate(815,772)" d="m0 0 13 1 19 6 25 7 11 3 13 4 14 4 23 7 11 3 8 3 15 4 8 3 20 5 21 7 24 7 11 3 1 2-8-1-49-15-21-6-18-5-29-9-42-12-26-8-26-7-8-2h-9z" fill="#19191B"/>
<path transform="translate(807,271)" d="m0 0h1l1 31 2 23-1 8h-2l-2-5-1-15-5-21-2-13 4-4 4-2z" fill="#FDFDFD"/>
<path transform="translate(366,271)" d="m0 0 154 1v1l-139 1h-17l-10 2-6 3-2 13v27l1 9 3 5-4-2-2-6v-46h2l1-5 8-2z" fill="#DCD5D4"/>
<path transform="translate(448,265)" d="m0 0h28l49 1-1 2-53 1h-60l-11-1-3-2z" fill="#DBD4D3"/>
<path transform="translate(346,494)" d="m0 0h1l2 23 24 2 5 2 1 3-22 1h-15l2-11z" fill="#FCFCFC"/>
<path transform="translate(340,733)" d="m0 0h1v6h2l3 8v20l-4 23-2 5h-1z" fill="#FEFEFE"/>
<path transform="translate(730,720)" d="m0 0 11 1 32 8 38 10v2h2l-1 2-9-2-18-6-15-2v-2l-8-1-18-5-12-3z" fill="#A08BD4"/>
<path transform="translate(423,181)" d="m0 0 4 2-1 67-3 1h-21l-8-1v-1l26-1 2-1 1-12z" fill="#B08CDD"/>
<path transform="translate(948,931)" d="m0 0 15 2 44 10v2l8 1 4 2-10-1-61-14z" fill="#846CD5"/>
<path transform="translate(601,683)" d="m0 0 4 1-3 1 34 9 30 8 9 3-4 1-31-8-30-8-12-4z" fill="#4B64B1"/>
<path transform="translate(355,272)" d="m0 0h9v2l-10 2-6 3-2 13v27l1 9 3 5-4-2-2-6v-46h2l1-5z" fill="#D9D3D2"/>
<path transform="translate(736,498)" d="m0 0 2 3v17l-2 4h-6l-1-5 2-2 2-13h3z" fill="#F8F8FA"/>
<path transform="translate(1331,733)" d="m0 0 8 1 20 6 7 2 2 4-13 5-3-1 5-3 2-4-9-3-19-6z" fill="#19191B"/>
<path transform="translate(382,453)" d="m0 0h1l1 5 11 1 76 1v1h-88l-1-1z" fill="#DE8753"/>
<path transform="translate(1372,913)" d="m0 0 2 1v25h-1v-24l-29 7-9 1-1 3-1-4 9-3z" fill="#886CD7"/>
<path transform="translate(1007,944)" d="m0 0 9 1 39 9v2l4 1-9-1-31-7v-2l-8-1z" fill="#7F6BD1"/>
<path transform="translate(730,720)" d="m0 0 11 1 32 8 11 3-4 1-27-7-19-3z" fill="#4B64B1"/>
<path transform="translate(1350,940)" d="m0 0 7 1h11l-4 3-7 3-6 1-3-4v-3z" fill="#D0CAD3"/>
<path transform="translate(917,924)" d="m0 0 10 1 27 6v1h-10l-27-6z" fill="#7B6ACF"/>
<path transform="translate(1150,661)" d="m0 0 4 2 3 8 6 4 11 3 9 3 10 3v1l-8-1-23-7-8-5-3-9z" fill="#19191B"/>
<path transform="translate(334,819)" d="m0 0 4 2 1 5 2 8 3 2h-9l-1-1z" fill="#DCD5D5"/>
<path transform="translate(1468,908)" d="m0 0 17 2 4 2-1 2-10 1-9-4z" fill="#E1DDDC"/>
<path transform="translate(885,917)" d="m0 0 10 1 23 5-1 2-9-1-23-5z" fill="#7B6ACF"/>
<path transform="translate(1546,682)" d="m0 0 11 1 4 1v2l-10 3h-4z" fill="#252531"/>
<path transform="translate(391,245)" d="m0 0 2 1 1 4-1 1h-39l2-3 35 1z" fill="#DE8753"/>
<path transform="translate(1194,764)" d="m0 0 5 5 11 13 4 7v3l-4 1 1-4-12-17-5-6z" fill="#19191B"/>
<path transform="translate(948,931)" d="m0 0 15 2 9 2-2 2-9-1-13-3z" fill="#826BD3"/>
<path transform="translate(1193,685)" d="m0 0 9 1 17 5 1 2-7-1-18-5z" fill="#19191B"/>
<path transform="translate(816,797)" d="m0 0h1l1 5v15l-2 1-1-14z" fill="#19191B"/>
<path transform="translate(730,720)" d="m0 0 11 1 8 2v2l-10-1-9-3z" fill="#776ACC"/>
<path transform="translate(917,924)" d="m0 0 10 1 9 2v1h-10l-9-2z" fill="#7369CA"/>
<path transform="translate(869,913)" d="m0 0 9 1 9 2-2 2-13-2v-2z" fill="#786ACD"/>
<path transform="translate(1361,942)" d="m0 0h5l-2 2-7 3h-5l2-4z" fill="#F0F0F1"/>
<path transform="translate(1142,682)" d="m0 0h11l-2 2-6-1 3 6 3 4-1 2-7-9z" fill="#19191B"/>
<path transform="translate(1007,944)" d="m0 0 9 1 13 3-2 2-8-1v-2l-8-1z" fill="#6567C1"/>
<path transform="translate(900,921)" d="m0 0h9l9 2-1 2-9-1-8-2z" fill="#856CD5"/>
<path transform="translate(1045,953)" d="m0 0 10 1v2l4 1-9-1-5-1z" fill="#8B6DD9"/>
<path transform="translate(1337,920)" d="m0 0h7v2l-9 1-1 3-1-4z" fill="#8B6DD9"/>
</svg>
