<?xml version="1.0" encoding="UTF-8"?>
<svg version="1.1" viewBox="0 0 2048 1503" width="583" height="428" xmlns="http://www.w3.org/2000/svg">
<path transform="translate(1256,105)" d="m0 0 24 1 28 4 24 6 26 9 24 11 20 12 17 12 14 11 12 11 8 7 9 9 6 5 7 8 12 13 11 14 11 15 11 18 9 16 10 19 14 31 17 41 10 24 14 32 15 29 16 27 14 21 12 17 14 20 28 38 13 17 14 19 14 18 14 19 29 43 16 28 16 32 10 23 11 29 10 31 11 45 5 28 4 34 1 12v58l-4 36-5 27-8 29-7 20-7 19-11 24-13 22-10 14-10 13-11 12-7 8-11 11-11 9-13 11-21 14-17 10-25 12-26 10-36 12-30 9-48 12-36 8-64 11-72 9-60 5-50 3-61 3-28 1h-129l-139-6-80-5-107-10-87-11-24-4-33-7-25-7-23-8-21-9-25-12-17-9-21-13-12-8-17-12-19-14-13-10-12-11-11-9-23-23-7-8-9-10-13-17-10-14-12-19-14-24-17-33-13-30-10-28-8-25-9-36-7-36-3-25-3-42v-53l2-30 3-28 8-44 8-34 12-40 10-29 15-35 8-16 13-25 12-21 9-14 10-15 13-18 12-16 8-9 9-11 18-18 1-2h2l1-3 8-7 8-8 11-9 16-13 18-13 24-16 24-14 17-9 24-11 28-11 22-7 28-7 27-5 43-6 50-5 68-6 63-8 33-7 25-7 23-8 34-16 33-16 20-9 16-8 33-15 31-13 33-13 27-9 38-10 27-5 22-3z" fill="#DFF1FC"/>
<path transform="translate(1430,479)" d="m0 0 10 2 26 8 27 10 20 9 21 10 19 11 10 8 8 9 7 12 11 27 14 37 15 46 11 39 10 38 8 35 4 25 3 26v10l-3 12-6 10-10 9-13 6-6 2h-13l-39-10-21-6 1 9 6 129 3 58v7l-1 1v21l1 17 1 6 1 18 1 36 1 7 262 1-1 4-10 18-12 17-10 13-11 12-7 8-11 11-11 9-13 11-21 14-17 10-25 12-26 10-36 12-30 9-48 12-36 8-64 11-72 9-60 5-50 3-61 3-28 1h-129l-139-6-80-5-107-10-87-11-24-4-33-7-25-7-23-8-21-9-25-12-17-9-21-13-12-8-17-12-19-14-13-10-12-11-11-9-23-23-7-8-9-10-11-14v-2l25-1-1-79-3-42-7-46-3-17v-10l4-8 4-3 3-1h19l71 2h22l10-40 8-29 8-16 9-10 11-9 20-12 15-8 27-11 22-7 17-4h4l4 13 6 12 11 12 11 7 11 4 7 2 8 1h18l13-4 10-7 3-3 6-13 2-8 1-10 9 2 19 8 22 11 11 7 3-19 6-35 4-8 9-7 10-4 124-1 7-1h13l-1-10 8-5 25-12 30-13 31-14 34-15 25-11 14-7 16-15 8-8 9-11 9-10 8-10 11-13 12-14 8-10 14-17 18-22 11-13 7-8 12-12 13-10 15-9 21-12 15-7 20-9-1 4-6 7-6 12v17l2 13 1 16 2 13 4 45 4 34 2 14 2 25h2l3-14 4-45 6-37 4-37-1-4-8-7 1-4 15-16 3-6 3-2 11 13 13 14-3 3-11 6-1 1v9l4 34 4 44 4 39 3 23 2-2 5-14 8-28 7-18 3-12 3-7 4-15 4-10 3-11 2-7 2-4 2-7 5-17 2-4 2-12 3-5 3-9v-18l-2-5v-4h-2l-6-9z" fill="#76BDE2"/>
<path transform="translate(1430,479)" d="m0 0 10 2 26 8 27 10 20 9 21 10 19 11 10 8 8 9 7 12 11 27 14 37 15 46 11 39 10 38 8 35 4 25 3 26v10l-3 12-6 10-10 9-13 6-6 2h-13l-39-10-21-6 1 9 6 129 3 58v7l-1 1v21l1 17 1 6 1 18 1 43h-164l-2-8-2-1v9l-5 1-157-1v-63l1-41h93l8-7 7-10 1-34 1-53 1-155 9-2 2-4 12-2h19l15 5 3-1 5-21 3-8 3-15v-6l-6-3-16-4-4-5-3-1-5-5-4-7-10-10-2-1 1-9 1-2h2l-1-9-3-2-2-6-3-3-3-1-24-1 3-28 3-33 6-37 4-37-1-4-8-7 1-4 15-16 3-6 3-2 11 13 13 14-3 3-11 6-1 1v9l4 34 4 44 4 39 3 23 2-2 5-14 8-28 7-18 3-12 3-7 4-15 4-10 3-11 2-7 2-4 2-7 5-17 2-4 2-12 3-5 3-9v-18l-2-5v-4h-2l-6-9z" fill="#76BDE2"/>
<path transform="translate(656,1274)" d="m0 0h639l307 1 55 1 54 2 7 2 3 3-1 3-18 11-23 12-32 13-35 12-34 10-48 12-36 8-64 11-72 9-60 5-50 3-61 3-28 1h-129l-139-6-80-5-107-10-87-11-24-4-33-7-25-7-23-8-21-9-25-12-17-9-21-13-12-8-7-5v-1h7l6-2 14-1 37-1 21-1 67-1z" fill="#B3DAF4"/>
<path transform="translate(1367,806)" d="m0 0h11l13 3v7l-2 7 9 2 54 16 30 9 51 14v2l9 2h1l1 5 6 129 3 58v7l-2 7h-1v-5l-80 1h-105l-10-5-11-9-5-4v-52l1-126 1-48 1-5h2v-2h3l1-4 5-5 8-3z" fill="#76BDE2"/>
<path transform="translate(870,294)" d="m0 0h181l10 3 8 6 6 8 3 9 1 130 2 13 11 36 3 11v4l-4-2-16-13-16-12-16-13-12-9-14-10-145-1-9-3-9-6-7-9-2-7-1-7v-86l1-17 4-11 7-8 9-5z" fill="#77BEE3"/>
<path transform="translate(823,1064)" d="m0 0h64l68 1 1 3 6 81-2 2-12-5-16-3-13-1-21 7-16 8-7 6-3 1-17 1h-71l-26-1-1-1h-18l-2-1-1-6-6-3-10 1-14 4-24 3-33 7-17 4-33 2h-133l-51-2-3-4v-13l3-42 5-5 12 1 24 4 28 5 19 4 19 1 18-2 29-2 63-6 49-6 19-2 24-1 11-1 3-17 2-14 1-1 50-5 1-1z" fill="#F8C3BD"/>
<path transform="translate(1349,245)" d="m0 0h32l24 4 18 7v2h3v3l4 2 7 10 3 6 2 9 7 4 8 9 5 11 1 5v23l-3 16-2 11h-2l-2 10-2 7-2 5-3 3-4 8-5 8h-2l-2 5-5 8-3 2-1 3-1 31-2 13-6 8-12 11-14 8-17 8-14 5h-6l-10-12-7-13-2-7v-13l-2-6-12-6-9-9-9-15-9-27-2-12-4-2-6-9-1-3v-12l4-8 6-7 5-1v-6l-3-1-1-10-4-1v-2l-5-2-10-9-5-9v-2h-2l-1-7 18-1-3-5-7-6v-2h-2l-6-12-1-13h4l8 2h17l9-2-1-6-1-4 3-1h24l13-3z" fill="#F5C2BD"/>
<path transform="translate(1347,808)" d="m0 0 1 2-4 8-2 8-1 48-1 126v52l15 12 10 5h185l1 5 2 32 1 6 1 18 1 43h-164l-2-8-2-1v9l-5 1-157-1v-63l1-41h93l8-7 7-10 1-34 1-53 1-155z" fill="#1F376C"/>
<path transform="translate(1241,710)" d="m0 0h2v15l-7 145-5 84-4 81-1 82-1 56-1 1h-114l-3-5v-5l-59-1-2-5-13-87v-7l133-1 10-3 6-4 4-8 5-25 9-61 8-57 9-61 4-26v-11l-6-12-7-6-11-4h-40v-3l12-8 10-8 14-12 15-14 8-7 12-11 10-9z" fill="#DFF1FC"/>
<path transform="translate(633,586)" d="m0 0h26l10 5 8 7 2 6 10-8 11-5 9-2h14l9 2 12 4 11 7 8 11 3 5 1 5v13l-7 10v4l8 9 5 11v12l-4 10-4 6-10 7-7 4h-10l2-32-18 2h-35l-22-3-21-6-6-1-4 9-7 8-3 3h-2l-2 21-3 16v19l4 10 6 7 3 1h11l19-4 10-1h14l19 2 17 4 6 4-1 8-7 10-7 9-7 6-9 5-17 5-15-1-17-5-13-6-11-9-8-10-8-14-3-12v-13l8-11 2-6 1-8v-9l-3-4-4-1h-10l-5 3-5 6-2 6v7l2 6 6 8 5 5 1 7-4-2-10-16-13-26-5-11-4-18v-15l3-10 11-12 10-4 4-2 3-16 5-9 10-11 15-9z" fill="#1F376C"/>
<path transform="translate(1433,481)" d="m0 0 9 2 7 3v2h-2l3 7 6 11 13 18 18 27v6l-28 28-4 2-3 3 1 5 9 11 7 11-2 9-5 5-10 16-5 9-6 9-5 9-12 20-7 11-8 13-4 7-4 6-3 7-2 3 1 7 3 1v1h-9l-5-2-3-4-3-1-5-5-4-7-10-10-2-1 1-9 1-2h2l-1-9-3-2-2-6-3-3-3-1-24-1 3-28 3-33 6-37 4-37-1-4-8-7 1-4 15-16 3-6 3-2 11 13 13 14-3 3-11 6-1 1v9l4 34 4 44 4 39 3 23 2-2 5-14 8-28 7-18 3-12 3-7 4-15 4-10 3-11 2-7 2-4 2-7 5-17 2-4 2-12 3-5 3-9v-18l-2-5v-4h-2l-3-5z" fill="#4CAACB"/>
<path transform="translate(1349,245)" d="m0 0h32l24 4 18 7v2h3v3l4 2 7 10 3 6 2 9 7 4 8 9 5 11 1 5v23l-3 16-2 11h-2l-2 10-2 7-2 5-3 3-4 8-5 8h-2l-2 5-5 8h-4v-7l6-12 10-6 4-7 1-5v-9l-3-7-4-5-5-2h-10l-8 4h-3l-1-19-7-7-6-11-1-7-21 5-12 1h-23l-20-2-25-6-4-1-2 11-4 1v-2l-5-2-10-9-5-9v-2h-2l-1-7 18-1-3-5-7-6v-2h-2l-6-12-1-13h4l8 2h17l9-2-1-6-1-4 3-1h24l13-3z" fill="#1F376C"/>
<path transform="translate(638,668)" d="m0 0 6 1 21 6 22 3h35l18-1v17l-1 12-1 3h6l-4 2 6 5 3 8-2 9-6 9-7 6-3 6-3 9-2 3-1 2-8-4-14-3-19-2h-14l-21 3-8 2h-11l-5-3-6-8-3-8v-19l4-23 1-11 1-3 8-7 5-7z" fill="#F4C3BE"/>
<path transform="translate(1286,710)" d="m0 0h74l-1 10 4 2 10 10 4 7 3 2v2l4 1 3 4 10 2 12 5 1 1-1 10-3 15-3 8-4 17-4 2-15-5h-19l-12 2-2 4h-47l-4-9-2-10-7-24-2-6-2-13v-12l3-5z" fill="#F7C3BE"/>
<path transform="translate(597,701)" d="m0 0h10l5 2 3 4v9l-2 12-7 11-2 2v13l3 12 8 14 8 10 11 9 21 8 8 2 11 1 6 3 1 4v7l8 6 1 2v7l-4 13-5 9-7 6-8 5-11 3h-18l-10-2-11-3-10-5-8-6-7-7-7-11-4-12v-6l13-5 1-1 1-26 2-31 1-8-1-2h2l-3-8-7-7-4-6-1-5v-7l4-9 6-6z" fill="#F7C3BD"/>
<path transform="translate(1430,482)" d="m0 0 3 1 3 5v2h2l3 9v18l-3 9-3 5-3 15-3 9-4 10-2 7-2 9-3 9-3 7-4 14-4 13-3 7-2 9-6 15-2 7-7 24-6 16-2-3-6-50-3-37-5-47-1-6v-9l5-4 10-5-6-7-9-10-8-10-3-1-1-4h10l-2 1-1 4 6 3v2l5 2 4 5 2 1v2l4 2 8 6 12-15 13-17 12-17z" fill="#F9FBFC"/>
<path transform="translate(823,1064)" d="m0 0h64l68 1 1 3 4 51v13h-1l-2-10-5-4-2-1h-12l-10-3h-11l-22 9-5 1h-8l-21-6-42-13-6-2-2-5-4-27v-5h-15v-1z" fill="#E0F1FC"/>
<path transform="translate(1355,513)" d="m0 0 5 5 11 12 9 10-3 3-11 6-1 1v9l4 34 4 44 4 39 2 14 1 17-6 16-2 7-4-2-7-7-2-1 1-9 1-2h2l-1-9-3-2-2-6-3-3-3-1-24-1 3-28 3-33 6-37 4-37-1-4-8-7 1-4 15-16 3-6z" fill="#1F386D"/>
<path transform="translate(1319,485)" d="m0 0 1 3-7 8-6 12v17l2 13 1 16 2 13 4 45 4 34 2 14 2 28h-28l-7-22-12-41-5-15 1-5 8-8 10-7-1-6-9-11-2-5-9-8-3-5v-3h2l1-5 7-10 18-27 5-9 2-3h2l2-5 3-3z" fill="#4DAACB"/>
<path transform="translate(1321,486)" d="m0 0h2l1 4 2 30v14l-1 1v9l7-3 4 1 8 7-2 23-3 25-5 29-4 45-3 12-1 2h-2l-1-3-3-32-2-12-4-34-4-46-1-4-2-25-1-4v-17l6-12z" fill="#F6FAFC"/>
<path transform="translate(1588,423)" d="m0 0 3 4 11 23 14 25 14 23 16 23 24 34 14 19 16 21 14 19 10 13 13 17 14 19 27 41 15 26 16 32 10 23v2h-2l-4-8-3-5-6-11-5-6-3-11-7-9-5-12-6-7-8-17-10-12-8-11-6-10-7-10-11-15-3-3v-2l-4-2-12-16-8-11-2-1v-2h-2l-4-6-8-10-7-10-11-15-10-13-7-10-6-10-8-11-9-14-5-8-8-13-7-16-7-10-4-16-3-3v-3h-2l-3-11-1-3z" fill="#EFFBFD"/>
<path transform="translate(1422,471)" d="m0 0 3 3 2 3 4 2-1 4-10 13-12 17-13 16-7 9-12-9v-2l-3-1-4-5-4-2v-2l-5-1-2-3 2-3h2v-2l20-8 19-10 14-12 5-6z" fill="#B3DAF4"/>
<path transform="translate(1442,511)" d="m0 0 2 1 1 5-2 7h-2l-1 9-1 10-2 6-1 7-3 7v3l-2 5v6l-3 5-2 11-7 12-1 8v14l-2 5-2 10-4 2v7l-3 10-2 3 1 2h-2v3h-2l-2 5-1 3h1v11l-4 2-1-2v-2l-3 5-4 1-2 6-4 4 1-8 4-11 8-28 7-18 3-12 3-7 4-15 4-10 3-11 2-7 2-4 2-7 5-17 2-4 2-12 3-5 4-14z" fill="#398EB1"/>
<path transform="translate(1299,109)" d="m0 0 14 2 25 7 25 9 19 9 20 12 17 12 14 11 12 11 8 7 9 9 6 5 7 8 12 13 11 14 11 15 11 18 9 16 10 19 6 13v2h-2l-5-10v-2l-4-1-6-10-6-9-5-12-8-9-6-10-9-14-6-7-6-9-5-5-12-13-8-8-8-7-4-5-16-14-5-6-6-4-6-5-12-8-5-4-12-6-14-8-13-7-5-3-14-4-5-2-23-5-10-3z" fill="#F0FCFE"/>
<path transform="translate(1286,710)" d="m0 0h74l-1 10h2l-1 3-3-2-1 7-3 3v-2l-61 1v1h-6z" fill="#EDFAFD"/>
<path transform="translate(597,701)" d="m0 0h10l5 2 3 4v9l-2 12-7 11-2 2-1 11-2 2-3-6-2-6-7-7-4-6-1-5v-7l4-9 6-6z" fill="#F3C3BE"/>
<path transform="translate(1333,478)" d="m0 0 3 3 4 10 7 11 5 6 1 5 2 1-4 5h-2l-7 4-5 4-6 3-1 2h-2l-2-13-2-36 6-2z" fill="#B3DAF4"/>
<path transform="translate(416,1104)" d="m0 0 27 5 36 7 5 1v1h-7l-32-6-19-3h-8l-2 4-3 42v13l2 3 51 2h135l31-2 17-4 4 1-18 5-11 2-25 1h-151l-35-1-3-2-1-3 1-34 2-24 2-7z" fill="#B3DAF4"/>
<path transform="translate(1459,631)" d="m0 0h2l-2 5-7 11-5 9-6 9-5 9-12 20-7 11-8 13-4 7-7 11-3-1 1-9 6-7 3-10 5-9 3-1 3-9 5-9 5-6 3-7 3-6 5-3 8-15 3-6h7v-3z" fill="#368BAF"/>
<path transform="translate(1309,577)" d="m0 0 3 4 2 9 2 22 4 34v13l-1 6v10l1 9-2 1-2-1v-2l-4-2-1-2v-7l3-9v-7l-4-12-1-11v-11l-2-7-1-21-1-11 2-2 2 1z" fill="#378CB0"/>
<path transform="translate(897,403)" d="m0 0h129l1 1v5h-130l-1-5z" fill="#D6EDFB"/>
<path transform="translate(1347,808)" d="m0 0 1 2-4 8-2 8-1 48-1 126-1 51h-3v-33l1-53 1-155z" fill="#368BAF"/>
<path transform="translate(539,991)" d="m0 0h2v11l-6 46v12l-6 50 1 6 2 3-5 2-7-1 2-11 3-25 5-35 2-18h2v-8l4-31z" fill="#368BAF"/>
<path transform="translate(1409,742)" d="m0 0 24 4 29 6 28 5 24 5 22 4 5 1 18 4 20 4-1 3-12-2-49-9-35-7-31-6-20-4-17-4-4-1v4h2v6l-5-1-1-2 2-9z" fill="#368BAF"/>
<path transform="translate(896,339)" d="m0 0h129l1 4-3 1h-126z" fill="#D0E9F9"/>
<path transform="translate(1129,130)" d="m0 0 1 2-6 3-10 4-5 1-20 10-12 3-13 6-10 4-10 6-9 4-10 3-10 5-17 8-9 5-12 5-13 8-10 4-13 6-10 4-12 6-12 3-1-2 21-8 41-20 28-13 27-13 33-15 31-13 33-13z" fill="#F0FCFE"/>
<path transform="translate(909,382)" d="m0 0h117l1 4-1 1h-117l-1-3z" fill="#DBEFFC"/>
<path transform="translate(556,283)" d="m0 0 3 1-3 2-5 2-8 2-10 5-9 2-16 8-4 1-7 3-11 7-15 6-6 4-13 8-5 3-5 4-5 3-9 6-10 6-6 5-11 8-9 6v-3l15-12 18-13 20-13 24-14 17-9 24-11 28-11z" fill="#F0FCFE"/>
<path transform="translate(933,361)" d="m0 0h93l1 4-1 1h-92z" fill="#D8EEFB"/>
<path transform="translate(1393,808)" d="m0 0 2 1-3 13 17 4 44 12 54 16 35 10v3l-9-2-58-16-83-25-3-1 2-10z" fill="#368BAF"/>
<path transform="translate(565,836)" d="m0 0 2 1 8 17 11 13 5 5 8 6 12 6 17 5 7 1h17l14-3 12-6 10-9 8-13 5-13 2 1v7l-5 10-8 11h-2l-1 3-11 8-8 4-11 3h-22l-18-4-15-6-11-7-12-11-9-13-5-12z" fill="#368BAF"/>
<path transform="translate(1295,791)" d="m0 0 6 2 11 5 15 5 20 1 1 4-1 1h-47l-4-9z" fill="#F7FAFC"/>
<path transform="translate(1291,729)" d="m0 0h62l-1 4-2 2-11 2h-28l-11-3-8-2z" fill="#78BEE3"/>
<path transform="translate(532,1031)" d="m0 0h1l-1 19-6 55 1 1 1-10 5-38 2 2-6 50 1 6 2 3-5 2-7-1 2-11 3-25 5-35z" fill="#4BA9CA"/>
<path transform="translate(1319,485)" d="m0 0 1 3-7 8-6 12v29l-1-3-4-1-1-13 1-2-2-9h-2l1-5 3-6h2l2-5 3-3z" fill="#3C91B5"/>
<path transform="translate(668,762)" d="m0 0h11l21 3 1 4-6 5-3 1h-9l-9-4-6-7z" fill="#E9F3F9"/>
<path transform="translate(1340,413)" d="m0 0h14l-1 5-4 4-5 2h-14l-5-2v-2l-3-1 1-4 3-1z" fill="#FDFDFD"/>
<path transform="translate(1013,179)" d="m0 0 2 2-17 8-9 5-12 5-13 8-10 4-13 6-10 4-12 6-12 3-1-2 21-8 41-20 28-13z" fill="#F0FCFE"/>
<path transform="translate(1527,689)" d="m0 0 3 1 2 13 3 43 1 9v9h-3l-4-36-3-38z" fill="#368BAF"/>
<path transform="translate(744,1143)" d="m0 0 4 2 13 13 2 4 23 1h58l27-1 7-2-3 3-3 1-17 1h-71l-26-1-5-5-8-11z" fill="#B3DAF4"/>
<path transform="translate(1361,802)" d="m0 0h19l14 5-2 6-1-4-13-2h-11l-13 3-3 4-3 1-1 4h-3l-1 2 1-6 3-5 2-6z" fill="#5CB2D3"/>
<path transform="translate(1328,687)" d="m0 0h23l5 3 3 3 1 6h-23l-6-6 8-4 14 2v-2l-25-1z" fill="#4BA7C8"/>
<path transform="translate(1373,723)" d="m0 0 3 2 4 1 1 6 7 3 5 5 1 2-2 6-6-1-3-3-3-1-5-5-4-8z" fill="#378CB0"/>
<path transform="translate(1242,637)" d="m0 0h3v72h-4z" fill="#368BAF"/>
<path transform="translate(1297,342)" d="m0 0h11l13 4 4 3v3h-12l-16-3-1-6z" fill="#1F386D"/>
<path transform="translate(1241,637)" d="m0 0h1v58l-1 14h4v-72l2 1-1 74h-2v-2l-6 2v-3h2v-19z" fill="#4DABCC"/>
<path transform="translate(721,699)" d="m0 0h10l4 1-1 4-2 2h-11l-2-1h-6l-2 1h-6l1-4 5-2z" fill="#1F386D"/>
<path transform="translate(1529,689)" d="m0 0 3 1 6 72 1 3 4 2-6 1-6-2-11-2v-1h8l4 1v-6h1v6h3l-3-29-2-32z" fill="#4DABCC"/>
<path transform="translate(685,878)" d="m0 0 2 1-7 7-14 6-14 3h-18l-14-3-17-7-1-2 9 3 18 5 6 1h22l13-4 9-5z" fill="#4DABCC"/>
<path transform="translate(575,823)" d="m0 0h3v6l-3-1h-9l-4 3-9 1-27 9h-3v-2l20-7 15-5z" fill="#5CB2D4"/>
<path transform="translate(1214,557)" d="m0 0 1 2-5 6h-2l-2 4-7 8-3 6h-2l-2 4-12 16-6 4 1-4 13-16 18-22 6-7z" fill="#58AFD2"/>
<path transform="translate(556,283)" d="m0 0 3 1-3 2-5 2-8 2-10 5-9 2-16 8-4 1-9 3 4-4 28-12z" fill="#EFFBFD"/>
<path transform="translate(683,859)" d="m0 0h2l1 3-4 7-7 6-8 4h-5v-2l-2-1 10-5 10-8z" fill="#4DABCC"/>
<path transform="translate(654,696)" d="m0 0 16 1 12 3v4l-8-1-20-1z" fill="#1F386D"/>
<path transform="translate(1363,348)" d="m0 0 15 1v4l-3 1h-25v-4l2-1z" fill="#1F376C"/>
<path transform="translate(1352,509)" d="m0 0h10l-2 1-1 4 6 3v2l5 2 4 5 2 1v2l4 2 1 2-5-2-6-2-7-6-7-9-3-1z" fill="#D9EEFB"/>
<path transform="translate(1339,529)" d="m0 0h2l-1 4-5 5-1 3-9 3-1-2v-7l2-5 2 3 6-1z" fill="#E6F6FB"/>
<path transform="translate(1268,284)" d="m0 0 4 1 4 5 6 5v3h-17l2-1 1-5 1-4z" fill="#E2F4FA"/>
<path transform="translate(744,1143)" d="m0 0 4 2 13 13 2 4 2 1h-8l-5-5-7-10z" fill="#FDFDFD"/>
<path transform="translate(578,835)" d="m0 0h3l8 16 4 6v2h-2v-2l-4-1v-2l-4-2-1-5-4-2-2-7z" fill="#4DABCC"/>
<path transform="translate(1350,517)" d="m0 0 1 4-10 10v-2l-9 5-5-1 3-1 1-3 9-5 6-5z" fill="#D7EDFA"/>
<path transform="translate(1321,486)" d="m0 0h2l1 4 1 24-4-2h-2v-2h2l-1-3 1-1 1-9-1-3-5 1-4 3 2-5z" fill="#EBF8FD"/>
<path transform="translate(868,239)" d="m0 0h3v2l-11 4-28 4h-8v-2l25-4z" fill="#F0FCFE"/>
<path transform="translate(389,374)" d="m0 0v3l-9 8-7 8-10 9-8 7v-3l2-3h2l1-3 8-7 8-8 11-9z" fill="#F0FCFE"/>
<path transform="translate(668,715)" d="m0 0 6 1 1 8-2 3h-6l-3-4 2-6z" fill="#1F376C"/>
<path transform="translate(1425,423)" d="m0 0h2l-1 37-2 10-3 2 2-15 1-31z" fill="#FDFDFD"/>
<path transform="translate(1052,161)" d="m0 0m-2 1h2l-2 4-15 7-10 3-7 4-4-1 16-8z" fill="#EFFBFD"/>
<path transform="translate(597,701)" d="m0 0h10l5 2-1 2-5 1h-8l-8 4-3 5-2-1 3-6 6-6z" fill="#EDEEF2"/>
<path transform="translate(1251,521)" d="m0 0 3 1-6 4-4 4-8 6-6 8-9 6 1-4 14-14 13-10z" fill="#56ACCF"/>
<path transform="translate(1320,650)" d="m0 0h1l2 21v13l-3-1-2-9v-13l1-2z" fill="#58B0D2"/>
<path transform="translate(1310,363)" d="m0 0h5l3 4-1 6-7 1-3-4 2-6z" fill="#1F396E"/>
<path transform="translate(1358,367)" d="m0 0 5 1 1 2v6l-2 2h-6l-2-2v-6z" fill="#1F376C"/>
<path transform="translate(1177,116)" d="m0 0h2v2l-9 3-3 2-9 1-7 2-10 3-4-1 4-2z" fill="#F0FCFE"/>
<path transform="translate(1411,760)" d="m0 0 3 1-3 14-4 11-3 8h-1v-9l3-8 3-9z" fill="#50ACCD"/>
<path transform="translate(713,718)" d="m0 0h5l2 3v6l-2 2-6-1-2-2v-5z" fill="#1F386D"/>
<path transform="translate(672,592)" d="m0 0h7l6 4v4l-4 4h-2l-5-8z" fill="#E2F4FB"/>
<path transform="translate(653,1107)" d="m0 0h12v1l-21 3-19 2h-10l4-2 11-1 9-2z" fill="#4DABCC"/>
<path transform="translate(742,846)" d="m0 0 9 1v7l-5 1-10-6v-2z" fill="#ECFAFD"/>
<path transform="translate(1347,808)" d="m0 0 1 2-4 8-2 7h-3l-1-15z" fill="#1F376C"/>
<path transform="translate(1287,725)" d="m0 0 2 2 66 1-2 3v-2l-61 1v1h-6z" fill="#B9DDF5"/>
<path transform="translate(1299,252)" d="m0 0 3 4-1 5-9 2h-17l-11-3v10l-2-3v-8l1-1 8 1 6 2h12l9-2 1-3z" fill="#77B8DA"/>
<path transform="translate(766,254)" d="m0 0h6v2l-24 3h-13l-4-2z" fill="#F0FCFE"/>
<path transform="translate(1274,561)" d="m0 0 5 1 5 5 5 4 1 4-1 2-4-2-10-11z" fill="#368BAF"/>
<path transform="translate(575,823)" d="m0 0h3v6l-3-1h-9l-4 3h-8l4-4z" fill="#53ADCF"/>
<path transform="translate(1307,547)" d="m0 0h2l1 7v11l-1 4 2 5-3 1-2-7z" fill="#388DB1"/>
<path transform="translate(1507,1358)" d="m0 0h8l-3 2-24 5h-5l3-3 12-3h8z" fill="#85C5E6"/>
<path transform="translate(691,806)" d="m0 0 4 1-4 5-5 2-1 3h-3l-1-5-3-2z" fill="#D9EFF7"/>
<path transform="translate(1441,1369)" d="m0 0 4 2-3 2-12 2h-10l-1-2 11-2z" fill="#7EC1E5"/>
<path transform="translate(734,1096)" d="m0 0h1v6l-1 1h-31v-1l8-1 16-1 4-2h3z" fill="#4DABCC"/>
<path transform="translate(1308,1384)" d="m0 0h18v1l-14 3h-14l2-2z" fill="#7FC2E5"/>
<path transform="translate(1412,1373)" d="m0 0 6 1-1 2-11 2h-12l4-3z" fill="#7FC2E5"/>
<path transform="translate(1818,788)" d="m0 0h2l10 26-1 4-8-17-1-6z" fill="#EFFBFD"/>
<path transform="translate(1556,865)" d="m0 0h10v2l9 2 3 3-10-1-10-3v-2z" fill="#58AFD2"/>
<path transform="translate(903,229)" d="m0 0 3 1-5 3-7 3-12 2-2-2z" fill="#F0FCFE"/>
<path transform="translate(1214,557)" d="m0 0 1 2-5 6h-2l-2 4-9 10-3 2 2-4 11-13 5-6z" fill="#5CB1D4"/>
<path transform="translate(1290,332)" d="m0 0 2 2 1 7 2 1v6l-6 2z" fill="#FDFDFD"/>
<path transform="translate(1464,615)" d="m0 0 3 1v7l-5 8-2-3 3-6-2-1 1-3h2z" fill="#368BAF"/>
<path transform="translate(351,410)" d="m0 0 2 1-6 7-6 5-7 8-4 3 2-4 12-13zm-22 24 1 2-2-1z" fill="#EEFAFD"/>
<path transform="translate(723,1154)" d="m0 0h8l4 2v2h-11l-4 1-2-1v-2z" fill="#48A5C6"/>
<path transform="translate(594,274)" d="m0 0h2v2l-11 3-1 1-12 1-1-2z" fill="#F0FCFE"/>
<path transform="translate(1856,932)" d="m0 0 2 1 2 23-2-1-2-10z" fill="#F0FCFE"/>
<path transform="translate(1449,597)" d="m0 0 5 1 1 2-2 6-5-2-1-6z" fill="#368BAF"/>
<path transform="translate(1287,691)" d="m0 0h6l1 5-3 3h-4z" fill="#4DABCC"/>
<path transform="translate(1323,497)" d="m0 0h1l1 17-4-2h-2v-2h2l-1-3 1-1 1-8z" fill="#F0FCFE"/>
<path transform="translate(601,742)" d="m0 0h2v10l-2 2-3-6v-5z" fill="#DEEDF6"/>
<path transform="translate(817,248)" d="m0 0h6v2l-13 2h-7l-3-2z" fill="#F0FCFE"/>
<path transform="translate(741,741)" d="m0 0v3l-8 10-2 5h-1l1-8 5-6z" fill="#F7FCFD"/>
<path transform="translate(577,1114)" d="m0 0 5 1-2 2-11 1h-7l1-3h10z" fill="#4DABCC"/>
<path transform="translate(1410,744)" d="m0 0 17 4v1h-14v6h-1v-6h-2l-1-4z" fill="#4DABCC"/>
<path transform="translate(1394,742)" d="m0 0 3 4v2l3 1v1h-9l-5-2 2-1 4 1 1-5z" fill="#5FB3D4"/>
<path transform="translate(1290,782)" d="m0 0 1 2h2l2 6v7h-2l-3-10z" fill="#5AAFD1"/>
<path transform="translate(677,811)" d="m0 0 5 1 2 7v7l-4-2v-8l-1-3z" fill="#F7FBFD"/>
<path transform="translate(1569,380)" d="m0 0h2l8 21h-2l-7-16z" fill="#EFFBFD"/>
<path transform="translate(1847,877)" d="m0 0 2 4 3 14v3h-2l-4-17z" fill="#F0FCFE"/>
<path transform="translate(1456,573)" d="m0 0h4v2l3 1h-2l-2 4h-4l-1-6z" fill="#368BAF"/>
<path transform="translate(1090,502)" d="m0 0 2 1 2 9-4-1-3-5v-2h3z" fill="#50ACCD"/>
<path transform="translate(562,826)" d="m0 0h5l-5 5h-8l4-4z" fill="#4EA8CA"/>
<path transform="translate(1407,779)" d="m0 0 1 3-4 12h-1v-9l3-5z" fill="#63B5D6"/>
<path transform="translate(739,710)" d="m0 0h8l2 10-1 4-4-9z" fill="#F6FCFD"/>
<path transform="translate(1232,538)" d="m0 0v3l-4 4-7 5 1-4 5-5z" fill="#58B0D2"/>
<path transform="translate(773,1378)" d="m0 0 11 1-1 2h-13l-6-1v-1z" fill="#86C5E7"/>
<path transform="translate(960,1134)" d="m0 0h1l1 16-2 1-8-3v-1l7-1z" fill="#FCFCFD"/>
<path transform="translate(743,1065)" d="m0 0 5 1 7 2v1l-13 1z" fill="#368BAF"/>
<path transform="translate(1323,547)" d="m0 0 3 1 2 7-4 1-2-6z" fill="#F0FCFE"/>
<path transform="translate(1833,826)" d="m0 0 2 3 4 13v2l-3-1-3-11-1-5z" fill="#F0FCFE"/>
<path transform="translate(1348,805)" d="m0 0h6l-5 6-5 10-1-3 4-8z" fill="#378CB0"/>
<path transform="translate(1399,798)" d="m0 0 1 4-2 5-3 1-10-3v-1h11z" fill="#E0EFF9"/>
<path transform="translate(1399,752)" d="m0 0 5 1 6 3-1 10h-1v-9l-6-2z" fill="#F8FAFC"/>
<path transform="translate(1382,704)" d="m0 0 1 3 3 1-1 6-3-2-1-3-2 1 1-5z" fill="#378CB0"/>
<path transform="translate(1354,1381)" d="m0 0 5 1-1 2h-15v-2z" fill="#7FC2E5"/>
<path transform="translate(955,1113)" d="m0 0m-1 1m-1 1m-3 1 5 1 3 1 2 4v10h-1l-2-10-5-4z" fill="#F9FCFD"/>
<path transform="translate(672,867)" d="m0 0h2l-1 3-8 5-5-1 3-2 8-4z" fill="#91CAEA"/>
<path transform="translate(561,666)" d="m0 0h1l1 9v10l-2-3-1-9z" fill="#EDFAFD"/>
<path transform="translate(556,283)" d="m0 0 3 1-3 2-5 2-10 2 3-3z" fill="#EFFBFD"/>
<path transform="translate(563,677)" d="m0 0h1l2 17h-2l-2-5z" fill="#C6E4F1"/>
<path transform="translate(1310,558)" d="m0 0h1l1 16-3-3-1-6h2z" fill="#5EB2D5"/>
<path transform="translate(692,834)" d="m0 0h1v12l-3 5-1-4z" fill="#4DABCC"/>
<path transform="translate(1352,509)" d="m0 0h10l-2 1-1 6-6-3z" fill="#E8F4FC"/>
<path transform="translate(1545,864)" d="m0 0h2v2h3l1 3-1 1h-5l-1-5z" fill="#EDFAFD"/>
<path transform="translate(1381,692)" d="m0 0h3l-3 10-2-3v-6z" fill="#DBF0FA"/>
<path transform="translate(784,252)" d="m0 0h4v2l-3 1h-12l3-2z" fill="#F0FCFE"/>
<path transform="translate(957,1112)" d="m0 0 2 3 1 7-2-1v-3l-5-1z" fill="#E9F8FC"/>
<path transform="translate(1437,488)" d="m0 0h2v2h2l1 8-4-4z" fill="#4296BA"/>
</svg>
