<svg width="100" height="100" viewBox="0 0 100 100" fill="none" xmlns="http://www.w3.org/2000/svg">
<g clip-path="url(#clip0_1_240)">
<path d="M88.0468 71.9531C87.6367 72.6953 86.8554 73.0859 86.0742 73.0859C85.6835 73.0859 85.2929 72.9883 84.9413 72.7734L52.2851 53.9062V91.6211C52.2851 92.8711 51.2695 93.9062 49.9999 93.9062C48.7499 93.9062 47.7148 92.8906 47.7148 91.6211V53.9453L15.0585 72.793C14.707 72.9883 14.3163 73.1055 13.9257 73.1055C13.1445 73.1055 12.3632 72.6953 11.9531 71.9727C11.3281 70.8789 11.6992 69.4922 12.7929 68.8672L45.4492 50L12.7929 31.1328C11.6992 30.5078 11.3281 29.1211 11.9531 28.0273C12.5781 26.9336 13.9843 26.5625 15.0585 27.1875L47.7148 46.0547V8.33984C47.7148 7.08984 48.7304 6.05469 49.9999 6.05469C51.2499 6.05469 52.2851 7.07031 52.2851 8.33984V46.0547L84.9413 27.1875C86.0351 26.5625 87.4218 26.9336 88.0468 28.0273C88.6718 29.1211 88.3007 30.5078 87.207 31.1328L54.5312 50L87.207 68.8672C88.3007 69.4727 88.6718 70.8789 88.0468 71.9531Z" fill="#EDEDED"/>
<path d="M74.375 50C74.375 63.457 63.457 74.375 50 74.375C36.543 74.375 25.625 63.457 25.625 50C25.625 36.543 36.543 25.625 50 25.625C63.457 25.625 74.375 36.543 74.375 50Z" fill="white"/>
<path d="M74.375 50C74.375 63.457 63.4766 74.375 50 74.375C41.5234 74.375 34.0625 70.0391 29.707 63.4766C33.5742 66.0547 38.1836 67.5391 43.1836 67.5391C56.6406 67.5391 67.5586 56.6406 67.5586 43.1836C67.5586 38.2031 66.0547 33.5547 63.4961 29.6875C70.0391 34.0625 74.375 41.5234 74.375 50Z" fill="#EDEDED"/>
<path d="M65.3711 61.875V68.9062C61.1719 72.3242 55.8203 74.375 49.9805 74.375C44.1602 74.375 38.8086 72.3242 34.6094 68.9062V61.875C34.6094 56.4453 39.0039 52.0312 44.4336 52.0312H55.5273C60.9766 52.0508 65.3711 56.4453 65.3711 61.875Z" fill="#BD90BE"/>
<path d="M65.3711 61.875V65.6641C65.3711 60.2344 60.9766 55.8398 55.5469 55.8398H44.4531C39.0234 55.8398 34.6289 60.2539 34.6289 65.6641V61.875C34.6289 56.4453 39.0234 52.0312 44.4531 52.0312H55.5469C60.9766 52.0508 65.3711 56.4453 65.3711 61.875Z" fill="#D3B5D3"/>
<path d="M56.9531 40.5664V47.3047C56.9531 50.8594 54.0625 53.75 50.5078 53.75C46.9531 53.75 44.0625 50.8594 44.0625 47.3047V40.5664H56.9531Z" fill="#FEE8B3"/>
<path d="M56.9531 40.5664H44.0625V43.1641H56.9531V40.5664Z" fill="#FFF4D9"/>
<path d="M61.4648 33.418L56.9531 40.5664H44.0625V36.4453C44.0625 34.7852 45.4297 33.418 47.0898 33.418H61.4648Z" fill="#516468"/>
<path d="M61.4648 33.418L59.6094 36.3672H47.0898C45.4297 36.3672 44.0625 37.7344 44.0625 39.3945V36.4453C44.0625 34.7852 45.4297 33.418 47.0898 33.418H61.4648Z" fill="#7C8B8D"/>
<path d="M57.5776 8.33984C57.5776 12.5195 54.1792 15.918 49.9995 15.918C45.8003 15.918 42.4214 12.5195 42.4214 8.33984C42.4214 4.14062 45.8198 0.761719 49.9995 0.761719C54.1792 0.761719 57.5776 4.16016 57.5776 8.33984Z" fill="#FB8A8A"/>
<path d="M57.5776 91.6602C57.5776 95.8399 54.1792 99.2384 49.9995 99.2384C45.8003 99.2384 42.4214 95.8399 42.4214 91.6602C42.4214 87.461 45.8198 84.0821 49.9995 84.0821C54.1792 84.0626 57.5776 87.461 57.5776 91.6602Z" fill="#FB8A8A"/>
<path d="M17.7145 22.5976C21.3473 24.6875 22.5777 29.3359 20.4879 32.9687C18.398 36.6016 13.7496 37.832 10.1168 35.7422C6.48399 33.6523 5.25352 29.0039 7.34336 25.3711C9.45274 21.7578 14.0816 20.5078 17.7145 22.5976Z" fill="#FDDD8D"/>
<path d="M89.8629 64.2578C93.4957 66.3476 94.7262 70.9961 92.6363 74.6289C90.5465 78.2617 85.8981 79.4922 82.2652 77.4023C78.6324 75.3125 77.402 70.6641 79.4918 67.0312C81.6012 63.418 86.2301 62.168 89.8629 64.2578Z" fill="#FDDD8D"/>
<path d="M10.1362 64.2578C13.769 62.168 18.3979 63.418 20.5073 67.0312C22.5972 70.6641 21.3472 75.293 17.7339 77.4023C14.0815 79.4922 9.45263 78.2422 7.36278 74.6094C5.25341 70.9961 6.50341 66.3476 10.1362 64.2578Z" fill="#7BDE9E"/>
<path d="M82.2847 22.5976C85.9175 20.5078 90.5464 21.7578 92.6557 25.3711C94.7456 29.0039 93.4956 33.6328 89.8823 35.7422C86.2495 37.832 81.6206 36.6016 79.5112 32.9687C77.4018 29.3359 78.6518 24.707 82.2847 22.5976Z" fill="#7BDE9E"/>
<path d="M57.5781 8.33984C57.5781 12.5195 54.1797 15.918 50 15.918C46.7969 15.918 44.082 13.9453 42.9688 11.1719C43.8477 11.5234 44.8047 11.7188 45.8008 11.7188C49.9805 11.7188 53.3789 8.32031 53.3789 4.14063C53.3789 3.14453 53.1836 2.16797 52.832 1.30859C55.6055 2.42188 57.5781 5.15625 57.5781 8.33984Z" fill="#F96363"/>
<path d="M57.5781 91.6602C57.5781 95.8398 54.1797 99.2383 50 99.2383C46.7969 99.2383 44.082 97.2656 42.9688 94.4727C43.8477 94.8242 44.8047 95.0195 45.8008 95.0195C49.9805 95.0195 53.3789 91.6211 53.3789 87.4414C53.3789 86.4453 53.1836 85.4883 52.832 84.6094C55.625 85.7422 57.5781 88.457 57.5781 91.6602Z" fill="#F96363"/>
<path d="M20.4883 32.9688C18.3984 36.6016 13.75 37.832 10.1172 35.7422C8.59375 34.8633 7.48047 33.5352 6.875 32.0117C10.332 33.3984 14.3555 32.0703 16.2695 28.7695C17.4805 26.6602 17.5781 24.2383 16.7383 22.1484C17.0703 22.2852 17.3828 22.4219 17.6953 22.6172C21.3477 24.707 22.5781 29.3359 20.4883 32.9688Z" fill="#FDD267"/>
<path d="M92.6367 74.6094C90.5469 78.2422 85.8984 79.4727 82.2656 77.3828C80.7422 76.5039 79.6289 75.1562 79.0234 73.6523C82.4609 75.0391 86.5039 73.7305 88.418 70.4102C89.6289 68.3203 89.7266 65.8789 88.8867 63.7891C89.2188 63.9258 89.5312 64.082 89.8437 64.2578C93.4961 66.3477 94.7266 70.9961 92.6367 74.6094Z" fill="#FDD267"/>
<path d="M17.7148 77.4023C14.082 79.4922 9.45313 78.2422 7.36328 74.6094C7.1875 74.2969 7.03125 73.9844 6.89453 73.6523C8.98438 74.4922 11.4062 74.3945 13.5156 73.1836C16.8359 71.2695 18.1445 67.2266 16.7578 63.7891C18.2813 64.3945 19.6094 65.4883 20.4883 67.0313C22.5781 70.6641 21.3477 75.293 17.7148 77.4023Z" fill="#50D27E"/>
<path d="M89.8633 35.7422C86.2305 37.8516 81.6016 36.6016 79.4922 32.9687C79.3164 32.6562 79.1602 32.3437 79.0234 32.0117C81.1133 32.8516 83.5547 32.7539 85.6445 31.543C88.9453 29.6289 90.2734 25.5859 88.8867 22.1484C90.4102 22.7539 91.7383 23.8672 92.6172 25.3906C94.7266 29.0039 93.4961 33.6523 89.8633 35.7422Z" fill="#50D27E"/>
<path d="M90.2537 63.5938C87.1873 61.8359 83.4959 62.207 80.8592 64.3164L73.1248 59.8438C74.4139 56.8164 75.1366 53.4961 75.1366 50C75.1366 46.5039 74.4139 43.1641 73.1248 40.1367L80.8787 35.6641C83.4959 37.7539 87.2069 38.1445 90.2733 36.3867C94.2772 34.082 95.6248 28.9844 93.3201 24.9805C91.0154 20.9961 85.9178 19.6289 81.9139 21.9336C78.867 23.6914 77.324 27.0703 77.8319 30.4297L70.0779 34.9023C66.074 29.5703 59.9803 25.8984 53.0467 25.0586V16.1133C56.1522 14.9023 58.3592 11.875 58.3592 8.33984C58.3397 3.75 54.5897 0 49.9998 0C45.41 0 41.66 3.75 41.66 8.33984C41.66 11.875 43.867 14.8828 46.9725 16.1133V25.0586C40.0194 25.8984 33.9451 29.5703 29.9217 34.9023L22.1678 30.4297C22.6756 27.1289 21.1522 23.7109 18.1053 21.9531C14.1014 19.6484 9.02326 21.0156 6.69905 25C4.39436 28.9844 5.76155 34.1016 9.74592 36.4062C12.8123 38.1836 16.5233 37.7734 19.1405 35.6836L26.8748 40.1562C25.5858 43.1836 24.8631 46.5039 24.8631 50C24.8631 53.4961 25.5858 56.8164 26.8748 59.8438L19.1405 64.3164C16.5428 62.2266 12.8123 61.8359 9.76545 63.5938C5.78108 65.8984 4.41389 71.0156 6.71858 75C9.00373 78.9648 14.1209 80.3516 18.1248 78.0469C21.1717 76.2891 22.6951 72.8711 22.1873 69.5703L29.9412 65.0977C33.9451 70.4297 40.0389 74.1016 46.9725 74.9414V83.9062C43.867 85.1172 41.66 88.1445 41.66 91.6797C41.66 96.2891 45.41 100.02 49.9998 100.02C54.5897 100.02 58.3397 96.2695 58.3397 91.6797C58.3397 88.1445 56.1326 85.1367 53.0272 83.9062V74.9609C59.9803 74.1211 66.0545 70.4492 70.0779 65.1172L77.8319 69.5898C77.324 72.8906 78.8475 76.3086 81.8944 78.0664C85.8787 80.3711 90.9764 79.0039 93.3006 75.0195C95.6053 71.0156 94.2381 65.8984 90.2537 63.5938ZM82.6561 23.2617C85.9373 21.3672 90.117 22.5195 91.9725 25.7617C93.867 29.0234 92.7342 33.2031 89.4725 35.0781C86.2108 36.9531 82.0311 35.8594 80.1561 32.5781C78.2811 29.3164 79.3748 25.1562 82.6561 23.2617ZM78.2029 31.9531C78.3787 32.4219 78.5741 32.8906 78.8475 33.3398C79.1014 33.7891 79.3944 34.1992 79.7264 34.5898L72.4608 38.7695C72.0115 37.8516 71.5037 36.9922 70.9373 36.1523L78.2029 31.9531ZM43.1639 8.33984C43.1639 4.57031 46.2303 1.50391 49.9998 1.50391C53.7694 1.50391 56.8358 4.57031 56.8358 8.33984C56.8358 12.1094 53.7694 15.1758 49.9998 15.1758C46.2303 15.1758 43.1639 12.1094 43.1639 8.33984ZM49.9998 16.6992C50.5272 16.6992 51.0154 16.6406 51.5233 16.5625V24.9414C51.0154 24.9219 50.5076 24.9023 49.9998 24.9023C49.492 24.9023 48.9842 24.9219 48.4764 24.9414V16.543C48.9647 16.6406 49.4725 16.6992 49.9998 16.6992ZM10.5076 35.0781C7.24592 33.1836 6.11311 29.0234 8.00764 25.7617C9.88264 22.5 14.0623 21.3672 17.324 23.2617C20.5858 25.1367 21.699 29.3359 19.824 32.5781C17.949 35.8594 13.7694 36.9727 10.5076 35.0781ZM20.2733 34.5898C20.6053 34.1992 20.8983 33.7891 21.1522 33.3398C21.4061 32.8906 21.6209 32.4219 21.7772 31.9531L29.0428 36.1328C28.4959 36.9727 27.9881 37.8516 27.5194 38.75L20.2733 34.5898ZM17.3436 76.7383C14.0623 78.6328 9.90217 77.5 8.02717 74.2383C6.15217 70.9766 7.26545 66.7969 10.5272 64.9219C13.7889 63.0469 17.9686 64.1406 19.8436 67.4219C21.7186 70.6641 20.6053 74.8633 17.3436 76.7383ZM21.7772 68.0469C21.6014 67.5781 21.4061 67.1094 21.1522 66.6602C20.8983 66.2109 20.5858 65.8008 20.2733 65.4297L27.5194 61.2305C27.9686 62.1484 28.4764 63.0078 29.0428 63.8477L21.7772 68.0469ZM56.8162 91.6602C56.8162 95.4297 53.7498 98.4961 49.9803 98.4961C46.2108 98.4961 43.1444 95.4297 43.1444 91.6602C43.1444 87.8906 46.2108 84.8242 49.9803 84.8242C53.7498 84.8242 56.8162 87.8906 56.8162 91.6602ZM49.9998 83.3008C49.4725 83.3008 48.9647 83.3594 48.4764 83.4375V75.0586C48.9842 75.0977 49.492 75.0977 49.9998 75.0977C50.5076 75.0977 51.0154 75.0781 51.5233 75.0586V83.4375C51.0154 83.3594 50.5076 83.3008 49.9998 83.3008ZM64.6092 68.5156C62.8319 69.9219 60.8397 71.0938 58.6912 71.9531V61.5234C58.6912 61.0938 58.3592 60.7617 57.9295 60.7617C57.5194 60.7617 57.1678 61.0938 57.1678 61.5234V72.5C54.9022 73.2227 52.4803 73.6133 49.9803 73.6133C47.4803 73.6133 45.0584 73.2227 42.8123 72.5V61.5234C42.8123 61.0938 42.4803 60.7617 42.0506 60.7617C41.6405 60.7617 41.2889 61.0938 41.2889 61.5234V71.9531C39.1404 71.0938 37.1483 69.9414 35.3709 68.5352V61.8945C35.3709 56.8945 39.4334 52.8125 44.4334 52.8125H45.8592C47.1092 53.8672 48.7303 54.5117 50.5076 54.5117C52.285 54.5117 53.9061 53.8672 55.1561 52.8125H55.5467C60.5467 52.8125 64.6287 56.8945 64.6287 61.8945V68.5156H64.6092ZM56.1912 41.3281V47.3047C56.1912 50.4297 53.6326 52.9883 50.5076 52.9883C47.3826 52.9883 44.824 50.4297 44.824 47.3047V41.3281H56.1912ZM44.824 39.8047V36.4453C44.824 35.1953 45.8397 34.1797 47.0897 34.1797H60.078L56.5233 39.8047H44.824ZM66.1326 67.207V61.875C66.1326 56.3477 61.8748 51.7969 56.4842 51.3281C57.2655 50.1758 57.7147 48.7891 57.7147 47.3047V40.7812L62.1092 33.8086C62.2655 33.5742 62.2655 33.2812 62.1287 33.0469C61.992 32.8125 61.7381 32.6562 61.4647 32.6562H47.0897C44.9998 32.6562 43.3006 34.3555 43.3006 36.4453V47.3047C43.3006 48.7695 43.7498 50.1367 44.5115 51.2891H44.453C38.6131 51.2891 33.8865 56.0547 33.8865 61.8945V67.2266C29.2967 62.9102 26.4061 56.7969 26.4061 50.0195C26.4061 36.9922 36.992 26.4062 50.0194 26.4062C63.0467 26.4062 73.6131 36.9727 73.6131 50C73.6131 56.7969 70.7225 62.9102 66.1326 67.207ZM70.9569 63.8477C71.5037 63.0078 72.0115 62.1289 72.4803 61.2305L79.7459 65.4102C79.4139 65.8008 79.1209 66.2109 78.867 66.6406C78.6131 67.0898 78.3983 67.5586 78.242 68.0273L70.9569 63.8477ZM91.992 74.2383C90.0975 77.5 85.9373 78.6328 82.6756 76.7383C79.4139 74.8438 78.2811 70.6836 80.1756 67.4219C82.0701 64.1602 86.2303 63.0273 89.492 64.9219C92.7537 66.7969 93.867 70.9766 91.992 74.2383Z" fill="#333333"/>
</g>
<defs>
<clipPath id="clip0_1_240">
<rect width="100" height="100" fill="white"/>
</clipPath>
</defs>
</svg>
