<?xml version="1.0" encoding="UTF-8"?>
<svg version="1.1" viewBox="0 0 900 900" width="225" height="225" xmlns="http://www.w3.org/2000/svg">
<path transform="translate(414,302)" d="m0 0 13 1 10 4 8 5 7 8 4 9 4 20 2 40 1 41 1 24v110l-6 9-8 6-14 4-6-1-10-3-8-7-4-5-2-4-5 2-7 3h-14l-7-6-5-11-1-12-8 3-12 6-10 2-10-2-5-5-4-8-3-10-1-7v-9l3-12 7-13 1-4-5-2-10-7-7-9-4-8-2-9v-10l4-12 6-9 8-7 12-5-2-5-5-7-4-16 1-9 6-14 8-9 10-6 11-3h11l14 4 6 2v-8l2-10 5-9 11-7 6-2z" fill="#67B6FC"/>
<path transform="translate(516,302)" d="m0 0h8l11 3 9 6 6 9 2 7 1 10 5-1 10-4 5-1h13l8 2 10 5 8 8 7 14 1 5v12l-3 10-5 8v4l11 4 8 6 7 11 3 9 1 5v8l-3 12-7 11-9 8-6 3h-2l2 5 7 11 3 8 1 6v13l-4 16-5 8-8 4h-9l-14-5-12-6v10l-3 11-7 8-4 2h-12l-13-6-2 6-7 9-6 4-11 3-9-1-10-4-7-6-5-8-1-4-3-133v-77l3-18 5-12 7-8 9-6 9-3z" fill="#FA5F70"/>
<path transform="translate(707,113)" d="m0 0h11l18 4 10 3 8 4 5 5 4 6 1 3v11l-3 15v13l4 6 4 3 3 1h9l20-5h8l9 3 7 6 7 14 5 19 1 8-2 10-4 6-7 6-12 5-10 3-6 4-4 5-1 3v10l4 6v2l3 1 7 8 6 9 3 8v8l-5 12-8 11-9 9-10 7-6 2h-11l-10-4-12-11-7-6-10-2-7 3-5 5-4 10-4 13-6 9-6 4-8 2 2 19v37l-4 24-7 23-9 20-10 18-9 13-11 14-12 13-8 8-7 8-16 16-9 11-8 11-10 17-12 28-10 25-6 8-12 2-2 17 4 9 1 2v6l-4 7v7l4 4-1 6-5 7-1 3v15l1 20-2 5-4 3-14 4-20 4-22 3-18 1-22-2-17-3-3-3-1-3-1-25-6-12v-6l7-14v-7l-5-13 1-7 8-13v-15l-8-3-5-3-4-5-3-9-5-17-5-12-9-16-14-19-7-7v-2h-2l-7-8-13-12-11-10-11-9-15-14-11-14-9-15-10-25-5-19-3-18-1-20 1-19 4-23 6-21 10-24 12-21 10-14 9-11 11-12 10-10 14-11 10-7 13-8 17-9 23-9 21-6 20-4 20-2h31l21 2 25 5 21 7 4 2 5-1 9-6 22-8 5-5 2-5v-8l-5-8-9-9-7-11-2-7v-9l4-9 4-6 9-10 7-7 8-5 7-2 12 1 8 4 14 12 7 4 9 1 8-4 5-9 6-18 6-9 5-4zm0 8-6 3-5 10-5 16-5 8-7 6-6 2h-11l-8-3-13-11-9-6-8-2-10 4-10 9-7 7-6 10-1 3v10l6 10 12 12 4 7 1 9-2 9-6 8-6 4-17 5-10 6-4 6-1 9 2 12 5 15 5 8 5 4 3 1h12l13-3h15l8 4 7 8 2 7v8l-4 21 1 9 5 6 8 4 22 6 11 1 8-3 5-8 5-18 7-11 6-4 5-2h12l8 4 10 9 10 8 3 1h12l8-6 10-9 8-10 3-7v-9l-5-10-12-12-5-9-1-11 3-10 7-8 13-5 12-4 8-6 3-6v-10l-6-22-4-8-6-5-4-2h-10l-16 4-9 1-9-2-6-4-4-5-3-8v-12l3-15v-11l-4-6-10-5-23-6zm-241 123-21 2-22 4-22 6-22 9-19 10-12 8-12 9-14 12-12 12-11 14-8 11-8 13-8 16-6 14-6 18-5 25-1 10v25l4 25 6 21 7 16 6 12 7 9 11 12 10 10 8 7 10 9h2v2l8 7 12 11 7 8 8 9 11 15 9 16 6 14 7 25 4 5 3 1h21l38-2h39l29 2h7l5-8 13-34 7-15 8-15 9-12 9-11 4-4v-2h2l7-8 18-18 7-8 10-11 10-13 10-16 11-21 8-22 5-22 2-17v-24l-3-24-1-2-24-6-10-4-7-6-3-7v-12l3-17v-8l-2-6-5-6-8-2-14 1-7 2-15 1-10-5-5-6-5-12-5-18v-17l-8-4-24-7-22-4-22-2z" fill="#0D0607"/>
<path transform="translate(453,701)" d="m0 0h59l17 2-2 19 4 9 1 2v6l-4 7v7l4 4-1 6-5 7-1 3v15l1 20-2 5-4 3-14 4-20 4-22 3-18 1-22-2-17-3-3-3-1-3-1-25-6-12v-6l7-14v-7l-5-13 1-7 8-13v-16l4-1z" fill="#FABE0B"/>
<path transform="translate(697,191)" d="m0 0 15 1 12 4 12 7 8 8 6 10 5 12 1 5v19l-4 13-7 11-9 10-10 6-13 5-4 1h-18l-13-4-11-6-8-7-7-10-5-11-3-12v-13l4-14 6-11 9-10 11-8 10-4zm-26 75-1 6 5 5 11 5 8 2h11l2-1 1-5-2-2-14-2-12-5-5-3z" fill="#30E2AE"/>
<path transform="translate(453,701)" d="m0 0h59l17 2-2 19 4 9 1 2v6l-4 7v7l4 4-1 6-4 6h-2l1-6 2-2-5-1-13 1h-58l-41-2-7-2-4-12-2-5 1-7 8-13v-16l4-1z" fill="#FABE0F"/>
<path transform="translate(404,759)" d="m0 0 7 2 28 2 80 1v1l-82 1-3-1v2l-20 1-7 3-1 8 2 7 1 1 9 1 2 2 4 2-1 1h-9l-10-1 1 2 4 1 44 2h41l26-1 3-1 1-2-15 1-9-1v-1h13l2 1v-2h-5v-1l8-2 3 1 3-3 1 2 1 20-2 5-4 3-14 4-20 4-22 3-18 1-22-2-17-3-3-3-1-3-1-25-6-12v-6z" fill="#FABF12"/>
<path transform="translate(65,73)" d="m0 0h6v41l3 19 5 19 7 17 8 15 10 14 9 12 3 1 5-14 8-11 9-7 11-5 4-1h17l9 3 9 7 6 8 5 12v15l-4 10-8 9-12 6-5 1h-18l-13-4-12-7-3-1 8 16 7 9 9 8 14 7 12 3 11 1 2 1v5l-1 1h-15l-17-5-14-8-12-12-8-14-4-12-1-9-5-5-10-11-11-15-9-16-6-13-7-21-4-20-1-7v-27l1-11zm93 107-9 2-9 5-7 6-7 12-2 6v9l8 7 12 7 11 3h13l9-3 6-4 6-7 2-5v-14l-4-10-6-7-8-5-8-2z" fill="#FA6577"/>
<path transform="translate(453,701)" d="m0 0h59l17 2-2 19 4 9 1 2v6l-4 7v7l4 4-1 6-4 6h-2l1-6 2-2-4-4-3-20v-4-1l6-1-2-2-34-4-21-1h-33l-23 1-7 1v2h14v1h-16l-2-3 4-6v-16l4-1z" fill="#FABF15"/>
<path transform="translate(619,717)" d="m0 0h15l10 4 8 6 6 9 1 3v9l-4 8-7 8-8 4-11 2-13-3-8-6-6-10-1-3v-12l3-8 4-5 9-5z" fill="#FEB7E1"/>
<path transform="translate(404,759)" d="m0 0 7 2 28 2 80 1v1l-82 1-3-1v2l-20 1-7 3-1 8 2 7 1 1 9 1 2 2 4 2-1 1h-9l-10-1 1 2 16 2 1 4-6 1v2l-5 3-2 9 4 3v2l7 1v1l9 1h6v-1l23-2 5-1 21-2 25-3 9-6h2v-8l3-3 1-4-15 1-9-1v-1h13l2 1v-2h-5v-1l8-2 3 1 3-3 1 2 1 20-2 5-4 3-14 4-20 4-22 3-18 1-22-2-17-3-3-3-1-3-1-25-6-12v-6z" fill="#FECE12"/>
<path transform="translate(159,358)" d="m0 0 20 1 17 4 15 6 11 6 3 4v4h-20l-26-3-23-5-5-3-3-5 2-5 4-3z" fill="#FAC00C"/>
<path transform="translate(259,204)" d="m0 0h7l10 5 13 10 9 9 10 13 8 16-1 3-6-1-11-7-12-9-13-11-7-7-5-4-5-6v-7z" fill="#FABF0A"/>
<path transform="translate(468,125)" d="m0 0 6 2 4 6v26l-3 25-4 18-1 2-4-2-4-9-3-12-1-6v-26l3-14 4-8z" fill="#FAC00A"/>
<path transform="translate(206,495)" d="m0 0h11l7 2-2 4-9 6-21 10-28 10-8 1-5-4-1-7 8-7 16-8 13-4z" fill="#FABF0B"/>
<path transform="translate(665,692)" d="m0 0h11l5 3 3 3 1 3v10l-5 6-7 3-8-1-6-5-3-7 1-7 5-6z" fill="#FEB7E1"/>
<path transform="translate(574,580)" d="m0 0h5l1 4-7 7-8 7-8 9-8 13-8 19-4 8-5-3 1-7 4-12 7-14 12-16 9-9z" fill="#0D0607"/>
<path transform="translate(709,415)" d="m0 0h5l6 9 7 17 4 18 1 9v14l-2 9-5 1-2-4v-22l-2-14-5-16-5-12-3-5z" fill="#120809"/>
<path transform="translate(404,759)" d="m0 0 7 2 28 2 80 1v1l-82 1-3-1v2l-20 1-7 3-1 8 2 7 1 1 9 1 2 2 4 2-1 1h-9l-10-1 1 2 4 2h-6l-4-10-3-6v-6z" fill="#FEC72F"/>
<path transform="translate(206,495)" d="m0 0h11l7 2-2 4-9 6-21 10-28 10-8 1-5-4-1-7 8-7 5-3 2 1-5 9v4h7l12-3 2-2 11-4 11-5 5-3v-4l-10-2h-7v-1z" fill="#FECD12"/>
<path transform="translate(735,382)" d="m0 0 11 1 47 12 3 3-1 4-1 1-9-1-43-11-7-3-1-4z" fill="#100708"/>
<path transform="translate(259,204)" d="m0 0h7l-1 11 13 13v2h2v2l5 2 5 3v2h2l1 4 3 1 1 4 4 1v2h6l1 4 3 1v-2h2l1-2 2 7-5 1-10-6-14-10-14-12-7-7-5-4-5-6v-7z" fill="#FECD0E"/>
<path transform="translate(437,723)" d="m0 0h33l21 1 34 4 3 3-1 1h-10l-9-2-25-2h-76v-2l7-2z" fill="#040303"/>
<path transform="translate(404,757)" d="m0 0 7 1 41 2h58l17-1 2 3-5 2h-85l-28-2-7-3z" fill="#040303"/>
<path transform="translate(404,792)" d="m0 0h10l35 2h55l20-1-1 3-3 1-26 1h-41l-44-2-5-2z" fill="#040303"/>
<path transform="translate(734,403)" d="m0 0 5 1 11 14 10 14v5l-7-1-13-17-7-10v-5z" fill="#0F0708"/>
<path transform="translate(272,207)" d="m0 0 11 7 12 11 11 13-2 1v3h-2l-3-3-9-6-7-10-6-4-5-8z" fill="#FFCD0B"/>
<path transform="translate(357,383)" d="m0 0 3 1 3 12 5 9 1 3h2l5 5 8 4 3 1h17l11-4 5-4 1 3-8 6-14 4h-8l-13-4-8-6-7-8-4-8-2-7z" fill="#040303"/>
<path transform="translate(402,728)" d="m0 0 2 2 2 7 3 7 4 3v2l2 1 1 3-1 3 7 2v1h-11l-7-2-4-12-2-5 1-7z" fill="#FECD1C"/>
<path transform="translate(335,441)" d="m0 0h8l12 5 7 7 3 7 2 7v10l-4 15-4 9h-3l3-9 4-17-1-11-4-10-8-6-15-5z" fill="#040303"/>
<path transform="translate(520,419)" d="m0 0 8 1 8 5 8 9 4 6 3 9 1 6v18l-1 5-2-1-2-26-5-13-9-10-13-7z" fill="#040303"/>
<path transform="translate(513,348)" d="m0 0 4 1 6 9 4 5 9 6 6 3 13 3 10-1 5-2 5 1-1 2-15 3-14-1-11-4-11-8-7-9-3-6z" fill="#040303"/>
<path transform="translate(529,729)" d="m0 0 3 4v6l-4 7v7l4 4-1 6-4 6h-2l1-6 2-2-4-4-3-20v-4-1l7-2z" fill="#FED127"/>
<path transform="translate(592,490)" d="m0 0h9l2 4-11-1-9 2-10 4-9 7-5 6-7 19h-3l1-6 5-13 4-6 8-8 12-6z" fill="#040303"/>
<path transform="translate(551,395)" d="m0 0 3 2 5 12 4 6 7 8 14 8 10 3 7 1 2 3-11-1-8-2-12-6-8-6-9-12-4-10z" fill="#040303"/>
<path transform="translate(416,514)" d="m0 0h10l7 2 11 8 4 6v2l-4-1-6-7-10-5-10-1-10 4-6 5-5 7h-2l1-5 7-8 9-6z" fill="#040303"/>
<path transform="translate(516,702)" d="m0 0 13 1-2 19 2 8-9-3-3-2h2l1-5 1-2 3-1 1-8-5 1v-2h-2v-2l-2-1z" fill="#FECB1C"/>
<path transform="translate(418,335)" d="m0 0 2 1-1 8-5 11-6 8-6 5-9 4-6 1h-9l-1-2 12-2 11-4 7-6 5-8 5-15z" fill="#040303"/>
<path transform="translate(433,458)" d="m0 0h2l-1 5-5 5-6 4-6 2h-13l-8-3-6-4-4-5v-2h3l4 5 10 5 10 1 9-3 8-6z" fill="#040303"/>
<path transform="translate(505,492)" d="m0 0 5 3 7 8 6 10 3 12 1 9h-3l-4-16-4-9-9-11-2-3z" fill="#040303"/>
<path transform="translate(474,176)" d="m0 0h2l-3 18-3 10-4-2-3-6 1-2h3l1 4 1-2v-7l-1-2v-6-3z" fill="#FED01D"/>
<path transform="translate(468,125)" d="m0 0 6 2 4 6v26h-1l-1-12-3-6-2-9v-3l-5 2-3-1z" fill="#FECE12"/>
<path transform="translate(410,718)" d="m0 0 1 2h8l-1 2 11 1v1l-15 1-7 1v2h14v1h-16l-2-3z" fill="#FDC65C"/>
<path transform="translate(523,747)" d="m0 0h4l1 6 4 4-1 6-4 6h-2l1-6 2-2-4-4z" fill="#FED13B"/>
<path transform="translate(300,250)" d="m0 0 7 1 1 4 3 1v-2h2l1-2 2 7-5 1-10-6-2-3z" fill="#FED028"/>
<path transform="translate(519,789)" d="m0 0m-2-1 2 3 3 2-13 1-9-1v-1h13l2 1v-2h-5v-1z" fill="#FEC934"/>
<path transform="translate(222,376)" d="m0 0 3 3v4h-20v-1h17v-3l-2-1z" fill="#FECF18"/>
<path transform="translate(211,370)" d="m0 0 6 2 3 3-7 3-3-7z" fill="#FFCD0B"/>
</svg>
