<?xml version="1.0" encoding="UTF-8"?>
<svg version="1.1" viewBox="0 0 900 900" width="225" height="225" xmlns="http://www.w3.org/2000/svg">
<path transform="translate(443,103)" d="m0 0h35l28 2 38 7 26 7 16 7 10 7 16 2 20 1 49 1 77 1 23 1 6 2 1 106-1 86-2 6-1 2v88l-2 33-4 27-11 50-6 14-4 30-1 20 6 2 6 4 3 5 1 16v7l1 2 9 4 5 4 1 11-2 8 3 1 1 3v64l-1 1-17 1-195 1-1 4-3 3-16 7-36 12-23 6-31 6-40 3-19 1h-13l-10-1-9-2-9-1-13-5-11-1-8 5-5-2-5-9-2-1-20-2h-6l2 8-6 1-10 2h-13l-16-1-5-3 1-8 5-6-2-6 2-11v-10l-7-1-16-9-10-9-5-5-6-8-5-10-7-1-23-1v86h27l8 1v2h-76v-3h34l-1-57v-29l-32-1-7-1-3-10-10-3-5-7-1-8 4-8 5-2v-13l-2-15v-32l3-12 3-6 10-1 1-1v-24l-6-32-4-48v-13l4-28 2-9 1-48 1-78 4-7 7-4 4-1 34-2 2-2-5-6 1-5 1-3v-12l-3-8 3-6 9-3 4-4 5-12 5-2 5 2h7l6-3 9-9 7-8 18-13 16-13 28-16 16-8 27-11 40-13 40-8z" fill="#7DBDFC"/>
<path transform="translate(443,103)" d="m0 0h35l28 2 38 7 26 7 16 7 10 7 16 2 20 1 49 1 77 1 23 1 6 2 1 106-1 86-2 6-1 2v88l-2 33-4 27-11 50-6 14-3 21h-1l1-68 1-22 2-119 1-25-26 1-76 1-35 1h-23l-2-1 1-4 7-7 11-9 9-9 8-7 26-24 20-18 7-7 8-7 7-7 8-7 3-1-1-4-7 7-11 9-13 12-16 15-10 9-10 8-6 5-5 5-15 14-11 9-7 6-4 4-7 6-8 2-1-2-1-51v-30l-53 1-47 2-125 3-66 2-110 2 2-3-5-6 1-5 1-3v-12l-3-8 3-6 9-3 4-4 5-12 5-2 5 2h7l6-3 9-9 7-8 18-13 16-13 28-16 16-8 27-11 40-13 40-8z" fill="#F5D9FB"/>
<path transform="translate(594,135)" d="m0 0h18l20 1 49 1 77 1 23 1 6 2 1 106-1 86-2 6-1 2v88l-2 33-4 27-11 50-6 14-3 21h-1l1-68 1-22 2-119 1-25-26 1-76 1-35 1h-23l-2-1 1-4 7-7 11-9 9-9 8-7 26-24 20-18 7-7 8-7 7-7 8-7 3-1-1-4-7 7-11 9-13 12-16 15-10 9-10 8-6 5-5 5-15 14-11 9-7 6-4 4-7 6-8 2-1-2-1-51v-14l-1-17 1-60v-58l2-4z" fill="#FBD758"/>
<path transform="translate(266,458)" d="m0 0h7l7 6v9l-9 9-3 15-1 10-4 9-5 1-14-6-5 1-5 2 1 5 2 6 3 1 5 10 1 6h2l9 20 7 10 7 8 13 10 6 4 7 2h10l7-3h10l3 6v2l4 1 34 1 15 2 3 3v8l-1 1-42 2h-3l3 12 2 7 7 28 1 2 11 1 133 1v66h86l-3 1-1 4-3 3-16 7-36 12-23 6-31 6-40 3-19 1h-13l-10-1-9-2-9-1-13-5-11-1-8 5-5-2-5-9-2-1-20-2h-6l-1 2-5-2-2-1 1-11 4-16 1-2 4 2 15 16 3 3 7-1 6-1-3-9-10-18-6-10-7-11v-4h-2l1-12-2 5v4l-6 2v-10l-7-13v-3l12-2 6-21 4-16h-75l-25-3-7-1-2-1-3 3h-22l-35-3-2-1 1-12 5-19 5-12 12-23 8-12 8-10 9-10 12-12 10-8 15-8 8-6 2-7 1-8 5-11 3-7h8l6 3 4-1z" fill="#B77EF4"/>
<path transform="translate(755,601)" d="m0 0 1 2 6 2 6 4 3 5 1 16v7l1 2 9 4 5 4 1 11-2 8 3 1 1 3v64l-1 1-17 1h-278v-66h-133l-11-1-3-6-7-31v-1l59-1h94l41 1 1 1v13l-2 12 16-1 119-1 71-1 12-1v-32l-3-5-2-1-23-1h-177l-14-1-2 2-2-5v-5l3-2 17-1h200l7 1z" fill="#902670"/>
<path transform="translate(714,230)" d="m0 0 2 3-5 5-16 15-30 28-8 7-26 24-10 9-11 10-8 7-14 13-1 2 4 1-1 6-5 9-6 7-11 9-2 5-2 15-4 17-9 21-4 6h-2l-2 4-10 10-7 4-3 1-1 2h-2l-3 9-13 26h-2l-1 5-15 28h-2l-1 5-9 16-7 10-86 1 1-5 13-29 1-4h2v-7h-2l-3-27-2-10-1-6-8 7-12 22-3 8v7l5 6 8 3 6 2 1 3-7 15-3 8h-6v-6l-2-2-12-2-13-10-3-4-2-6v-12l6-21 8-19-2-5-4-2-4-6-1-20-9-6-12-6-5-6-2-8v-11l4-13 11-12 13-7 10-3 9-2 4-5 3-9 5-5 6-4h4l1-5 9-14 7-12 9-8 9-3h8l10 3 9 8 2 4v6l-3 8v5l3 4 2 6 2 17v10l-4 5-4 2-10 2-3 11-1 6v8l1 5h7l5 2v2l7 1 10 2 17 4 18 2h23l14-7 9-9 8-14 2-6 1-10 1-2-3 1-20 20h-2v2l-6 5h-5l1-5 13-12 8-7 12-11 3-1v-7l4-7 7-4h5l1 4h2l1-5 9-9 8-7 4-2 2-4 4-3h2l2-4 13-11 11-10 8-7 4-2 1-3 8-7 11-9 15-14 10-9 12-11 11-9z" fill="#FEF458"/>
<path transform="translate(529,259)" d="m0 0h53v13l-35 1-54 1-61 2-84 2-58 2-112 2-14 2-8 4-7 8-2 4-1 6v55l1 23 1 42 1 130 1 28-5 14-4 15-2 12 37 3h22l2-2 2-3 1 3 21 3 11 1 75 1-2 12-6 23-2 3-12 1 8 16-1 10 3-2h3l-1-5 3-5h1l-1 8-1 5h2l3 7 8 13 14 25 1 7-8 3h-5l-13-13-7-8-2-1-4 18-2 11 5 2 4 2 1 5-6 1-10 2h-13l-16-1-5-3 1-8 5-6-2-6 2-11v-10l-7-1-16-9-10-9-5-5-6-8-5-10-7-1-23-1v86h27l8 1v2h-76v-3h34l-1-57v-29l-32-1-7-1-3-10-10-3-5-7-1-8 4-8 5-2v-13l-2-15v-32l3-12 3-6 10-1 1-1v-24l-6-32-4-48v-13l4-28 2-9 1-48 1-78 4-7 7-4 4-1 40-2 104-2 108-3 83-2z" fill="#A42672"/>
<path transform="translate(599,340)" d="m0 0 1 2h25l35-1h34v1h-30v55l-1 41-1 15-2 71-1 21-2 10-4 6-4 4-6 2-35 1h-139l1-4 13-22 1-4h2l2-6 12-22 2-5h2l2-6 8-16 4-9 2-4h2l2-4 6-2 10-9 5-6h2l2-5 7-14 5-16 3-13 1-11 3-6 14-12 6-10 3-8-4-1 2-4 7-7z" fill="#A4C0FA"/>
<path transform="translate(736,340)" d="m0 0h26v25l-2 119-1 22-1 54-2 41-1 2-190-1-29-1v-1l9-2 4-1 17-5 7-4h2l1-3 11-4-1-2-12-3-2-4 5-2 15-1 47-1 10-2 2-4 4-5 2-5 1-7 2-54 1-38 1-15 2-96z" fill="#3C69F7"/>
<path transform="translate(388,482)" d="m0 0h2l3 8 2 14 1 21h2v7h-2l-1 6-9 20-4 8-1 4 13-1 73-1 2-2v2l139-1 35-1 6-1-4 3-6 1-47 1-15 1-5 1 2 3 12 3 3 3-9 4-4 1-4 4-8 4-16 4-7 2 24 1v1l-34 2-2 1 1 9 3-2 21 1h174l18 1 5 4 1 3v28l-1 4-2 1-10 1-89 1-117 1 1-12v-13l-41-1h-154l-2-12 3-1 42-2v-8l-2-2-16-2-34-1-4-4-2-5h-10l-7 3h-10l-8-3-10-7-11-9-5-6v-4l45-1 51 1 10 1 3 1 6-12 7-16 1-4-6-2-8-3-6-7v-7l5-12 11-19z" fill="#427BFB"/>
<path transform="translate(399,630)" d="m0 0h94l41 1 1 1v13l-2 9-1 2-6 2-1 7 11 1-4 2h-4v55l2 9h34l-1-3 2-2 1 4 8 1h6l2-18 1-7 3-1 1-4 1 3 4-2 3-1 1-7 1 2 5-1 3-6 1-4 4-1 4 2 1-1h7l7 3 4 1 1-2 4 2v2l5 1 2 3h5l4-1 3 3 6-1 1 6 3-1-2-5 3-3 7 1h3l5-1 4 1v3l5 1 6 2v2l5 1 5-4h2l2 5-1 6 8-1v-2l4-1v2l2 1-4 2 1 4 6 1 2-2h2v2h7l2 1v2h2l-1 3-5 4v3l33 1 12-1h3v-2l2 1 2 6-17 1h-278v-66h-133l-11-1-3-6-7-31v-1z" fill="#85246D"/>
<path transform="translate(776,212)" d="m0 0 2 1 1 18h2l3 11 1-17h1l1 18v90l-2 6-1 2v88l-2 33-4 27-11 50-6 14-3 21h-1l1-68 1-22 2-119 1-25-26 1-76 1-35 1h-23l-2-1 1-4 7-7 11-9 9-9 8-7 26-24 20-18 3-2 5 2 24-1 10 1 1-5 1 3 46 1 3 1z" fill="#FBD858"/>
<path transform="translate(581,290)" d="m0 0h1l1 6 1 46 7-2-6 7-10 9-2 2-1 4h-2l-1-3-7 1-5 3-3 6-1 7-8 7-13 12-11 9-4 4-1 4 6-2 3-3h2v-2l8-7 14-14h3l-1 12-4 9-6 11-10 10-14 7h-23l-18-2-30-7-4-1v-2l-12-2-2-5v-8l3-15 4-4 10-2 5-5v-10l-2-17-4-9-1-1 1-9 2-4v-6l-4-6-6-7 1-5 10-3 3 1h7l8-3 8-1 20-1 62-2 26-1z" fill="#9AC4FC"/>
<path transform="translate(351,670)" d="m0 0h143v66h86l-3 1-1 4-3 3-16 7-36 12-23 6-31 6-40 3-19 1h-13l-10-1-9-2-5-1 1-2 3-1-1-9-3-12 1-10-4-1-6-21-9-33-2-9z" fill="#F5D9FB"/>
<path transform="translate(340,161)" d="m0 0 7 1 6 4 2 2-1 8h2l5 5 7 6 10 1 3 4 3 10-2 4-4 4v16l1 3 6 5v8l-4 6-12 4-8 7h-2l-1 3h86v1l-87 2-66 2-110 2 2-3-5-6 1-5 1-3v-12l-3-8 3-6 9-3 4-4 5-12 5-2 5 2h13l3-3 8-1 3 3 4 11 2 1v2l13 3 2 2-1 7-2 6v13l3 1v8l-2 2-10 3h50l-1-4-5-3-3-3-11-2-6-7-1-2v-6l4-6 1-5v-13l-6-6v-8l3-7 1-1 11-1 6-6h2l2-5 2-6-1-6 10-6h6l8 6h15z" fill="#C78DF9"/>
<path transform="translate(547,272)" d="m0 0h35l1 3v14l-2 7-102 3-42 1h-65l-64-1-10-1-25-1 1-4 6-2 18-1 14-1 5-1 41-1 1-3h-100l-33 2-29 1h-32l-3 1-8 8-2 4-1 8-1 107 5 2v3h2l1 9-1 2h-2l-1 14v26l5 1 1-13 3-1 2-7 3 1 2-4h3l1-2 3 1 1 2v6l3-1 3 3 2 9 2 5 3 18 1 18 6-1 2 3-2 5-10 11-3 5-9 10-9 13-9 15-7 14-2-4-1-22-1-130-1-42-1-23v-55l2-8 4-6 8-7 10-3 9-1 112-2 60-2 82-2 61-2z" fill="#469AF6"/>
<path transform="translate(266,458)" d="m0 0h7l7 6v9l-9 9-3 15-1 10-4 9-5 1-14-6-5 1-5 2 1 5 2 6 3 1 5 10 1 6h2l9 20 7 10 7 8 13 10 6 4 7 2h10l7-3h10l3 6v2h-54l-8-3v-2l-6-2-11-8-6-5-8-10h-4l-9 16-6 10-9 17-5 11-1 3-2 1h-22l-35-3-2-1 1-12 5-19 5-12 12-23 8-12 8-10 9-10 12-12 10-8 15-8 8-6 2-7 1-8 5-11 3-7h8l6 3 4-1z" fill="#FBD75A"/>
<path transform="translate(529,259)" d="m0 0h53v13l-35 1-54 1-61 2-84 2-58 2-112 2-14 2-8 4-7 8-2 4-1 6v55l1 23 1 42 1 130 1 28-5 14-3 8-2-4-4-18-1-15-1-31-6-32-4-48v-13l4-28 2-9 1-48 1-78 4-7 7-4 4-1 40-2 104-2 108-3 83-2z" fill="#150F45"/>
<path transform="translate(594,135)" d="m0 0h18l20 1 38 1v1l-14 1-1 1 8 2 35 4 8 3-1 4h-2v2l-7-2h-13l-9 4-6 7-3 7h-2l-1 7-5 2h-4v-6h-2l-3-9-4-6-12-6h-11l-10 5-6 7-2 6v14l3 7 5 6 10 4h7l10-3 6-5h3l-1 5h-2l-1 3h-2l-2 6 3 5h-40l1 6 2 1 44 1v1h-42v3h6v1l-10 1-1 34 9 1h38l1-3v-31l-11-1v-1l-23-1v-2l37-1h3l3-2v2l49 1 3 2-14 1-32 1-1 18v17l10 3-2 4-15 14-10 8-6 5-5 5-15 14-11 9-7 6-4 4-7 6-8 2-1-2-1-51v-14l-1-17 1-60v-58l2-4z" fill="#F0AE5F"/>
<path transform="translate(259,283)" d="m0 0h98l2 1-1 4-41 1-5 1-22 1-10 1-4 1h-2l-1 4h31l9 1 62 1 11 1v1l-58 1-35 1h-29l-31 2-22 2-15 1-3 3-3 14 1 18 1 73 1 74 1 11 2 5-4 1-2-18-3-18-3-7-1-9h-5l-2-8-2-1-1 3-3-1-1 3-3 1-1 6-4 1-2 13-5-1-1-28 2-12h2v-11h-2l-1-3-4-1-1-1 1-107 2-10 4-6 5-2 1-3 4-1h31l49-2z" fill="#58BAFC"/>
<path transform="translate(532,612)" d="m0 0 22 1h174l18 1 5 4 1 3v28l-1 4-2 1-10 1-89 1-117 1 1-12 1-16-1-9-3-3z" fill="#CAA1EB"/>
<path transform="translate(478,456)" d="m0 0 7 1 6 5 2 3h21l7 1-1 6-4 9-12 24h-2l-1 5-15 28h-2l-1 5-9 16-7 10-76 1 4-13 2-7 10-3 9-7h7l3-5 5-12v-2l-22-5-2-1 3-11 9-30 3-3 28-2v-2l2-1h7l1-5 3-2 13-2z" fill="#85246D"/>
<path transform="translate(418,309)" d="m0 0h8l10 3 9 8 2 4v6l-4 10-8-5h-9l-6 4-4 7-1 15-4-2-4-6h-6l-3 1 3 9 4 7 2 4 2 1-1 9-8 36-4 13-15 9-9 7-8 13-8 15-1 3-4-2v-2l-4-2-4-6-1-20-9-6-12-6-5-6-2-8v-11l4-13 11-12 13-7 10-3 9-2 4-5 3-9 5-5 6-4h4l1-5 9-14 7-12 9-8z" fill="#130D42"/>
<path transform="translate(664,343)" d="m0 0 1 2 6-1h63l5 3 8 3 2 9 1 7-1 14-1 2-1 11-1 4-1 7-3 1-2 7h-2l-1-5-6 8h-2l1-9 1-2-8 5-4 7-5 3-2 3h-2v2h-2v2l-7 5-4 9-7 3-6 11-2 3-1 9-5 10-2 8-2 4-3-1-3-8-1-13 1-10v-9l-1-5-1 6-3 82-1 18-2 4 2-61 1-38 1-15z" fill="#437CFB"/>
<path transform="translate(134,562)" d="m0 0h1l2 22 5 22-2 13-1 6 2 1-1 9v10l3 6 5 4 10 3 6 1 45 2 11 1 3 2 1 4 31 1 3 8v37l-2 12-8-1-16-9-10-9-5-5-6-8-5-10-7-1-23-1v86h27l8 1v2h-76v-3h34l-1-57v-29l-32-1-7-1-3-10-10-3-5-7-1-8 4-8 5-2v-13l-2-15v-32l3-12 3-6 10-1z" fill="#C243A5"/>
<path transform="translate(399,630)" d="m0 0h94l41 1 1 1v13l-2 9-1 2-6 2-1 6-28 2-3 3h-144l-3-6-7-31v-1z" fill="#1C2261"/>
<path transform="translate(677,269)" d="m0 0 2 1-1 2 95 2v15l-2 30-2 4-7 1-143 1-5 2 14-14 8-7 26-24 10-9z" fill="#FEE8C8"/>
<path transform="translate(670,137)" d="m0 0 88 1 23 1 6 2 1 106-2-4v-4l-2 4-2-5-1-7h-2l-2-18-1-3-8 1h-36l-9 3-1 5-3 3-4 1-2-10-4-3v-5h2v-3l2-2-1-3-3-3 2-5 1-6v-15l-6-10-3-2v-3l2-2-1-2-6-2-35-4-10-3 3-2z" fill="#FDEC57"/>
<path transform="translate(755,601)" d="m0 0 1 2 6 2 6 4 3 5 1 16v7l1 3-1 16-1 3-7 6-4 1h-229l-6-1v-7l4-2h3l1-2v3l16-1 119-1 71-1 12-1v-32l-3-5-2-1-23-1h-177l-14-1-2 2-2-5v-5l3-2 17-1h200l7 1z" fill="#C258BD"/>
<path transform="translate(328,301)" d="m0 0 3 1v1l-39 2-5 2-6 2-6 1v2l-16 5-2 2-1 2h-3v3l-3 1-1-4h3l-3-1-2 6-1 7 1 3h-2v5l-9-1-4 3 4 4-1 3h-3l2 6 2 1-7 1h-5l2 7h-7v21l-4 1-1 2v9l1 13-1 9-1 3-2 2 1 9-3 1v6h-3l2 7h-2l-1 4h-2v3l-2 1-1 7h-3v13l1 6v16l-2 7-2-1-1-3-1-19-1-67-1-77-1-13 3-14 4-4 30-2 21-2 18-1h28z" fill="#71C5FE"/>
<path transform="translate(714,230)" d="m0 0 2 3-5 5-16 15-30 28-8 7-26 24-10 9-11 10-8 7-14 13-1 2 4 1-1 6-5 9-6 7-11 9-2 5-2 15-4 17-9 21-4 6h-2l-2 4-10 10-7 4-3 1-2 2v-4h-28l-6-7-4-2-7 1-13 2-3 1-1 5-9 1v2l-3-1 4-3 5-3 11-8-4-8-4-5v-2h-2l-3-3-4-7-6-4-3-1 1-2 7 2 10 2 17 4 18 2h23l14-7 9-9 8-14 2-6 1-10 1-2-3 1-20 20h-2v2l-6 5h-5l1-5 13-12 8-7 12-11 3-1v-7l4-7 7-4h5l1 4h2l1-5 9-9 8-7 4-2 2-4 4-3h2l2-4 13-11 11-10 8-7 4-2 1-3 8-7 11-9 15-14 10-9 12-11 11-9z" fill="#F0A268"/>
<path transform="translate(732,210)" d="m0 0h44v50l-1 4-46-1-3-1-1-2-1 5-11-1-26 1-2-4 15-14 13-12h2l-1-4-7 7-11 9-13 12-8 7-11-3-1-1v-17l1-18 1-1 32-1 11-1-37-1-7-2v-8h48l4 9h3l2-5 5-5z" fill="#FBD758"/>
<path transform="translate(581,269)" d="m0 0 1 3-35 1-54 1-61 2-84 2-58 2-112 2-14 2-8 4-7 8-2 4-1 6v55l1 23 1 42 1 130 1 28-5 14-3 8-2-4-4-18-1-15-1-31-6-32-4-48v-13l4-28 2-9 1-48h1l1 19 1 1 1-14 2-5 3-20 1-19v-8l3-12v-4l2-2 5-10h2v-2l10-4 10-1h27l55-1 43-2 75-1 48-2 104-2h56z" fill="#2E307B"/>
<path transform="translate(171,546)" d="m0 0v3l7 1v-2h7l18 6 3 2v2l5 2 8 5 1 7 5 1-2 6 2 1-9 15-15 30-1 3-2 1h-22l-35-3-2-1 1-12 5-19 5-12 12-23 8-12z" fill="#F0AE5F"/>
<path transform="translate(302,162)" d="m0 0h6l4 4-3-1h-7l-4 2-2 6 1 4-3 10-4 1-1 6h-2l2 3 13-5 5-3 9-2h4l1-2h12l8 3 9 5 5 5 3 5-1 3-5-2-3-5-6-4v-2l-6-1-4-2-6-2h-6l-9 5-9 7-2 5 2 3 8 1 12-5 5 1 6 1v2l4 1 3 6 2 10 5 4 1 5h5v-3h2l2-21 2 2 2 9 1 9-1 5v3l-6 9-13 7-10 2v3h-3v-2l-5 1-12-3-12-5v-2h-3v-2l-6-2h-4l-1 4v4l4 1 1 5h3v2h2l1 5h-4l-1-4-5-3-3-3-11-2-6-7-1-2v-6l4-6 1-5v-13l-6-6v-8l3-7 1-1 11-1 6-6h2l2-5 2-6-1-6z" fill="#D994FB"/>
<path transform="translate(779,337)" d="m0 0h7l-2 4v88l-2 33-4 27-11 50-6 14-3 21h-1l1-68 1-22 2-119 1-25 1-1z" fill="#F1D4FA"/>
<path transform="translate(229,203)" d="m0 0 4 1 3 5 3 8 2 1v2l13 3 2 2-1 7-2 6v13l3 1v8l-2 2-10 3-4 2-12 1-47 1 2-3-5-6 1-5 1-3v-12l-3-8 3-6 9-3 4-4 5-12 5-2 5 2h13l3-3z" fill="#D995FB"/>
<path transform="translate(594,135)" d="m0 0h18l20 1 38 1v1l-14 1-1 1 8 2 35 4 8 3-1 4h-2v2l-7-2h-13l-9 4-6 7-3 7h-2l-1 7-5 2h-4v-6h-2l-3-9-4-6-12-6h-11l-10 5-6 7-2 6v14l3 7 5 6 10 4h7l10-3 6-5h3l-1 5h-2l-1 3h-2l-2 6 2 3-39 1-1 1-1 8-7 2-5-2v-2h-5v-48l-1-18v-13l2-4z" fill="#FCE154"/>
<path transform="translate(309,667)" d="m0 0 2 2 29 1 2 6 12 50 2 9v6l-10 7-4 3h-3l-2 4-4 2-2 4-4 5-4-4-20-2h-6l-1 2-5-2-2-1 1-11 4-16 1-2 4 2 15 16 3 3 7-1 6-1-3-9-10-18-6-10-7-11v-4h-2l1-12-2 5v4l-6 2v-10l-7-13v-3l5 1 1-1 9-1 3-1v2h2z" fill="#F5D9FB"/>
<path transform="translate(512,362)" d="m0 0 5 2 1 5 1 4 9-3 2-1 6-1 3 4-6 4-3 1-1 2-10 1 1 6-4 2h-4l-1 5-3 5v5l5 6 1 2h7l4-4h2v-2l8-7 14-14h3l-1 12-4 9-6 11-10 10-14 7h-23l-18-2-30-7-4-1v-2l-5-1 3-1 8 3-3-6v-3h-2v-5l4-1 3-16 5-3 3-2 1 12-5 3v6l2 1v5l7 2h5l5-1 2-5 3 2 1-5h-2l1-6 2-4-1-8-1-2 2-1v-8l2-3 6-1 1-8h9l5 3z" fill="#A5C1FA"/>
<path transform="translate(563,665)" d="m0 0h12l1 3 4 3 2 8-1 26v11l-1 7-3 4 1 2-3 1-2-1v2l-6-1-3-5-2 7h-32l-2-3-1-13v-46l1-2 8-2z" fill="#A42470"/>
<path transform="translate(230,570)" d="m0 0 5 1 10 12 14 10 6 3-2 2 2 2 9 2v2l-7 1-2 2-1 9 46 2 3 1v7l-2 6-76-1-25-3-7-1-2-5 8-16 10-18 8-13z" fill="#468FF5"/>
<path transform="translate(426,334)" d="m0 0h9l6 4 6 9 2 6 2 17v10l-4 5-4 2-10 2-3 11-1 6v8l2 6h-2l-2 4-9 6-9 3-12 1-2-1 5-16 8-38 1-4-3-1-5-10-3-5v-5l3-2h6l6 8 2 1v-15l6-9z" fill="#EFA169"/>
<path transform="translate(149,415)" d="m0 0 6 2v3h2l1 9-1 2h-2l-1 14v26l5 1 1-13 3-1 2-7 3 1 2-4h3l1-2 3 1 1 2v6l3-1 3 3 2 9 2 5 3 18 1 18 6-1 2 3-2 5-5 6h-2l-2-4-11 6-7 8-5 4-3 4h-2v2l-2 1-1 3h-2l-1 2h-3l-1-27v-34l-1-4v-8l1-3-1-2-1-24z" fill="#48AAF8"/>
<path transform="translate(369,453)" d="m0 0 4 1 5 5 8 10 3 6 1 7-8 7-12 22-3 8v7l5 6 8 3 6 2 1 3-7 15-3 8h-6v-6l-2-2-12-2-13-10-3-4-2-6v-12l6-21 8-19 10-19z" fill="#EFA269"/>
<path transform="translate(755,601)" d="m0 0 1 2 6 2 6 4 3 5 1 16v7l1 3-1 16-1 3-7 6-4 1h-229l1-2 7-1-1-5 171-1 35-1 10-2 1-22-1-14-1-4-12-2-22-1-5-1-1-3 17-3 25-1z" fill="#C240A3"/>
<path transform="translate(306,567)" d="m0 0 53 1 10 1 3 3-11 26-3 3h-31l-3-7h-10l-7 3h-10l-8-3-10-7-11-9-5-6v-4z" fill="#468EF4"/>
<path transform="translate(303,684)" d="m0 0h1l-1 8-1 5h2l3 7 8 13 14 25 1 7-8 3h-5l-13-13-7-8-2-1-4 18-2 11 5 2 4 2 1 5-6 1-10 2h-13l-16-1-5-3 1-8 6-6 10-2 4-16 2-7 3-15 2-4h2l7 8 3 1 1-7 4-14 4-3h3l-1-5z" fill="#D78FF2"/>
<path transform="translate(752,340)" d="m0 0h10v25l-2 119-1 22-1 54-2 41-1 2h-7l-2-2 1-67 2-70 2-72z" fill="#28276A"/>
<path transform="translate(619,324)" d="m0 0h143v1l-19 1 6 5-2 5 3 1 21 1v1l-8 1-27 1-76 1-35 1h-23l-2-1 1-4 7-7 5-4z" fill="#F0AE5F"/>
<path transform="translate(352,267)" d="m0 0h6l1 1v5h-29v2h43v1l-75 1-43 2-69 1h-13l-10 1-6 3h-4v2h-2l-1 4-3 6-2 3-2 12-1 8v11l-2 17-2 15-2 4v7l-2 18h-1l-1-12v-97l4-7 7-4 4-1 40-2h49v1l-30 1 2 1 14 1 4 1v2h2l1-2 3 1 5 1v-2h5 4l1 2h32l11-1h11l5-1v-3h5v4l2-1-1-3 9-1 1-1z" fill="#1F2363"/>
<path transform="translate(431,523)" d="m0 0 8 1 1 3-2 1 1 8h2v2l14 2 10 2 2-1 2 1 1-2 1-1h8l1-2 5-1-2 7-9 16-7 10-76 1 4-13 2-7 10-3 9-7h7l3-5z" fill="#781F6D"/>
<path transform="translate(491,464)" d="m0 0 5 1h18l7 1-1 6-4 9-12 24h-2l-1 5-5 2-4 4-6 2-9-3-5-3v-2l-4-2-8-6-4-4-5-3-8-4-1-5 2-4 5-1h5v-2l32-2 6-1z" fill="#8F2570"/>
<path transform="translate(259,283)" d="m0 0h98l2 1-1 4-41 1-5 1-19 1h-31l-88 3-9 2-3 6-1 4h-2l2 6v19l-2 9-1 1v37l1 30h-4l-4-2-1-2v-96l2-10 4-6 5-2 1-3 4-1h31l49-2z" fill="#70C5FE"/>
<path transform="translate(532,612)" d="m0 0 22 1h174l18 1 5 4 1 3v28l-1 4-2 1-10 1-89 1-117 1 1-12 1-14h1l1 19h184l18 2 10-1 1-10-4-3 4-1-1-18-6-1-58 1-142-1v-2l-6 1-2 4-4-4z" fill="#B978D7"/>
<path transform="translate(513,664)" d="m0 0h12l11 2-4 2h-4v55l2 9h-3l-1-6-4-1-2 2h-3l-3-3-2 4-9 1-3-4 1-3-1-4-2-3v-4h-2v25h-2v-66h-133v-1l135-1 1-3z" fill="#85246D"/>
<path transform="translate(340,655)" d="m0 0 3 1v2h2l1 5h2l2 5 11 1 125 1v1h-130l-5-1 4 20 8 29 5 18v3l4 1v10l4 16v5l-5 3-6-1-11-4-11-1-8 5-5-2-2-4v-5l5-6 5-4 1-2 7-4 8-6h2l-8-36-8-34z" fill="#D490F6"/>
<path transform="translate(178,400)" d="m0 0h8l2 1v3h2l1-2 1 5v20l1 63 1 11 2 5-4 1-2-18-3-18-3-7-1-9h-5l-2-8-2-1-1 3-3-1-1 3-3 1-1 6-4 1-2 13-5-1-1-28 2-12h2v-11l3-4 4-10 4-4h10z" fill="#58B5FC"/>
<path transform="translate(629,272)" d="m0 0h38l-1 3-8 7-11 9-6 5-5 5-15 14-11 9-3 3-2-1 1-2-5-1-3-2v-16l1-27 3-5z" fill="#FEE8C8"/>
<path transform="translate(222,669)" d="m0 0h33l3 8v37l-2 12-8-1-16-9-10-9-5-5-6-8-5-10-7-1v-1h21l1-11z" fill="#F4D8FB"/>
<path transform="translate(621,152)" d="m0 0h11l12 6 4 5 3 6 1 5v7l-6 12-8 7-10 3h-7l-10-4-7-8-2-6v-14l3-7 6-7z" fill="#FDFAF9"/>
<path transform="translate(372,281)" d="m0 0h12l6 1 17 1 9 2 11 1 3 2-1 6-1 4 9 1v1h-65l-64-1-10-1-25-1 1-4 6-2 18-1 14-1 5-1 41-1 1-3-40-1v-1h44z" fill="#48AAF8"/>
<path transform="translate(744,152)" d="m0 0h16l9 5 6 10 1 4v9l-5 12-8 7-5 2h-15l-6-3-7-6-3-5-1-4v-13l4-8 8-7z" fill="#F8F6F9"/>
<path transform="translate(683,152)" d="m0 0h13l10 5 6 9 1 2v15l-5 10-6 5-7 3-13 1-8-4-7-8-4-9 1-10 5-10 8-7z" fill="#FDFBFB"/>
<path transform="translate(171,546)" d="m0 0v3l7 1v-2h7l18 6 3 2v2l5 2 8 5 1 7 5 1-2 6 2 1-3 5h-3l-2 4-8 15-4 2-3-15h-2l-3-6-12-6-4-3-15-2-6-2-1 4h-2l-1 2-1-1 1-7 8-14z" fill="#F7C858"/>
<path transform="translate(399,630)" d="m0 0h94l41 1 1 1v13l-1 6h-1v-10l-1-1h-66l-111 1h-8l-5 1-2-11z" fill="#2E317C"/>
<path transform="translate(603,226)" d="m0 0h36l11 1 1 1v31l-2 4h-41l-6-2v-34z" fill="#FFE8C7"/>
<path transform="translate(773,225)" d="m0 0h2v34l-1 4h-45l-2-2v-34l3-1z" fill="#FFEBC4"/>
<path transform="translate(537,640)" d="m0 0h212v6l-1 2-5 1h-203l-3-5z" fill="#CAA2EB"/>
<path transform="translate(266,458)" d="m0 0h7l7 6v9l-9 9-3 15-1 10-4 9-5 1-14-6-2-2 1-8v-18l-7 1-2 2 1-8 5-11 3-7h8l6 3 4-1z" fill="#FDFAFB"/>
<path transform="translate(443,103)" d="m0 0h35l28 2 38 7 26 7 16 7 10 7 4 2-16 2-1 3v58h-1l-2-53-1-9-1-2-8-2-3-3-7-3-11-3-7-2-13-2-4-2-14-2-6-4-25-3h-34l-21 3-19 3-16 3-9 1-9 2h-3v2l-2 1-9 1-8 3-9 4-1 1-7 1-3 1-1-3 25-9 28-9 40-8z" fill="#FCE7F7"/>
<path transform="translate(547,272)" d="m0 0h35l1 3v14l-2 7-31 1h-26l2-3 5-1h7v-2l9-6 6-3v-3h-11l-26-1h-14l-16 1-50-1h-43l-18 1-39 1h-46v-1l60-2 82-2 61-2z" fill="#458BF3"/>
<path transform="translate(230,570)" d="m0 0 5 1 7 8-1 2 1 3 6 7 5 5 7 4 1 5-2 5-4 3h-2v3l-5 3-12 2h-16l-5-2-2-3-1-7-3-1 2-6 8-14 8-13z" fill="#4699F6"/>
<path transform="translate(537,616)" d="m0 0h6v2h143l59-1 5 2v18l-2 2v1h-211l3 9 12-1h196l1-8 2 1-2 10-12 2-18-2h-182l-1-5-1-25zm0 3-1 5 1 13 172 1 37-1 3-1v-14l-1-3z" fill="#C489F3"/>
<path transform="translate(548,602)" d="m0 0h200l2 2-20 1-17 3-13 1-5 1-10 1h-28l-30-1-5-1-3 1h-20l-39-2h-25l-2 4-3 3-2-5v-5l3-2z" fill="#8C55B3"/>
<path transform="translate(584,167)" d="m0 0h9l3 3h2l4 5 2 14 6 8 7 4 4 1h7l10-3 6-5h3l-1 5h-2l-1 3h-2l-2 6 2 3-39 1-1 1-1 8-7 2-5-2v-2h-5z" fill="#F7C858"/>
<path transform="translate(145,306)" d="m0 0h1l1 29 1 2 2 109 1 22 1 3-1 4v8l1 5v55l2 1h4l1-4h2v-2l5-5 9-8 5-5 10-5 2 6-4 4-3 5-9 10-9 13-9 15-7 14-2-4-1-22-1-130-1-42-1-23z" fill="#499AF6"/>
<path transform="translate(226,630)" d="m0 0 84 1-2 12-6 23-2 3h-13l-10-16-7-7-6-4-3-3-10-4-25-4z" fill="#1C2262"/>
<path transform="translate(239,482)" d="m0 0 5 1v18l-1 8-4 3-5 2 1 5 2 6 3 1 5 10 6 20 3 4v2h-3v-3l-4-2-7-11-3-6-4-6-10-6-2-1-1 2-3-2-1-6h2l-2-4-4-1-4 1 1 5-6 3-7 3h-7l6-7 3-4 5-5 8-6 13-7 8-6 4-10z" fill="#FDEC5B"/>
<path transform="translate(665,226)" d="m0 0h44l5 2-1 4-14 13-11 9-10 10-4 2-10-3-1-1v-17l1-18z" fill="#FEEAC4"/>
<path transform="translate(594,135)" d="m0 0h18l18 2-4 2-1 2h3v2h3v3l5 1-1 2h-4v2l5 1 4 2-1 2-7-3h-11l-10 5-6 7-3 10-2 1-2-2v-4l-3 1-2-3h-8l-2 3-1-18v-13l2-4z" fill="#FBD858"/>
<path transform="translate(617,325)" d="m0 0h28l11 2v2h3v2l4-1 1 2 7 2h8l4 1 13 1v2l66 1v1l-26 1-76 1-35 1h-23l-2-1 1-4 7-7 5-4z" fill="#F0A268"/>
<path transform="translate(359,240)" d="m0 0 3 1v3l7-1-1 5-4 2v5l-3 4h-2l-1 3h86v1l-87 2-66 2-45 1h-18v-1l12-1 37-1 20-1v-4h-2v-2h-3l-2-5-3-1-1-6 2-3 7 1 3 2v2h3v2l18 6 11 1v2h3v-3l10-3 11-6h2l2-4z" fill="#CD84EF"/>
<path transform="translate(418,309)" d="m0 0h8l10 3 9 8 2 4v6l-4 10-8-5h-10l-4-2-5 1-9 5h-2l-3-5-6 5-2-4-1 4h-3l2-5 8-14 9-8z" fill="#1D2262"/>
<path transform="translate(388,482)" d="m0 0h2l3 8 2 14 1 21h2v7h-2v-3l-5 2-2 5-3 2-6-2-8-3-6-7v-7l5-12 11-19z" fill="#95BDF2"/>
<path transform="translate(406,513)" d="m0 0 1 2 16 3 9 3-3 9-4 9-2 2h-7l-9 7-10 2-3 15-3 5h-10l1-5 13-29 1-4h2v-7h-2v-8h1v5l5-2 2-4z" fill="#EFA16B"/>
<path transform="translate(692,138)" d="m0 0h66l23 1 6 2v68l-2 4-2-14-1-8-7-2-1 2-1-5 1-3h2v-2h2l-1-11 3-2 1-9-3-8-1-3-9-1h-25l-6-1-30-2-6-1v-2l-9-1z" fill="#FEF35F"/>
<path transform="translate(658,220)" d="m0 0 1 2 49 1 3 2-14 1-32 1-1 18v17l10 3-2 4-5 4-16-2-3-1-4-1-3-1v-2h-4v2l-8 1-5-1v-2h-11l-9-1v-1h45l1-5v-31l-11-1v-1l-23-1v-2l37-1h3z" fill="#F6C559"/>
<path transform="translate(660,307)" d="m0 0h11l7 3 2 4v3h2v2h32l27 2h21l6-1 1-5 1-8h1v12l-2 4-7 1-143 1-5 2 7-7 13-3 9-4 12-5z" fill="#FEE2C6"/>
<path transform="translate(212,515)" d="m0 0 5 2 1 4h-2l2 6h3l6 2 7 5 6 9 6 11 5 5v3l5 1-3 1-1 2v-2l-4 1-6-7-6-2-1 2h-2v-2l-4-1-1-3-5-2-9-9-3-1v-2h-12l-10 2-4-2-1-6 4-4 10-2 5-2h3l2-4v-3z" fill="#FDE254"/>
<path transform="translate(532,612)" d="m0 0 22 1h174l18 1 5 4 1 3v28l-1 4-2 1h-10l1-2 9-1 1-10-4-3 4-1-1-18-6-1-58 1-142-1v-2l-6 1-2 4-4-4z" fill="#BA79D8"/>
<path transform="translate(145,627)" d="m0 0 28 2 25 1v4l-4 5-2 3 1 3h2l4 5v3l-6 1v-2l-9 2h-10l-4-1-6-1-6-3v-5l-1-2 1-2-6-2-4-1-3 1-3-10z" fill="#9C1F6F"/>
<path transform="translate(229,203)" d="m0 0 4 1 3 5 3 8 2 1v2l3 1v2h7l3 2-1 4-4 1h-3l-5 1-1-2-7-4-3-3-10-1-15 2-6 3h-2l-2 4h-2l-1 7-2 2h-3l-1 3-3-7-3-6 4-5 7-2 4-7 3-8 5-2 5 2h13l3-3z" fill="#D88CF9"/>
<path transform="translate(259,679)" d="m0 0 2 4 1 4h2l2 5 5 4 6 8-1 9-4 20-2 5-3 13-3 2h-9l-2-6 2-11 3-34z" fill="#78226F"/>
<path transform="translate(736,340)" d="m0 0h16l1 5-2 77-2 82-1 30-1 67-1 1h-95v-1l37-1h48l6-1v-19l2-47v-12l1-9 2-41 1-48 3-80-86 2-1-3z" fill="#3A59D7"/>
<path transform="translate(785,728)" d="m0 0 2 1 2 6-17 1h-185l-7-1v-1l25-1 1-1 38-1 18-1h78l30 1 12-1h3z" fill="#651F67"/>
<path transform="translate(772,188)" d="m0 0 2 2 5-1 4 4 3 16h1l1 22v16l-2-4v-4l-2 4-2-5-1-7h-2l-2-18-1-3-8 1h-38l1-2h4l1-3-3-9 10 3h15l8-4 5-6z" fill="#FDED5B"/>
<path transform="translate(303,700)" d="m0 0 4 4 8 13 14 25 1 7-8 3h-5l-13-13-7-8-1-1v-8l6-21z" fill="#AA2B76"/>
<path transform="translate(131,360)" d="m0 0h1l3 146v32h-1l-6-32-4-48v-13l4-28 2-9z" fill="#CFA9E6"/>
<path transform="translate(581,269)" d="m0 0 1 3-35 1-54 1-61 2-84 2-58 2-112 2-14 2-8 4-7 8-2 4-1 6h-2v-8l2-2 5-10h2v-2l10-4 10-1h27l55-1 43-2 75-1 48-2 104-2h56z" fill="#2E317C"/>
<path transform="translate(705,640)" d="m0 0h44v6l-1 2-5 1-16-2v-2h-159l-4-1 1-3z" fill="#D6A6F7"/>
<path transform="translate(714,230)" d="m0 0 2 3-5 5-16 15-30 28-8 7-26 24-10 9-11 10-8 7-15 14-8 7-4 2v2l-3 1v-6l10-10 8-7 4-2 2-4 4-3h2l2-4 13-11 11-10 8-7 4-2 1-3 8-7 11-9 15-14 10-9 12-11 11-9z" fill="#20154F"/>
<path transform="translate(753,344)" d="m0 0h1l-1 126v19l1 19 1 8-2 12v7l1 3h-3l1 28-1 36 4 1h-7l-2-2 1-67 2-70 2-72 1-47z" fill="#2E307B"/>
<path transform="translate(752,340)" d="m0 0h10v25l-3 100-2 6h-1l-1-13v-19l-1-9-1-27v-54l1-5h-2z" fill="#141046"/>
<path transform="translate(581,290)" d="m0 0h1l1 6 1 46 7-2-6 7-10 9-2 2-1 4h-2l-1-3-7 1-5 3-3 6-1 7-3-3v-3l-2 4h-5l-3-2v-5l6-4h7l3-1v-2l5-2 4-3h3l-2-17v-7l4-1 2-4 3-3 1-13 3-10z" fill="#A4BFFA"/>
<path transform="translate(727,285)" d="m0 0 9 2 1-2 8 5 1 3h2v-2l7 1 1 2-1 2h-2v2l-5 1 1 7 7-2 4 3-2 5-4 5h-2v2l-3 1v-2l-6-1-6-6-1 3 4 3-5-1-8-8 1-2 7 1-1-5-9 1-5-2-2-5h-3l1-8h2l2-2 8 2z" fill="#FFEAC5"/>
<path transform="translate(452,354)" d="m0 0 1 2h2l2 6 1 24-3 3-4 2-3 16-4 1-1 5h2l1 4 2 2v3l-8-2-10-1-2-5v-8l3-15 4-4 10-2 5-2 2-5-1-22z" fill="#91BCF3"/>
<path transform="translate(342,266)" d="m0 0h13l-3 2-30 1-5 1h-5l3 4h-4l-1-3-4-1 1 3-7 2h-12l-17 1h-19l-6-2h-4l-5-1v2h-11v-2h-9l-26-2v-1l15-1 30-1 10-1z" fill="#130E43"/>
<path transform="translate(323,204)" d="m0 0 5 1 6 1v2l4 1 3 6v10l-3 6h-2v2l-6 3h-10v-2l-5-1-4-4-1-3v-8l6-9 4-2z" fill="#D7A6F8"/>
<path transform="translate(478,456)" d="m0 0 7 1 6 5 1 4v10l-6 2-13 1h-19l-5-1v-6l4-2 1-4h5l1-5 3-2 13-2z" fill="#4B81FA"/>
<path transform="translate(171,682)" d="m0 0h4v86h28l8 1v2h-76v-3h34l-1-57 1-25z" fill="#822370"/>
<path transform="translate(717,182)" d="m0 0h6l4 1 3 7 4 5 4 4h-3l2 8h-2v2l-8 3-4 2-1 5-3 3-4 1-2-10-4-3v-5h2v-3l2-2-1-3-3-3 2-5 1-6z" fill="#FCE254"/>
<path transform="translate(567,671)" d="m0 0 12 1 2 2 1 11-1 20-1 10-6 5-6 2-1-4-1-10-1-25 1-11z" fill="#A42470"/>
<path transform="translate(773,304)" d="m0 0h3l3 1 1 5 2 12 1 13-1 2-3 1h-29l-6-2 4-4-5-5-15-1v-1h34v-2l7-1 1-3 1-13z" fill="#F7C858"/>
<path transform="translate(149,584)" d="m0 0 1 4-1 3v8l1 10 6-2 10 6 2 6 12 7 3 1h12l6-5v5l-3 2h-22l-35-3-2-1 1-12 5-19z" fill="#EFA16A"/>
<path transform="translate(496,711)" d="m0 0h2l2 5 2 2v6 2l1 3 9-2 2-4 3 3h3l2-2 4 2 1 6h37l-1-3 2-2 1 4 8 1h6l1-3h3l1-2 1 3 3 1v2l10-2 5 1 1 2-18 1v1h-91l-1-1v-17z" fill="#781F6C"/>
<path transform="translate(629,272)" d="m0 0h38l-1 2h-19l-8 2-28 1-7 2v17h2l2-7 4-3 8 1h4l-1 5-4 4h-2l-2 5-3 3h-8v10l2 7 3 4-4 2 1-3-5-1-3-2v-16l1-27 3-5z" fill="#FEE2C6"/>
<path transform="translate(223,282)" d="m0 0h59v2h-23l-33 2-29 1h-32l-3 1-8 8-2 4-1 8-1 94h-1l-1-7-1-58-1-2v-35l5-8 6-6 9-2h17z" fill="#49AAF8"/>
<path transform="translate(773,225)" d="m0 0h2v18l-1-3-8-4-5 4-10-1-11 1-3-2-3 1-2 4h-2l-1 9h-1l-1-17v-8l3-1z" fill="#FFF2BF"/>
<path transform="translate(564,685)" d="m0 0 2 1 1 22 1 10 2 3 6-3 2-3 3 1-1 7-3 4 1 2-3 1-2-1v2l-6-1-3-5-2 7h-32l-2-3-1-10 2-2 2 7 10-4 4 1 6 1 2-5 1 2 3-1 1 2 5-2v-25z" fill="#9D1F6F"/>
<path transform="translate(145,306)" d="m0 0h1l1 29 1 2 2 109 1 22 1 3-1 4v8l1 5v33l-1 5v37l1 4-1 2 2 1 2 4-4 8-2-4-1-22-1-130-1-42-1-23z" fill="#4283EC"/>
<path transform="translate(295,730)" d="m0 0 4 2 15 16 9 8 3 5-1 2-2-1-20-2h-6l-1 2-5-2-2-1 1-11 4-16z" fill="#F6DAFC"/>
<path transform="translate(469,385)" d="m0 0 10 2 2 6-1 5-3 8h2l1 3-2 3-2-1-1-1-2 4-7 2-8-1-3-2 1-5-3-1v-6l4-3h2l-1-4z" fill="#7DBEFD"/>
<path transform="translate(725,259)" d="m0 0h1l1 5 12 3 5 1v1l9 1v2l14 1v1h-36l-51-1-2-1 1-5 6-5 5 2 24-1 10 1z" fill="#F6C35A"/>
<path transform="translate(399,477)" d="m0 0 5 2 1 2 1 10 4 2 1-2h2l1-5 2 1-8 26h-2l-2 4-5 5h-2v-5h-2l-2-19-2-10-1-7 2 3 2-4z" fill="#FDEC57"/>
<path transform="translate(277,709)" d="m0 0h2l7 8 1 1-1 9-5 20-2 9h-24l1-3 10-2 4-16 2-7 3-15z" fill="#F8E0F9"/>
<path transform="translate(226,630)" d="m0 0 84 1-2 12-2-3-11 1h-8l-12 2-5-2-8-1-11-5-25-4z" fill="#2E317C"/>
<path transform="translate(583,256)" d="m0 0h1l1 49 1 2 5 2 2 4h2l1-11h1l1 20 8 2-2 5-5 5-7 6-8 2-1-2-1-51v-14l-1-17h2z" fill="#EFA272"/>
<path transform="translate(394,529)" d="m0 0h2v7l-11 24-12 25-8 18-1 1-34-1 1-2 27-1 3-5 12-27 5-10 7-16 4-8z" fill="#1A134C"/>
<path transform="translate(749,653)" d="m0 0m-217 1 1 3 16-1 200-2-1 2-5 1-38 1h-167l2 6-15 1v-7l4-2h3z" fill="#C259BE"/>
<path transform="translate(220,220)" d="m0 0 10 1 9 8 3 11 2 7-4 10-7 9-6 1h-28v-1l19-1 6-4 5-2 3-2 4-9v-9l-3-10-5-2-2-2-5-1h-7l-10 5-4 4-3 8-3 10h-2v-11l2-10 5-5 6-3z" fill="#D7A7F8"/>
<path transform="translate(239,482)" d="m0 0 5 1v18l-1 8-4 3-5 2 1 7-4-2-5-6-13-7 4-3 10-6 5-4 4-10z" fill="#F0A097"/>
<path transform="translate(265,291)" d="m0 0h15l-2 2h-4l-1 4h31l9 1 62 1 11 1v1l-58 1-35 1h-28l-5-3-8-2 1-3h4l1-2z" fill="#58B5FC"/>
<path transform="translate(603,226)" d="m0 0h36l11 1 1 1v31l-2 4h-41l-6-2v-34zm15 2-9 2-3 3-1 5 2 6 1 10 5 5 10 1h23l3-1 1-5-1-5v-15l-5-5-14-1z" fill="#FFE3C6"/>
<path transform="translate(357,739)" d="m0 0 2 1 3 13-4 4-13 10h-2v2l-8 5-5-2-2-4v-5l5-6 5-4 1-2 7-4z" fill="#7B226F"/>
<path transform="translate(513,664)" d="m0 0h12v4l-6 2-6 3-7 2h-5l-3 8-1 28-1 7v18h-2v-66h-133v-1l135-1 1-3z" fill="#873589"/>
<path transform="translate(491,464)" d="m0 0 5 1h18l7 1-1 6-3 7h-3-6v-2h-2l1 3-2 1v2h-4l-1 3-2 1-3-3h-8v-2h-8l-3-1-22-1v-1l32-2 6-1z" fill="#A22B7B"/>
<path transform="translate(537,631)" d="m0 0h19l109 2 5 2v1l-94 1h-39z" fill="#D6A6F7"/>
<path transform="translate(697,226)" d="m0 0h12l5 2-1 4-14 13-11 9-10 10-1-4 1-6 2-4 8-7v-3-3-6l-2-2v-2z" fill="#FBEFC5"/>
<path transform="translate(776,212)" d="m0 0 2 1 1 18h2l3 11 2 4v7l-1 1v20l-3 3-7-4-6-4-16-2-1-2 23-1z" fill="#FCE254"/>
<path transform="translate(550,296)" d="m0 0h28v1l-49 2-36 1-20 1-10 2-6 2h-7l-5-1-8 3 1 7-7-3-5-1h-11l-1-3h2v-3l5-2v-2l16-1z" fill="#7CBEFD"/>
<path transform="translate(515,477)" d="m0 0 1 2-2-1zm-7-2 2 3 4 1-2 6-3 2v4l-7 6-4 1-4-2-3-1v-2l-8-1-16-4-4-2v-3l2-2 11-1 11 2v2l5-1 5 1h3l5-1-1-3 2-1v-2h2z" fill="#9C1F6F"/>
<path transform="translate(422,471)" d="m0 0h14l-1 2h-2v5l-3 3-5 2-3 5-1 5-2 6-1 4 3 2v4l7 2 1 4-4 1-2 1h-8l-8-2 3-11 9-30z" fill="#771F6B"/>
<path transform="translate(728,212)" d="m0 0h48v9l-7 1h-40l-2-2v-7z" fill="#FFF3BF"/>
<path transform="translate(749,640)" d="m0 0 2 1-2 10-12 2-18-2h-182l-1-4 2-3 2 5 12-1h196z" fill="#C78DFA"/>
<path transform="translate(574,376)" d="m0 0 3 1-9 8-2 5-2 15-4 17-9 21-4 6h-2l-2 4-10 10-7 4-3 1-2 2-1-5 10-4 4-5h2v-2l3-1 6-7h2l1-6 2-10 4-14 3-16 1-7 11-13h2v-2z" fill="#F0A096"/>
<path transform="translate(306,567)" d="m0 0 2 1-1 2-9 1v2l7 3 7 2 3 4v2h-9l-1-5-6 1-1 3-8 1-9-3-7-4-2-5 1-2-9-1v-1z" fill="#479BF6"/>
<path transform="translate(677,271)" d="m0 0 3 1 93 2v15l-1 17-3 1-1 2-1-5 1-6 2-6 1-12-8-1h-17l-8 1h-10l-9-2-5-2v-2l-16 1h-8l-5 1-9-3z" fill="#FFEAC5"/>
<path transform="translate(664,213)" d="m0 0h48l1 1-1 7-3 1h-42l-3-1z" fill="#FFF2BF"/>
<path transform="translate(386,478)" d="m0 0 3 1 1 3-8 7-12 22-3 8v7l5 6 8 3 6 2 1 3-7 15-3 8h-6v-6l-2-2-12-2-3-3 4 1h13l6-2 2 1 2-7-2-6-9-3-5-6-1-9 4-16 2-6 4-8 4-3 6-2z" fill="#F0A097"/>
<path transform="translate(713,235)" d="m0 0h1v22l-1 5-6 1h-22l2-4 12-11z" fill="#FBE7CD"/>
<path transform="translate(426,334)" d="m0 0h9l6 4 6 9 2 6 2 17v10l-4 5-4 2-10 2-3 11-1 6v8l2 6-3 1-2-6v-12l2-11 2-7 5-3 6-1 2-3 3-11 1-7-3-10-4-2-2-5-5-5v-3l-9 3-5 2 5-5z" fill="#F0A097"/>
<path transform="translate(736,340)" d="m0 0h16l1 5-2 77-1 42-1 7h-1v-48l3-80-86 2-1-3z" fill="#3A59D7"/>
<path transform="translate(352,267)" d="m0 0h6l1 1v5h-29v2h43v1l-94 1 1-2 10-1h11l5-1v-3h5v4l2-1-1-3 9-1 1-1z" fill="#1B2160"/>
<path transform="translate(604,212)" d="m0 0h46l1 1v6l-2 2h-44l-3-2v-6z" fill="#FFE3C6"/>
<path transform="translate(446,339)" d="m0 0 4 1 6 4 6 16 1 5 2 5v10l-4 8-1-2h-2l-1-2-1-22-1-6h-3l1 23-3 5h-3l3-4v-10l-2-17-4-10 3-1z" fill="#AEC4FB"/>
<path transform="translate(543,411)" d="m0 0 1 3-7 9-6 7-14 7-11-2-34-1-9 3-6-1-6-5-5-5-5-2 1-2 7 2 10 2 17 4 18 2h23l14-7 9-9z" fill="#F0A096"/>
<path transform="translate(772,640)" d="m0 0 7 1 8 6 1 11-3 7h-17v-3l3-6z" fill="#171248"/>
<path transform="translate(489,462)" d="m0 0h2l1 4v10l-6 2-13 1h-19l-5-1v-6l4-2 1-4h7l3 1 3 3 6 1v2l9-3v2l8 1z" fill="#3B59D7"/>
<path transform="translate(255,475)" d="m0 0 7 1 7 2 1 2-3 15-2 2-6 2h-6l-2-3v-9l1-10z" fill="#F0AE5F"/>
<path transform="translate(418,309)" d="m0 0h8l10 3 9 8 2 4v6l-2 2-4-1v-3h-2l-2-3-5-1-3-3v-2h-2v-2h-8l-7 2v-2l-2-2v-1l-2-1 6-3z" fill="#2E317C"/>
<path transform="translate(125,445)" d="m0 0 2 1 2 14 2 3 1 9v37l2 13v9l-2-4-4-21-4-48v-12z" fill="#FDFAFD"/>
<path transform="translate(253,755)" d="m0 0 24 1v7l-1 5-6 1h-18l-3-2 1-8z" fill="#782671"/>
<path transform="translate(309,667)" d="m0 0 2 3-5 16-3 11h-1l1-12-2 5v4l-6 2v-10l-7-13v-3l5 1 1-1 9-1 3-1v2h2z" fill="#D88EF8"/>
<path transform="translate(537,616)" d="m0 0h6v2h154l-1 2h-152l-7-1-1 3v-5z" fill="#C78DFA"/>
<path transform="translate(549,384)" d="m0 0h3l-1 12-1 3-5 5-2 3-5 3-7 6-3-2-1-3 1-3-1-3 8-7 10-10z" fill="#8CB8F3"/>
<path transform="translate(563,665)" d="m0 0h12l1 3 4 3-1 2-12-1-1 11h-3l-1-12-6 1-5-1-7-1-16 1 1 32h-2v-33l1-2 8-2z" fill="#9C1F6F"/>
<path transform="translate(414,486)" d="m0 0 2 1-8 26h-2l-2 4-5 5h-2v-5h-2l-2-23 3 3 5 2 6 6 4-14h2z" fill="#FCDE55"/>
<path transform="translate(581,269)" d="m0 0 1 3-35 1-54 1-61 2h-13l-19-1v-1l21-1 104-2h56z" fill="#2A2D76"/>
<path transform="translate(211,606)" d="m0 0 1 3-2 8v5l10 4 6 1 22 1 3 1 59 1v1h-75l-25-3-7-1-2-5 7-14h3z" fill="#4372EE"/>
<path transform="translate(118,643)" d="m0 0h3l3 11 1 13-1 1h-6l-5-5-3-7 1-7 3-5z" fill="#303270"/>
<path transform="translate(730,617)" d="m0 0h15l5 2v18l-2 2v1l-99-1v-1l60-1 40-1-1-14v-3l-35 1h-16v-2z" fill="#C184EB"/>
<path transform="translate(242,280)" d="m0 0h40l-1 2-58 1-42 2h-15l-7 1 2-2 8-2 9-1z" fill="#417DED"/>
<path transform="translate(551,376)" d="m0 0 2 3v4l-4 2-20 20h-2v2l-6 5h-5l1-5 13-12 8-7 12-11z" fill="#19154F"/>
<path transform="translate(668,337)" d="m0 0h28v1l66 1v1l-26 1-81 1-4-2 14-2z" fill="#E5A3A3"/>
<path transform="translate(137,276)" d="m0 0 5 1-2 10-5-1v41l-1 25-2 2v-72l2-4z" fill="#120D41"/>
<path transform="translate(324,212)" d="m0 0 6 1 4 4v7l-5 6h-7l-5-4v-10h2v-2z" fill="#C78DFA"/>
<path transform="translate(785,673)" d="m0 0h3v57l-2-1-1 1-2-1 1-3-1-7h-2l2-9v-16l2-14 1-5z" fill="#84236C"/>
<path transform="translate(328,633)" d="m0 0h2l9 32v4h-11z" fill="#1D2363"/>
<path transform="translate(263,597)" d="m0 0 10 3h52l6 1v1l25 1v1l-33 1h-34l-15-2-9-2-3-3z" fill="#8A3081"/>
<path transform="translate(271,737)" d="m0 0 6 3 3 3v11l-1 2h-24l1-3 10-2z" fill="#FBF2F6"/>
<path transform="translate(735,631)" d="m0 0 12 1 2 1v3l-7 1-55-1-1-3z" fill="#D6A6F7"/>
<path transform="translate(157,286)" d="m0 0 2 1-8 8-3 13 1 25 1 1v68h-1l-1-7-1-58-1-2v-35l5-8z" fill="#47A5F7"/>
<path transform="translate(432,275)" d="m0 0h19l-2 2-13 1h-43l-18 1-39 1h-46v-1l60-2z" fill="#3D68E7"/>
<path transform="translate(321,635)" d="m0 0h1v34h-11l3-14 4-15z" fill="#1E2161"/>
<path transform="translate(537,619)" d="m0 0h9l1 1 40 1v4l-46 1-5-2z" fill="#D6A6F7"/>
<path transform="translate(779,337)" d="m0 0h7l-2 4v64h-1l-2-21-2-18v-20l1-7z" fill="#FCE8FA"/>
<path transform="translate(336,279)" d="m0 0h33v1l-11 1-2 1-37 1h-37v-3z" fill="#448EF5"/>
<path transform="translate(232,497)" d="m0 0 5 2 1 5-3 5-4 4 1 3 3 3v2l-4-2-5-6-12-6v-1l8-1 6-7z" fill="#F0A567"/>
<path transform="translate(219,630)" d="m0 0h7l25 4 11 5 6 5 8 7 5 6-1 2-9-10-15-7-13-4-10-3-9-2-5-2z" fill="#7A1F6C"/>
<path transform="translate(476,564)" d="m0 0 5 2h162v1l-35 1h-139l4-2z" fill="#7DBEFD"/>
<path transform="translate(210,235)" d="m0 0 4 1-1 4v7h5l4-3-1-4-2-4 5-1 3 3 1 7-2 4-6 4-5 1-7-4-1-3v-9z" fill="#D7A7F8"/>
<path transform="translate(378,229)" d="m0 0 5 3 2 2v8l-4 6-12 4-5 5-2-1 2-6 4-4-1-9 1-3 6 1 2 5 2 1 1 3h3l1-8-2-4h-3z" fill="#D994FB"/>
<path transform="translate(736,340)" d="m0 0h16l-1 4-4-1-82 2-1-3z" fill="#5857C9"/>
<path transform="translate(377,535)" d="m0 0 8 1 2 4-7 15-3 8h-6v-6l-2-2-12-2-3-3 4 1h13l6-2 2 1 2-7-2-6h-2z" fill="#EFA28B"/>
<path transform="translate(174,766)" d="m0 0 1 2h28l8 1v2h-76v-3h38z" fill="#34285E"/>
<path transform="translate(173,540)" d="m0 0h2l-2 5-6 8-9 15-2 4-4-1-2-8v-8h6l9-4 4-6 2-2z" fill="#5195F5"/>
<path transform="translate(602,211)" d="m0 0 40 1v1h-40l1 6 2 1 44 1v1h-42v3h6v1l-10 1-2 4-1 14-2-4-2-3v-6h2l2-6v-3-10z" fill="#F0B15E"/>
<path transform="translate(565,252)" d="m0 0 9 1 4 3v2l-17 1h-28v-2l-3 1h-8v-2l8-1 8 1h10l2-1 7-1z" fill="#FBE4FB"/>
<path transform="translate(145,306)" d="m0 0h1l1 29 1 2v89h-1l-1-42-1-23z" fill="#3E6DE3"/>
<path transform="translate(388,482)" d="m0 0h2l3 8v8h-1l-2-7-5-2-3 3-8 15-5 11v8l4 2 4 4 9 1 5-1-4 6-13-4-7-6-1-2v-7l5-12 11-19z" fill="#A8C1F9"/>
<path transform="translate(740,342)" d="m0 0h7l4 1v31l-2 3-1-2 1-10-1-9-2-6-9-3-3-2h-30l1-2z" fill="#3D6AF8"/>
<path transform="translate(166,284)" d="m0 0h15l1 1 15 1v1h-32l-3 1-8 8-2 4-1 8-1 26-2-1-1-27 3-11 4-4h2l2-4z" fill="#4FAEF9"/>
<path transform="translate(296,748)" d="m0 0 6 5 3 3 4 2 7-1v-2l3-1 4 2 3 5-1 2-2-1-20-2h-6l-1 2-5-2-1-5 3-5z" fill="#FBE7FA"/>
<path transform="translate(641,166)" d="m0 0 5 4 1 4v8l-4 7-5 5-7 3h-9l-8-3-1-5 4 1v2l14 1 5-3 4-4 2-6z" fill="#C494F2"/>
<path transform="translate(359,755)" d="m0 0 3 1 3 17-17-4-5-1 4-4z" fill="#F8E4FA"/>
<path transform="translate(303,684)" d="m0 0h1l-1 8-1 5h2l-1 4-2 6-3 1-2 8-4 3-2-1-1-5 5-16 4-3h3l-1-5z" fill="#C58AF5"/>
<path transform="translate(689,157)" d="m0 0 11 4 5 4 3 6v13l-4 6-5 5-6 2h-9l-4-1v-2l12-1 8-4 4-5v-12l-4-7-11-6z" fill="#AF78D7"/>
<path transform="translate(209,688)" d="m0 0 3 1 4 8 9 7 7 8 12 6 11 3v4l-4 1-16-8-9-7-8-7-7-10z" fill="#FCE7FB"/>
<path transform="translate(389,550)" d="m0 0h2l1 3h2l2-2-1 10-3 8-1 1h-10l1-5z" fill="#FAD365"/>
<path transform="translate(475,454)" d="m0 0h13l3 2v2h2v2l17 4v1l-17 1-6-7-4-2-7 1-13 2-3 1-1 5-9 1v2l-3-1 4-3 5-3 10-7h2v2z" fill="#F0A096"/>
<path transform="translate(314,593)" d="m0 0h10l3 6v2h-35v-1h5v-3l10-1z" fill="#F0A095"/>
<path transform="translate(713,237)" d="m0 0h1v20l-1 5-6 1h-22l2-2 9-1 7-1 2 1 4-2v-5l-3-4 2-4 4-5z" fill="#FFE9C5"/>
<path transform="translate(227,662)" d="m0 0 27 3 2 1v3h-32l-1-5z" fill="#612671"/>
<path transform="translate(209,225)" d="m0 0h8l2 3-2 4-8 2-2 4h-3v2h-2l-1 2h-3l1-9 7-6z" fill="#D98BF9"/>
<path transform="translate(350,486)" d="m0 0 1 2-7 18-4 15v12l2 8-3-3-2-7v-18l3-10 2-7 3-5z" fill="#9CBBF6"/>
<path transform="translate(421,301)" d="m0 0h7l10 3-1 7v3l-6-3-5-1h-11l-1-3h2v-3z" fill="#6FC1FD"/>
<path transform="translate(131,360)" d="m0 0h1v64h-2v11l-2 7-1 3h-2v-9l3-19 2-9z" fill="#F1EDFD"/>
<path transform="translate(293,184)" d="m0 0 2 1-3 3h-2l-1 6h-2l2 3h4l-2 5-8 7-4 2-1-3 2-10 7-8 4-5z" fill="#D98BF9"/>
<path transform="translate(765,165)" d="m0 0 3 3 2 6v8l-4 8-3 3-6 3h-11l-8-4-5-6-1-3v-7l2-4 2 14 7 6 9 2 8-3 6-9 1-8-2-5z" fill="#8D56B4"/>
<path transform="translate(562,357)" d="m0 0h7v1l-7 2-5 3-3 6-1 7-3-3v-3l-2 4h-5l-3-2v-5l6-4h7l3-1v-2l5-2z" fill="#B0C4FB"/>
<path transform="translate(342,226)" d="m0 0 4 2 3 3v3h5l-5 8h-3v2l-6 2h-4v-4l5-4 1-2h2z" fill="#D88BF9"/>
<path transform="translate(599,340)" d="m0 0 1 2h25l35-1h34v1l-31 1-4 1-63 1z" fill="#E5D9F7"/>
<path transform="translate(395,536)" d="m0 0h2v3h2l1 4 7 1 2-1-1 4-8 3h-3l-1 2-4 2-2-4 1-5z" fill="#F0B06D"/>
<path transform="translate(426,334)" d="m0 0h9l6 4 6 9 2 6v8l-2-1-3-10-4-2-2-5-5-5v-3l-9 3-5 2 5-5z" fill="#EFA094"/>
<path transform="translate(488,465)" d="m0 0 2 3v5l-8-1v-2l-4 3h-5v-2l-3 1-6-3v-2l-3-1h11l9 1z" fill="#3D6AF8"/>
<path transform="translate(424,310)" d="m0 0h7l8 4 7 8v4l-5-2-6-2-2-4-6-3v-4z" fill="#1D2364"/>
<path transform="translate(330,746)" d="m0 0 2 3 3 8h-2l-2 4-4 5-5-10-3-4 8-3h3z" fill="#F0A198"/>
<path transform="translate(749,640)" d="m0 0 2 1-2 10-12 2-26-3 1-2h36z" fill="#C68CF9"/>
<path transform="translate(156,440)" d="m0 0 3 3 1 15v11l-1 3-4-1v-30z" fill="#71C5FE"/>
<path transform="translate(321,629)" d="m0 0h2l1 39 2-2 1-27h1v30h11l1-3v4h-29v-1h11l-1-32-3 3 2-9z" fill="#AA6ECE"/>
<path transform="translate(414,486)" d="m0 0 2 1-8 26h-2l-2 4-5 5h-2v-5h-2v-10l2 2 1 8 4-1 1-4 4-5 2-10 2-6h2z" fill="#F8CA5B"/>
<path transform="translate(300,205)" d="m0 0 3 3 7 1-1 4-5 5h-3v2l-5 1-1-4 3-11z" fill="#D98BF9"/>
<path transform="translate(711,166)" d="m0 0 2 2v15l-5 10-6 5-7 3h-6l4-2 4-1v-3l5-2 2-4 4-6h2l1-2z" fill="#FDF5EA"/>
<path transform="translate(431,419)" d="m0 0h6l5 2-1 3 5 1 5 4 3 4v3l3 1v2h2l2 5-4-1-4-6-4-7-6-4-11-1-5-1 2-4z" fill="#FAD358"/>
<path transform="translate(532,654)" d="m0 0 1 3h17v1h-12l2 6-15 1v-7l4-2h3z" fill="#9055B3"/>
<path transform="translate(426,424)" d="m0 0 2 1v6l-6 4-9 1-10-2v-1l13-3z" fill="#FDE957"/>
<path transform="translate(252,176)" d="m0 0 2 1-2 3h-2l-2 4-5 2v2l-11 9-7 6-1 2h-2l-1 3h-6l3-2 8-7 12-13z" fill="#FCE9FB"/>
<path transform="translate(324,212)" d="m0 0 4 1-5 1v7l2 3v3l7-1-3 4h-7l-5-4v-10h2v-2z" fill="#D993FB"/>
<path transform="translate(383,578)" d="m0 0h5l1 5-1 4h-2l-2 5-4 2-3-2 1-5 3-8z" fill="#458FF5"/>
<path transform="translate(608,331)" d="m0 0 2 1-2 5 3 2 15 1 1 2-2 1h-23l-2-1 1-4z" fill="#E89C9A"/>
<path transform="translate(478,456)" d="m0 0 7 1 1 2-10 4-17 1 1-3 3-2 13-2z" fill="#4254C4"/>
<path transform="translate(178,281)" d="m0 0h28l-3 3-22 1h-15l-7 1 2-2 8-2z" fill="#417BEA"/>
<path transform="translate(619,213)" d="m0 0h13l1 4 2 2h-14l-12-2-1-3z" fill="#FFF2BF"/>
<path transform="translate(288,670)" d="m0 0 5 1 1-1h7l-2 9-2 6-3-1-6-11z" fill="#FBE5FB"/>
<path transform="translate(325,630)" d="m0 0h2v37h-3v-36z" fill="#D4A6F5"/>
<path transform="translate(525,611)" d="m0 0 2 1 1 5 4 2 2 3v8h-22v-1l14-2 1-7z" fill="#3D6AF8"/>
<path transform="translate(229,203)" d="m0 0 4 1 3 5 2 8-3-3-2-5-9-3v2l-5 2h-9l-5 2v-2l-2-1-3-1-2-1 5-2 5 2h13l3-3z" fill="#D7A7F8"/>
<path transform="translate(632,300)" d="m0 0 4 1-15 14-8 7-2-2 8-10 8-7z" fill="#F1E5CC"/>
<path transform="translate(755,562)" d="m0 0h1v39l-5 1 2-17v-20z" fill="#150F44"/>
<path transform="translate(585,352)" d="m0 0 6 2-1 6-2 2-14 3 1-4 8-7z" fill="#E3989C"/>
<path transform="translate(277,709)" d="m0 0h2l7 8 1 1-1 9-1-4v-2l-4-1h-4l-1 2h-1l-1 5h-1l1-10z" fill="#ECCEF6"/>
<path transform="translate(221,585)" d="m0 0h3l1 2-9 16-2 6-5-1 2-6 8-14z" fill="#5A98F6"/>
<path transform="translate(564,358)" d="m0 0h5l1 4h2v2l-3-1-1-2-4-1-2 5-6 5h-2l1 11-2 2-1-7 2-9 3-5zm-13 25h2l-1 13h-1z" fill="#EE9E97"/>
<path transform="translate(328,633)" d="m0 0h2l5 18-1 2-4-2v18h-2z" fill="#2E317C"/>
<path transform="translate(587,397)" d="m0 0 4 2 3 4v5l-6 2-5 1 1-10h2z" fill="#9BC5FD"/>
<path transform="translate(157,286)" d="m0 0 2 1-8 8-3 13 1 26-2 3-1-2v-35l5-8z" fill="#4593F5"/>
<path transform="translate(649,221)" d="m0 0m-42 1h42v1h-33v2h35v1h-38l-6-1z" fill="#FCD958"/>
<path transform="translate(357,739)" d="m0 0 2 1 3 13-1 2-2-1-8-6v-2l-5 2 5-5z" fill="#8A2975"/>
<path transform="translate(443,386)" d="m0 0h2v2l-8 3-3 2-3 10v9l2 5 4 2h-7l-2-5v-8l3-15 4-4z" fill="#ACC3FB"/>
<path transform="translate(286,283)" d="m0 0h71l2 1-1 4-15-2v-1l-57-1z" fill="#7DBEFD"/>
<path transform="translate(664,342)" d="m0 0h51v1l-10 1-40 1z" fill="#3A59D7"/>
<path transform="translate(137,276)" d="m0 0 5 1-2 10-5-1v7l-3 1v-12l2-4z" fill="#1A144A"/>
<path transform="translate(313,591)" d="m0 0h8l5 2 4 7-4-1-2-5h-10l-7 3h-10l-8-3-1-2 12 2z" fill="#A5C1FB"/>
<path transform="translate(466,418)" d="m0 0h6l3 3v6h-6l-7-2-4-3h3v-2z" fill="#91BCF3"/>
<path transform="translate(157,433)" d="m0 0h2l2 5-1 20h-1l-1-15-2-2-1 30h-1l-1-28 2-9z" fill="#58BAFC"/>
<path transform="translate(176,768)" d="m0 0h27l8 1v2h-33z" fill="#261C4C"/>
<path transform="translate(321,635)" d="m0 0h1v34l-4-1 1-1v-6l-1-4 2-12h-2l-1 2 1-7z" fill="#2D307B"/>
<path transform="translate(360,554)" d="m0 0h9l3 4v4l4-1-1 6-3 2-4-2-2-7-3-4z" fill="#A9C3F8"/>
<path transform="translate(273,756)" d="m0 0h4v7l-1 5-9 1-5-1v-2l9-2v-7z" fill="#2B1F5F"/>
<path transform="translate(359,755)" d="m0 0 3 1 3 17-6-2-2-5v-7l-2-1z" fill="#F4D8FB"/>
<path transform="translate(230,570)" d="m0 0 5 1 7 8-1 2-4-4-5 1-8 7-2-1z" fill="#719FF5"/>
<path transform="translate(503,466)" d="m0 0h18l-1 6-3 3-7-3-1-2-6-3z" fill="#9D206F"/>
<path transform="translate(263,597)" d="m0 0 10 3 8 1 1 1 35 1v1l-10 1h-18l-15-2-9-2-3-3z" fill="#8E51B3"/>
<path transform="translate(670,222)" d="m0 0 38 1 3 2h-45v-2z" fill="#F7C858"/>
<path transform="translate(774,180)" d="m0 0 1 3-5 10-7 6-5 2h-15l-3-2h14l7-3h3v-2l3-3 1-2h2l2-6z" fill="#FFF3BF"/>
<path transform="translate(115,656)" d="m0 0 3 3v-2l3-1 1 5 3-1v7l-1 1h-6l-3-2-1-9z" fill="#1B154D"/>
<path transform="translate(582,296)" d="m0 0h1l1 46 7-2-5 5-3 1-1-5-1-19v-16z" fill="#F2DCFC"/>
<path transform="translate(149,538)" d="m0 0h1l1 25 1 4-1 2 2 1 2 4-4 8-2-4z" fill="#3F6EED"/>
<path transform="translate(537,616)" d="m0 0h6v2h32l-1 2h-30l-7-1-1 3v-5z" fill="#C58BF9"/>
<path transform="translate(632,213)" d="m0 0h17v4l-9 2-8-1z" fill="#FFEAC5"/>
<path transform="translate(392,521)" d="m0 0h2l2 6-5 5-2 1h-7l1-4h3l2-4 4-2z" fill="#7BB8FA"/>
<path transform="translate(352,186)" d="m0 0h5l4 2 5 3-2 5-4 2-4-4-2-6h-2z" fill="#B980F9"/>
<path transform="translate(222,669)" d="m0 0h33l1 2-2 1-31-1-2 4z" fill="#96B3F8"/>
<path transform="translate(535,621)" d="m0 0 2 3v13h25l1 2-25 1-1 6h-1z" fill="#B97FF5"/>
<path transform="translate(421,273)" d="m0 0h25l-2 2-12 1h-13l-19-1v-1z" fill="#23286C"/>
<path transform="translate(751,567)" d="m0 0 3 1v17l-1 12-2 3-1-2z" fill="#1C2261"/>
<path transform="translate(225,664)" d="m0 0 19 1 10 2v1h-30z" fill="#120E43"/>
<path transform="translate(302,162)" d="m0 0h6l4 4-3-1h-7l-4 2-2 6 1 4-5 5v-3l1-5-1-6z" fill="#D89DFA"/>
<path transform="translate(677,271)" d="m0 0 3 1 51 1v1l-33 1h-8l-5 1-9-3z" fill="#FFE3C6"/>
<path transform="translate(377,773)" d="m0 0 11 2 10 1 9 1 1 2h-13l-10-1-9-2z" fill="#FCEBFB"/>
<path transform="translate(225,227)" d="m0 0 8 2 2 4v11l-2-2-2-4-2-1v-3h-2l-3-5z" fill="#D98BF9"/>
<path transform="translate(521,659)" d="m0 0h3v5h-23l2-2 13-2z" fill="#120D41"/>
<path transform="translate(463,446)" d="m0 0 3 3 2 5-9 7-5 4-6 3-1 2h-10v-1l6-1 3-3 8-3 3-3 7-4 1-3z" fill="#FBD658"/>
<path transform="translate(149,299)" d="m0 0h1v35l-2-1-1-27z" fill="#4CACF8"/>
<path transform="translate(181,225)" d="m0 0 2 1-2 4 3 5v9l-2 6h-1l-2-13-2-5 3-6z" fill="#E3B4FA"/>
<path transform="translate(311,624)" d="m0 0h1v6l-2 2v-2h-58v-1l57-1z" fill="#4073F9"/>
<path transform="translate(395,557)" d="m0 0h2l-1 9 1 1 37 1v1l-43 1z" fill="#2D307B"/>
<path transform="translate(757,538)" d="m0 0h1v22l-1 23h-1l-1-29-1-4 2-5z" fill="#594A99"/>
<path transform="translate(466,455)" d="m0 0h2v2l2-1h8l-2 2-13 2-3 1-1 5-9 1v2l-3-1 4-3 5-3z" fill="#E3DBDB"/>
<path transform="translate(709,258)" d="m0 0m-11 1h5l2 1 4-1h3l1 3-6 1h-22l2-2 9-1z" fill="#FFE6C5"/>
<path transform="translate(152,318)" d="m0 0h2l1 20-1 13-2-1z" fill="#9BC5FD"/>
<path transform="translate(294,692)" d="m0 0h1l-1 9-5 17-4-1-6-7 6 2 2 1 4-11z" fill="#C14CA7"/>
<path transform="translate(147,584)" d="m0 0h1l-1 9-3 9-3 4-2-9 2-3 3-3z" fill="#472266"/>
<path transform="translate(327,132)" d="m0 0 2 1-3 3h-5l-1 3-7 1-1 3-7 2-2 1-2-2 16-8z" fill="#FBE7FB"/>
<path transform="translate(318,754)" d="m0 0 5 2 3 5-1 2-2-1-20-2v-1l13-2v-2z" fill="#FCEDFA"/>
<path transform="translate(641,166)" d="m0 0 5 4 1 4v8l-1 3h-2l-2-5z" fill="#A5C0FA"/>
<path transform="translate(234,478)" d="m0 0 1 3-1 10-5 5-8 6-13 6v-2l16-9 7-6 1-2 1-9z" fill="#ABC3FA"/>
<path transform="translate(618,228)" d="m0 0h17l9 1v1l-18 2-11-1-1-2z" fill="#FFEBC5"/>
<path transform="translate(377,535)" d="m0 0 8 1 2 4-5 10h-1v-7l-2-6h-2z" fill="#EE9F8E"/>
<path transform="translate(772,139)" d="m0 0h9l6 2v14l-3-4-2-7-2-1v-2l-8-1z" fill="#FCE076"/>
<path transform="translate(259,593)" d="m0 0 5 1 12 4 14 2v1h-17l-8-3v-2l-6-2z" fill="#E2AE99"/>
<path transform="translate(689,157)" d="m0 0 11 4 5 4 3 6v8h-1l-1-7h-2l-4-7-11-6z" fill="#A3B6F4"/>
<path transform="translate(249,583)" d="m0 0h5l5 5 5 4-7 1-9-7z" fill="#F7C55E"/>
<path transform="translate(267,208)" d="m0 0 4 2 4 4v15l-2 6-5 3 2-4 2-7v-13z" fill="#D7A7F8"/>
<path transform="translate(298,733)" d="m0 0 4 2 2 2-1 5-2 2-4-1-1-7z" fill="#FBE5FB"/>
<path transform="translate(303,700)" d="m0 0 4 4-1 2h-3l-5 19 1 7-3-2v-8l6-21z" fill="#C14DB1"/>
<path transform="translate(341,515)" d="m0 0 1 4-1 8 2 4 2 10 3 4-4-2-3-4-2-6v-12z" fill="#F0A097"/>
<path transform="translate(666,237)" d="m0 0 4 2 1 8-2 6v-2l-2-1-2-2v-10z" fill="#FFE8C8"/>
<path transform="translate(321,629)" d="m0 0h2v40h-1l-1-32-3 3 2-9z" fill="#8C55B3"/>
<path transform="translate(118,643)" d="m0 0h3l-1 5-4 2-2 6-2-4v-5l2-3z" fill="#1A134B"/>
<path transform="translate(562,637)" d="m0 0h16v1l-7 2h-33v-1l24-1z" fill="#C58BF9"/>
<path transform="translate(368,234)" d="m0 0 6 1 2 5 2 1v4l-5-1v-2l-2-1 1-3-4 3-1-4z" fill="#D98BF9"/>
<path transform="translate(289,760)" d="m0 0 5 1 4 2-1 4h-9z" fill="#27194F"/>
<path transform="translate(548,626)" d="m0 0h12l4 2-3 3-11-1v-2h-2z" fill="#C78DFA"/>
<path transform="translate(388,482)" d="m0 0h2l3 8v8h-1l-2-7-5-2-4 1 6-7z" fill="#B1C5FA"/>
<path transform="translate(342,266)" d="m0 0h13l-3 2-30 1-5 1v-3z" fill="#120D41"/>
<path transform="translate(584,279)" d="m0 0 3 3 1 5-1 9-2 5h-1z" fill="#F0A268"/>
<path transform="translate(632,158)" d="m0 0 6 1 6 7-1 2-1-1-2 2-5-5-6-4z" fill="#E1D4FB"/>
<path transform="translate(711,637)" d="m0 0h32v2l-2 1h-11v-1l-19-1z" fill="#C489F3"/>
<path transform="translate(343,621)" d="m0 0 4 1v3h2v2l2 1-2 1h-8l-1-5 3-1z" fill="#448EF5"/>
<path transform="translate(355,674)" d="m0 0 5 1v7l-4 1-3-3v-5z" fill="#FCE6FB"/>
<path transform="translate(309,667)" d="m0 0 1 2-2 3h-2l-1 4h-2l1 3-4 1v-7l1-3 5-2v2h2z" fill="#C88EF9"/>
<path transform="translate(432,275)" d="m0 0h19l-2 2-13 1-20-1v-1z" fill="#4076EB"/>
<path transform="translate(695,192)" d="m0 0h3l-1 4-4 1h-9l-4-1v-2l12-1z" fill="#A775CF"/>
<path transform="translate(504,485)" d="m0 0h4l1 6-4 4h-3v-9z" fill="#A32370"/>
<path transform="translate(301,274)" d="m0 0m-13 0h12l1 2-3 1h-19l1-2z" fill="#1C2261"/>
<path transform="translate(613,189)" d="m0 0 4 1v2l13 2-2 1v2l-9-1-5-2z" fill="#CCA5F6"/>
<path transform="translate(174,766)" d="m0 0 4 5h-24l1-2 18-1z" fill="#120D41"/>
<path transform="translate(241,510)" d="m0 0 5 1-4 2-4 3v9l-3-4-2-4 1-4z" fill="#ACC3FA"/>
<path transform="translate(454,665)" d="m0 0 25 1v1l-15 1h-13l-7-1v-1z" fill="#120D41"/>
<path transform="translate(287,185)" d="m0 0 2 1-8 8h-8l-4 1-2 13h-1v-8l3-7 1-1 11-1z" fill="#D7A7F8"/>
<path transform="translate(294,670)" d="m0 0h7l-2 9-2 6-3-1-1-4 3 1 2-7-5-2z" fill="#F5D9FB"/>
<path transform="translate(671,274)" d="m0 0h2l-1 5-4 3-5 2-5 5-2-1 7-7z" fill="#F2EDE1"/>
<path transform="translate(650,273)" d="m0 0h16v2l-5 3-10-3z" fill="#FAE7C9"/>
<path transform="translate(733,172)" d="m0 0h1l2 14 7 6v2l-5-2-5-6-1-3v-7z" fill="#8B55B3"/>
<path transform="translate(367,561)" d="m0 0h1l1 6 4 2-1 2-5-2-7-1 1-3z" fill="#96BDF6"/>
<path transform="translate(238,186)" d="m0 0 2 1-8 8v-3zm-8 9m-1 1m-1 1v3l-4 5h-2l-1 3h-6l3-2 8-7z" fill="#FAE7FC"/>
<path transform="translate(338,162)" d="m0 0 2 1-9 8h-16l-2-4 3 1h15z" fill="#D8A0F9"/>
<path transform="translate(526,758)" d="m0 0h7l-3 2-19 6-4-1 7-3 7-2z" fill="#FCEEFC"/>
<path transform="translate(452,466)" d="m0 0h2l-1 5-4 1v6h5v1h-6l-1-1v-9h3v-2z" fill="#35317D"/>
<path transform="translate(600,226)" d="m0 0 1 4-1 15-2-4-2-3v-6h2z" fill="#F8C958"/>
<path transform="translate(219,630)" d="m0 0h7l4 1v2l8 1 5 2v1l-8-1-11-3-5-2z" fill="#87236E"/>
<path transform="translate(370,559)" d="m0 0 2 3 4-1-1 6-3 2-4-2 1-5z" fill="#FAEDE8"/>
<path transform="translate(229,203)" d="m0 0 4 1 3 5 2 8-3-3-2-5-5-2-1-3z" fill="#D999FA"/>
<path transform="translate(741,729)" d="m0 0h29l2 2-2 1-30-1z" fill="#85246D"/>
<path transform="translate(122,652)" d="m0 0 2 2v6l-2 2-2-2v-3h-2l1 4-3-2-1-4 5-2 1 1z" fill="#282264"/>
<path transform="translate(540,640)" d="m0 0h9l2 2v2l-8 1-3-1-1-3z" fill="#D7A7F8"/>
<path transform="translate(392,562)" d="m0 0h1l-1 7-1 1h-10l1-5h2l2 2 5-2z" fill="#FCE7C3"/>
<path transform="translate(211,506)" d="m0 0 6 1 7 4-3 1-5-3-6 1-9 6 2-4z" fill="#F9CE59"/>
<path transform="translate(246,249)" d="m0 0 3 1-1 7-4 4-3-1v-2h2z" fill="#D98BF9"/>
<path transform="translate(713,235)" d="m0 0 1 2-3 6-6 5-2-2 9-10z" fill="#F6EED7"/>
<path transform="translate(224,206)" d="m0 0h3l1 3-3 2-6 2-6-1-2-2 13-2z" fill="#DA94FC"/>
<path transform="translate(639,159)" d="m0 0 5 1 4 4h-2l1 3-2 3-4-6-3-4z" fill="#FBE5F9"/>
<path transform="translate(249,587)" d="m0 0 4 2 10 6 2 2-4 2-7-5z" fill="#82A6FB"/>
<path transform="translate(131,476)" d="m0 0h1v22l-2-1-1-16z" fill="#FCE6FB"/>
<path transform="translate(130,423)" d="m0 0 2 1v18l-2-3-1-4v-11z" fill="#F8DFFB"/>
<path transform="translate(325,630)" d="m0 0h2v13l-1 2h-2v-14z" fill="#CAA2EB"/>
<path transform="translate(360,256)" d="m0 0h2l-1 3h-2l-1 3 18 1v1h-20l-1-3 1-3z" fill="#CE93F5"/>
<path transform="translate(765,165)" d="m0 0 3 3 2 6v8l-2 3-1-6-1-8z" fill="#8155B1"/>
<path transform="translate(345,164)" d="m0 0 7 1 2 4-1 4h-3l-1-5h-2v-2l-3-1z" fill="#BB82F9"/>
<path transform="translate(134,562)" d="m0 0h1v11h-2l-3-5v-2l-3-1v-1z" fill="#F0DAF9"/>
<path transform="translate(422,471)" d="m0 0h14v1l-14 3-3 4 1-7z" fill="#2B114A"/>
<path transform="translate(160,288)" d="m0 0 1 2-6 4-3 6-1 8h-1v-13l6-5z" fill="#52B3FB"/>
<path transform="translate(525,255)" d="m0 0 10 1 7 2v1h-9v-2l-3 1h-8v-2z" fill="#FCEBFB"/>
<path transform="translate(706,191)" d="m0 0h2l-2 4-8 5-9 1 14-7z" fill="#FFF1C0"/>
<path transform="translate(228,634)" d="m0 0 7 1 18 5-3 2-17-5-5-2z" fill="#9D1F6F"/>
<path transform="translate(184,255)" d="m0 0 7 1-1 4-2 3-2-2-4-2z" fill="#D98BF9"/>
<path transform="translate(769,193)" d="m0 0 1 2-5 5-5 2h-16v-1l14-1 8-4z" fill="#FCD958"/>
<path transform="translate(357,739)" d="m0 0 2 1 3 13-1 2-2-1-1-7-2-3-3-2z" fill="#BA52B4"/>
<path transform="translate(298,604)" d="m0 0h9l2 2-2 1-14 1-2-2z" fill="#C488F2"/>
<path transform="translate(314,227)" d="m0 0h2l3 3 9 3-2 2h-6l-6-5z" fill="#F6DAFC"/>
<path transform="translate(730,604)" d="m0 0h17l-1 2-12 1-8-1z" fill="#C259BE"/>
<path transform="translate(514,479)" d="m0 0h2l-2 6-5 10-2-3 2-7 4-2z" fill="#92307F"/>
<path transform="translate(429,403)" d="m0 0h1l2 13 5 2v1h-7l-2-5v-8z" fill="#A6C1FB"/>
<path transform="translate(401,352)" d="m0 0h6l3 5-7 1-2-3z" fill="#EFAB6C"/>
<path transform="translate(437,315)" d="m0 0 4 1 5 6v4l-5-2-2-8z" fill="#191853"/>
<path transform="translate(369,279)" d="m0 0h6l-3 1v2l-14 1-2-2 2-1z" fill="#4698F5"/>
<path transform="translate(708,172)" d="m0 0 3 1 1 8-3 3-1-1z" fill="#FAE4FB"/>
<path transform="translate(219,585)" d="m0 0h2l-2 5-7 12-1-4 6-10z" fill="#F0AA6E"/>
<path transform="translate(395,507)" d="m0 0 2 2 1 8 4-1-3 6h-2v-5h-2z" fill="#F8CA61"/>
<path transform="translate(215,218)" d="m0 0 14 1 1 2h-10l-15 1 3-2h7z" fill="#DA94FC"/>
<path transform="translate(442,332)" d="m0 0h3l-2 8-7-5 3-2z" fill="#20144D"/>
<path transform="translate(338,768)" d="m0 0 1 3-4 3-5-2v-3z" fill="#543E70"/>
<path transform="translate(299,703)" d="m0 0h1v7l-3 9-2-2 2-9z" fill="#D892FB"/>
<path transform="translate(157,286)" d="m0 0 2 1-8 8-2 7h-3l2-6 7-8z" fill="#4284EF"/>
<path transform="translate(727,242)" d="m0 0h1l1 17 3 2 6 1v1h-9l-2-2z" fill="#FFE3C6"/>
<path transform="translate(294,724)" d="m0 0h1l1 6-3 9-2-4 1-7z" fill="#D998FB"/>
<path transform="translate(396,517)" d="m0 0h1v5l5-2-1 5-2 7h-1v-7h-2z" fill="#F0AE60"/>
<path transform="translate(238,514)" d="m0 0h2l1 14-3-3-1-9z" fill="#92BCF3"/>
<path transform="translate(407,508)" d="m0 0h1v5h-2l-2 4-2 3h-2l2-7z" fill="#F9D05A"/>
<path transform="translate(198,513)" d="m0 0 4 1-10 9-5 4 2-4z" fill="#A1C2F9"/>
<path transform="translate(314,661)" d="m0 0 5 2 1 4-1 1h-5l-1-5z" fill="#120D42"/>
<path transform="translate(537,616)" d="m0 0h6v2h8v1l-7 1-7-1-1 3v-5z" fill="#C086F9"/>
<path transform="translate(373,447)" d="m0 0h2l1 7v3l-5-3-1-3z" fill="#FAD67E"/>
<path transform="translate(431,419)" d="m0 0h6l5 2-2 2-5 1-4-3z" fill="#FDEED6"/>
<path transform="translate(406,370)" d="m0 0 2 1v3l3 1-1 7-2 6-1-4 2-9-3-1z" fill="#E7A1A0"/>
<path transform="translate(766,182)" d="m0 0 2 1-1 6-3 3h-3l2-5z" fill="#B385E3"/>
<path transform="translate(176,768)" d="m0 0h27v1l-23 1h-3z" fill="#85528E"/>
<path transform="translate(172,694)" d="m0 0h1v21h-1l-1-11-1-8z" fill="#88246E"/>
<path transform="translate(360,586)" d="m0 0 5 1-3 8-4-5-1-3z" fill="#4279F8"/>
<path transform="translate(742,303)" d="m0 0 4 3v3h2v6l1 2-4-2-1-2-1-7z" fill="#FFE8C8"/>
<path transform="translate(656,278)" d="m0 0h4l-2 4-6 4-1-2z" fill="#F0DEC2"/>
<path transform="translate(332,251)" d="m0 0h7l-4 2v2h-11v-2l7-1z" fill="#D7A7F8"/>
<path transform="translate(584,126)" d="m0 0 5 2 7 5-3 2-4-1-1-4-4-2z" fill="#FEFEFE"/>
<path transform="translate(299,675)" d="m0 0h1v11h-2v2h-2l-1-4 2-3z" fill="#D79BF9"/>
<path transform="translate(150,569)" d="m0 0 3 1 2 4-4 8-1-3 1-4z" fill="#697BE5"/>
<path transform="translate(375,504)" d="m0 0 1 4-6 11-1-3 4-9z" fill="#7DBDFC"/>
<path transform="translate(287,256)" d="m0 0 6 2h2v2h2l1 5h-4l-1-4-5-3z" fill="#D7A0F8"/>
<path transform="translate(309,653)" d="m0 0 2 2 1 9-2 2-1-6-2-1z" fill="#C78DFA"/>
<path transform="translate(378,229)" d="m0 0 5 3 2 2v8l-2 2v-8l-2-4h-3z" fill="#D7A3F8"/>
<path transform="translate(201,205)" d="m0 0 7 2 1 3-4 2v-2l-2-1-3-1-2-1z" fill="#DC9FFA"/>
<path transform="translate(339,751)" d="m0 0 3 1-6 7-5 2 2-4 5-4z" fill="#9D398E"/>
<path transform="translate(276,604)" d="m0 0h13v3l-10-1z" fill="#C286EF"/>
<path transform="translate(395,557)" d="m0 0h2l-1 9-2 4-3-1 3-8z" fill="#391856"/>
<path transform="translate(173,540)" d="m0 0h2l-2 5-6 8-1-4 5-6z" fill="#7FACF8"/>
<path transform="translate(453,435)" d="m0 0 4 2v2h2l2 5-4-1-4-6z" fill="#FBDF57"/>
<path transform="translate(441,425)" d="m0 0 5 2 4 3v2l-6-2-4-3z" fill="#FDED56"/>
<path transform="translate(439,470)" d="m0 0h8l1 9h-2l-2-8-6 1z" fill="#781F6C"/>
<path transform="translate(449,464)" d="m0 0m-3 1h3l-2 5h-10v-1l6-1z" fill="#F7C75C"/>
<path transform="translate(464,425)" d="m0 0 5 1 4 2v1l-9-1-5-1v-1z" fill="#CECDFB"/>
<path transform="translate(444,334)" d="m0 0 1 2 2 1 1 6h-5z" fill="#89BAF8"/>
<path transform="translate(370,248)" d="m0 0h8l-3 2-7 3-4 4-2-1 5-5z" fill="#D7A7F8"/>
<path transform="translate(121,645)" d="m0 0h1v6l-7 3v-5l5-2z" fill="#352264"/>
<path transform="translate(263,607)" d="m0 0h1v10h-3l-1-5z" fill="#7DBEFD"/>
<path transform="translate(357,284)" d="m0 0h2l-1 4-15-2v-1z" fill="#86C4FD"/>
</svg>
