<svg width="100" height="100" viewBox="0 0 100 100" fill="none" xmlns="http://www.w3.org/2000/svg">
<g clip-path="url(#clip0_1_181)">
<path d="M50 100C77.6142 100 100 77.6142 100 50C100 22.3858 77.6142 0 50 0C22.3858 0 0 22.3858 0 50C0 77.6142 22.3858 100 50 100Z" fill="#FAD24D"/>
<path d="M49.9998 85.1596C69.6624 85.1596 85.6021 83.9029 85.6021 82.3527C85.6021 80.8026 69.6624 79.5459 49.9998 79.5459C30.3372 79.5459 14.3975 80.8026 14.3975 82.3527C14.3975 83.9029 30.3372 85.1596 49.9998 85.1596Z" fill="#EDB937"/>
<path d="M12.8872 13.1296H87.1132C89.5519 13.1296 91.5472 15.1249 91.5472 17.5636V63.2876H8.45361V17.5634C8.45361 15.1247 10.4489 13.1294 12.8876 13.1294L12.8872 13.1296Z" fill="#666666"/>
<path d="M11.4634 60.2768H88.5355V17.5633C88.5355 16.7862 87.8892 16.1399 87.1126 16.1399H12.8868C12.1101 16.1399 11.464 16.7862 11.464 17.5633V60.2768H11.4634Z" fill="white"/>
<path d="M91.5464 63.2874V68.1364C91.5464 70.5754 89.3472 72.5704 86.6589 72.5704H13.3411C10.6528 72.5704 8.45361 70.5754 8.45361 68.1364V63.2874H91.5468H91.5464Z" fill="white"/>
<path d="M50.0002 69.2616C50.8433 69.2616 51.5268 68.5782 51.5268 67.7351C51.5268 66.892 50.8433 66.2085 50.0002 66.2085C49.1571 66.2085 48.4736 66.892 48.4736 67.7351C48.4736 68.5782 49.1571 69.2616 50.0002 69.2616Z" fill="#B6B6B8"/>
<path d="M59.583 79.5455L66.6328 81.8045H33.3662L39.0543 79.5455V72.5703H59.5826V79.5455H59.583Z" fill="#C2C2C4"/>
<path d="M39.0548 79.5454H59.5833L66.6331 81.8044V82.777H50.0003H33.3667V81.8044L39.0548 79.5454Z" fill="#ECF0F1"/>
<path d="M39.0547 72.5701H59.5832V79.5453L39.0547 72.5701Z" fill="#919191"/>
<path d="M22.7719 19.043H14.8145V20.4133H22.7719V19.043Z" fill="#20D0C2"/>
<path d="M37.8069 19.043H23.6919V20.4133H37.8069V19.043Z" fill="#FF5B62"/>
<path d="M50.5049 19.043H38.4873V20.4133H50.5049V19.043Z" fill="#FAD24D"/>
<path d="M27.3952 24.6802H23.1733V26.0505H27.3952V24.6802Z" fill="#FAD24D"/>
<path d="M35.3721 24.6802H27.8828V26.0505H35.3721V24.6802Z" fill="#FF5B62"/>
<path d="M42.1083 24.6802H35.7329V26.0505H42.1083V24.6802Z" fill="#20D0C2"/>
<path d="M22.1813 27.0876H14.7642V28.458H22.1813V27.0876Z" fill="#20D0C2"/>
<path d="M36.191 27.0876H23.0371V28.458H36.191V27.0876Z" fill="#FAD24D"/>
<path d="M30.0993 29.9648H22.6821V31.3352H30.0993V29.9648Z" fill="#FF5B62"/>
<path d="M44.109 29.9648H30.9551V31.3352H44.109V29.9648Z" fill="#20D0C2"/>
<path d="M23.5031 32.7153H16.0859V34.0856H23.5031V32.7153Z" fill="#FAD24D"/>
<path d="M29.7914 32.7153H24.4834V34.0856H29.7914V32.7153Z" fill="#20D0C2"/>
<path d="M45.9455 32.7153H31.041V34.0856H45.9455V32.7153Z" fill="#FF5B62"/>
<path d="M52.3451 32.7153H47.0371V34.0856H52.3451V32.7153Z" fill="#20D0C2"/>
<path d="M34.349 35.5925H14.501V36.9628H34.349V35.5925Z" fill="#20D0C2"/>
<path d="M40.5224 35.5925H35.2144V36.9628H40.5224V35.5925Z" fill="#FAD24D"/>
<path d="M48.696 35.5925H41.2788V36.9628H48.696V35.5925Z" fill="#FF5B62"/>
<path d="M24.059 21.6978H23.5107V23.3415H24.059V21.6978Z" fill="white"/>
<path d="M38.2812 27.0876H37.7329V28.7314H38.2812V27.0876Z" fill="white"/>
<path d="M22.7719 39.6472H14.8145V41.0175H22.7719V39.6472Z" fill="#20D0C2"/>
<path d="M37.8069 39.6472H23.6919V41.0175H37.8069V39.6472Z" fill="#FF5B62"/>
<path d="M50.5049 39.6472H38.4873V41.0175H50.5049V39.6472Z" fill="#FAD24D"/>
<path d="M27.3952 45.2825H23.1733V46.6528H27.3952V45.2825Z" fill="#FAD24D"/>
<path d="M35.3721 45.2827H27.8828V46.653H35.3721V45.2827Z" fill="#FF5B62"/>
<path d="M42.1083 45.2827H35.7329V46.653H42.1083V45.2827Z" fill="#20D0C2"/>
<path d="M22.1813 47.6921H14.7642V49.0625H22.1813V47.6921Z" fill="#20D0C2"/>
<path d="M36.191 47.6919H23.0371V49.0622H36.191V47.6919Z" fill="#FAD24D"/>
<path d="M24.059 42.3003H23.5107V43.944H24.059V42.3003Z" fill="white"/>
<path d="M38.2812 47.6921H37.7329V49.3359H38.2812V47.6921Z" fill="white"/>
<path d="M85.4638 19.043H56.6841V25.6805H85.4638V19.043Z" fill="#DCE3DB"/>
<path d="M56.6836 26.6206H70.3902V35.3808H56.6836V26.6206Z" fill="#DCE3DB"/>
<path d="M71.7573 26.6206H85.464V35.3808H71.7573V26.6206Z" fill="#DCE3DB"/>
<path d="M56.7231 36.637H85.4249V37.0612H56.7231V36.637ZM56.7231 40.6475H75.5774V41.0717H56.7231V40.6475ZM56.7231 39.3104H85.4249V39.7346H56.7231V39.3104ZM56.7231 37.9739H85.4249V38.3981H56.7231V37.9739Z" fill="#DCE3DB"/>
<path d="M56.6499 42.1138H65.2032V50.5942H56.6499V42.1138ZM76.9454 42.1138H85.4991V50.5942H76.9454V42.1138ZM66.7978 42.1138H75.3511V50.5942H66.7978V42.1138Z" fill="#DCE3DB"/>
<path d="M56.7231 51.7749H85.4249V52.1991H56.7231V51.7749ZM56.7231 55.7854H75.5774V56.2097H56.7231V55.7854ZM56.7231 54.4485H85.4249V54.8728H56.7231V54.4485ZM56.7231 53.112H85.4249V53.5362H56.7231V53.112Z" fill="#DCE3DB"/>
</g>
<defs>
<clipPath id="clip0_1_181">
<rect width="100" height="100" fill="white"/>
</clipPath>
</defs>
</svg>
